<?xml version="1.0" encoding="UTF-8" standalone="no"?>
<!-- Created with Inkscape (http://www.inkscape.org/) -->

<svg
   version="1.1"
   id="svg1049"
   width="493.00208"
   height="494.00925"
   viewBox="0 0 493.00207 494.00925"
   xmlns="http://www.w3.org/2000/svg"
   xmlns:svg="http://www.w3.org/2000/svg">
  <defs
     id="defs1053" />
  <g
     id="layer2"
     style="display:none;fill:#333333;stroke:#ffffff;stroke-opacity:1"
     transform="translate(-225.99898,-15.994853)">
    <rect
       style="fill:#1a1a1a;stroke:#ffffff;stroke-width:3.77953;stroke-dasharray:none;stroke-opacity:1"
       id="rect9341"
       width="960"
       height="720"
       x="0"
       y="0" />
  </g>
  <g
     id="g1057"
     transform="matrix(1.3333333,0,0,-1.3333333,-225.99898,688.00515)">
    <g
       id="g9455"
       transform="matrix(1.0000042,0,0,1.0040838,-0.00147517,-5.8686908)">
      <path
         d="m 249.328,356.047 -32.887,-21.692 32.887,-21.687 v -53.871 h 37.766 v 18.492 h -19.278 v 45.332 l -17.793,11.734 17.793,11.739 v 45.332 h 19.278 v 18.492 h -37.766 v -53.871"
         style="fill:#4078c0;fill-opacity:1;fill-rule:nonzero;stroke:#ffffff;stroke-width:1.5;stroke-dasharray:none;stroke-opacity:1"
         id="path1063" />
      <path
         d="m 458.672,356.047 v 53.871 h -37.766 v -18.492 h 19.278 v -45.332 l 17.793,-11.739 -17.793,-11.734 v -45.332 h -19.278 v -18.492 h 37.766 v 53.871 l 32.887,21.687 -32.887,21.692"
         style="fill:#4078c0;fill-opacity:1;fill-rule:nonzero;stroke:#ffffff;stroke-width:1.5;stroke-dasharray:none;stroke-opacity:1"
         id="path1065" />
      <path
         d="m 355.41,282.285 h -32.82 v 96.422 h 31.105 c 5.239,0 9.45,-0.18 12.637,-0.535 7.734,-1.047 13.672,-3.594 17.809,-7.649 4.14,-4.043 6.211,-9.414 6.211,-16.109 0,-10.144 -5.278,-16.988 -15.836,-20.531 12.875,-3.141 19.308,-10.832 19.308,-23.071 0,-4.234 -0.726,-8.058 -2.176,-11.468 -1.46,-3.41 -3.429,-6.207 -5.906,-8.387 -2.48,-2.187 -5.187,-3.941 -8.129,-5.258 -2.929,-1.324 -6.054,-2.238 -9.379,-2.738 -3.179,-0.453 -7.453,-0.676 -12.824,-0.676 z m -17.476,43.875 v -31.586 h 18.976 c 3.188,0 5.395,0.043 6.613,0.129 4.141,0.367 7.52,1.902 10.145,4.613 2.613,2.707 3.918,6.309 3.918,10.805 0,9.328 -4.731,14.539 -14.191,15.633 -1.864,0.269 -4.301,0.406 -7.305,0.406 z m 0,40.399 v -28.512 h 16.785 c 2.593,0 5.004,0.176 7.234,0.531 8.106,1.277 12.16,5.988 12.16,14.137 0,4.09 -1.172,7.25 -3.515,9.48 -2.344,2.227 -5.543,3.547 -9.598,3.961 -2.227,0.27 -4.66,0.403 -7.305,0.403 z"
         style="fill:#4078c0;fill-opacity:1;fill-rule:nonzero;stroke:#ffffff;stroke-width:1.5;stroke-dasharray:none;stroke-opacity:1"
         id="path1069" />
      <path
         d="m 431.81613,501.9394 c -6.04943,2.79219 -12.25892,5.29987 -18.6555,7.43619 -18.47242,6.24724 -38.23836,9.62442 -58.80163,9.62442 -20.76935,0 -40.71937,-3.45505 -59.35186,-9.8111 -6.36956,-2.16027 -12.57905,-4.66796 -18.60447,-7.51505 C 213.74848,472.34937 170.25,408.77187 170.25,335.25051 c 0,-73.60023 43.57652,-137.23263 106.33974,-166.53017 6.04943,-2.81914 12.25893,-5.32682 18.6565,-7.4871 C 313.7967,154.9281 333.69469,151.5 354.359,151.5 c 20.45822,0 40.16915,3.35023 58.56254,9.54656 6.39757,2.13632 12.63408,4.61705 18.68351,7.4362 63.08035,29.19172 106.89496,92.95688 106.89496,166.76775 0,73.732 -43.73658,137.44226 -106.68388,166.68889 z M 354.359,500.53981 c 15.24913,0 30.02407,-2.05546 44.0297,-5.93178 l -44.39685,-44.40752 -44.23678,44.24779 c 14.18971,3.98114 29.14872,6.09151 44.60393,6.09151 z m 0,-330.5796 c -15.34917,0 -30.23015,2.11036 -44.36883,6.04059 l 44.00168,44.0102 44.15875,-44.16992 c -13.95461,-3.84937 -28.6215,-5.88087 -43.7916,-5.88087 z m 63.26843,12.52543 -63.63558,63.66035 -63.42349,-63.44971 c -59.75102,24.99993 -101.82193,83.96537 -101.82193,152.55423 0,68.50999 41.96587,127.42053 101.61085,152.44742 h 0.027 l 63.60756,-63.6324 63.81865,63.87098 c 59.9621,-24.89511 102.19308,-83.96537 102.19308,-152.686 0,-68.7995 -42.33702,-127.92067 -102.37615,-152.76487"
         style="fill:#4078c0;fill-opacity:1;fill-rule:nonzero;stroke:#ffffff;stroke-width:1.5;stroke-dasharray:none;stroke-opacity:1"
         id="path1061" />
    </g>
  </g>
</svg>
