<?xml version="1.0" standalone="no"?>
<!DOCTYPE svg PUBLIC "-//W3C//DTD SVG 20010904//EN"
 "http://www.w3.org/TR/2001/REC-SVG-20010904/DTD/svg10.dtd">
<svg version="1.0" xmlns="http://www.w3.org/2000/svg"
 width="500.000000pt" height="500.000000pt" viewBox="0 0 500.000000 500.000000"
 preserveAspectRatio="xMidYMid meet">
<metadata>
Created by potrace 1.14, written by Peter Selinger 2001-2017
</metadata>
<g transform="translate(0.000000,500.000000) scale(0.100000,-0.100000)"
fill="#000000" stroke="none">
<path d="M2370 4789 c-477 -27 -930 -201 -1299 -496 -333 -268 -583 -622 -722
-1023 -48 -137 -70 -220 -94 -360 -36 -207 -40 -537 -10 -715 33 -191 100
-435 140 -511 8 -16 15 -32 15 -37 0 -4 27 -62 61 -129 285 -573 801 -1000
1414 -1172 123 -35 232 -56 375 -73 69 -9 397 -9 470 0 138 16 140 16 215 33
6 1 26 5 45 9 64 11 244 66 335 102 196 77 357 169 555 315 152 113 355 327
481 508 166 239 306 562 353 815 18 95 26 145 31 190 3 28 8 66 11 85 6 39 7
354 0 385 -2 11 -7 52 -11 90 -4 39 -9 79 -11 90 -2 11 -7 34 -9 50 -3 17 -15
68 -26 115 -114 477 -385 905 -776 1227 -72 60 -285 203 -300 203 -6 0 -13 3
-15 8 -5 11 -137 77 -243 121 -111 47 -327 112 -415 127 -14 2 -36 7 -50 10
-14 3 -43 8 -65 11 -22 3 -51 7 -65 9 -14 2 -77 6 -140 10 -63 3 -119 6 -125
7 -5 2 -62 0 -125 -4z m303 -233 c132 -12 349 -54 345 -67 -4 -12 -530 -539
-537 -539 -10 0 -531 527 -531 537 0 5 6 10 13 11 6 0 41 8 77 16 36 8 82 17
104 20 21 4 41 8 45 10 3 2 51 7 106 11 55 4 101 8 102 9 4 4 206 -2 276 -8z
m202 -541 l391 393 68 -29 c242 -103 516 -310 704 -532 168 -197 345 -517 397
-717 2 -8 12 -42 21 -75 17 -63 17 -66 35 -160 123 -649 -90 -1335 -557 -1800
-95 -95 -135 -131 -189 -170 -22 -17 -42 -33 -45 -36 -18 -22 -214 -140 -313
-189 l-120 -60 -392 394 -393 393 -388 -388 c-214 -214 -393 -389 -399 -389
-5 0 -58 25 -118 55 -607 307 -1013 875 -1112 1560 -10 69 -14 417 -5 475 5
30 11 73 14 95 6 40 12 75 22 130 35 176 142 442 252 622 42 68 123 184 142
203 3 3 28 32 55 65 164 196 365 354 619 486 l131 68 394 -393 394 -394 392
393z m-120 -3185 c177 -177 264 -271 254 -274 -27 -10 -94 -25 -134 -31 -22
-3 -65 -9 -95 -14 -123 -21 -383 -30 -460 -17 -14 3 -50 7 -80 10 -30 3 -66 8
-80 11 -14 3 -49 9 -78 15 -69 12 -132 30 -132 35 0 7 523 534 530 535 3 0
126 -121 275 -270z"/>
<path d="M1199 3393 c0 -32 -1 -182 -2 -333 l-2 -275 -197 -130 c-109 -71
-198 -132 -198 -135 0 -3 90 -64 200 -137 l199 -132 0 -273 c0 -150 0 -299 0
-330 l1 -58 230 0 c212 0 230 1 231 18 4 55 3 202 -1 204 -3 0 -54 2 -113 3
-59 1 -111 5 -114 9 -4 4 -7 129 -8 279 l0 272 -108 72 c-107 71 -108 72 -85
88 13 9 61 42 108 73 l85 57 0 272 c1 150 4 275 7 278 4 4 56 7 117 7 72 0
111 4 113 12 4 9 2 186 -1 209 0 4 -104 7 -231 7 l-230 0 -1 -57z"/>
<path d="M3310 3336 l0 -113 78 -1 c42 0 96 -1 120 -1 l42 -1 0 -279 0 -279
105 -68 c58 -38 105 -71 105 -74 0 -3 -47 -37 -105 -74 l-105 -68 0 -279 c0
-259 -1 -279 -17 -280 -10 -1 -64 -1 -120 -1 l-103 -1 0 -113 0 -114 233 0
234 0 0 330 c0 182 2 332 4 334 2 2 93 62 202 134 l197 131 -37 26 c-21 15
-110 74 -198 132 -88 57 -162 107 -164 109 -2 2 -4 152 -4 334 l0 330 -234 0
-233 0 0 -114z"/>
<path d="M2100 2474 l0 -594 143 -1 c202 0 358 2 387 5 140 18 258 86 306 177
27 52 42 132 38 200 -7 110 -70 193 -180 235 l-45 17 43 24 c101 57 141 124
140 237 -2 132 -73 223 -210 267 -61 19 -93 21 -344 24 l-278 3 0 -594z m548
414 c57 -28 83 -70 84 -137 3 -103 -54 -166 -159 -178 -32 -3 -107 -6 -168 -7
l-110 -1 -3 165 c-1 90 0 170 2 177 4 9 41 11 156 8 134 -3 157 -6 198 -27z
m1 -484 c62 -18 108 -66 120 -126 24 -108 -20 -199 -113 -235 -19 -7 -96 -12
-198 -12 l-168 -1 0 196 0 196 158 -3 c90 -1 176 -8 201 -15z"/>
</g>
</svg>
