<svg width="430" height="110" viewBox="0 0 430 110" fill="none" xmlns="http://www.w3.org/2000/svg">
<path d="M97.5127 39.5488V43.0352C97.5127 44.7051 97.3467 46.1309 97.0146 47.3125C96.6924 48.4844 96.2236 49.4365 95.6084 50.1689C94.9932 50.9014 94.2559 51.4385 93.3965 51.7803C92.5469 52.1221 91.5947 52.293 90.54 52.293C89.7002 52.293 88.9189 52.1855 88.1963 51.9707C87.4834 51.7559 86.8389 51.4189 86.2627 50.96C85.6865 50.501 85.1934 49.9102 84.7832 49.1875C84.3828 48.4551 84.0703 47.5811 83.8457 46.5654C83.6309 45.5498 83.5234 44.373 83.5234 43.0352V39.5488C83.5234 37.8691 83.6895 36.4531 84.0215 35.3008C84.3535 34.1387 84.8271 33.1963 85.4424 32.4736C86.0576 31.7412 86.79 31.209 87.6396 30.877C88.499 30.5449 89.4561 30.3789 90.5107 30.3789C91.3604 30.3789 92.1416 30.4863 92.8545 30.7012C93.5771 30.9062 94.2217 31.2334 94.7881 31.6826C95.3643 32.1318 95.8525 32.7178 96.2529 33.4404C96.6631 34.1533 96.9756 35.0176 97.1904 36.0332C97.4053 37.0391 97.5127 38.2109 97.5127 39.5488ZM93.9824 43.5332V39.0215C93.9824 38.1719 93.9336 37.4248 93.8359 36.7803C93.7383 36.126 93.5918 35.5742 93.3965 35.125C93.2109 34.666 92.9766 34.2949 92.6934 34.0117C92.4102 33.7188 92.0879 33.5088 91.7266 33.3818C91.3652 33.2451 90.96 33.1768 90.5107 33.1768C89.9639 33.1768 89.4756 33.2842 89.0459 33.499C88.6162 33.7041 88.2549 34.0361 87.9619 34.4951C87.6689 34.9541 87.4443 35.5596 87.2881 36.3115C87.1416 37.0537 87.0684 37.957 87.0684 39.0215V43.5332C87.0684 44.3926 87.1172 45.1494 87.2148 45.8037C87.3125 46.458 87.459 47.0195 87.6543 47.4883C87.8496 47.9473 88.084 48.3281 88.3574 48.6309C88.6406 48.9238 88.9629 49.1387 89.3242 49.2754C89.6953 49.4121 90.1006 49.4805 90.54 49.4805C91.0967 49.4805 91.5898 49.373 92.0195 49.1582C92.4492 48.9434 92.8105 48.6016 93.1035 48.1328C93.3965 47.6543 93.6162 47.0342 93.7627 46.2725C93.9092 45.5107 93.9824 44.5977 93.9824 43.5332ZM115.354 44.3975V47.21H99.9736L99.8564 45.0859L109.056 30.6719H111.883L108.821 35.916L103.533 44.3975H115.354ZM112.688 30.6719V52H109.158V30.6719H112.688Z" fill="black"/>
<path d="M87.1235 82H84.897L84.9116 80.8501H87.1235C87.8853 80.8501 88.52 80.6914 89.0278 80.374C89.5356 80.0518 89.9165 79.6025 90.1704 79.0264C90.4292 78.4453 90.5586 77.7666 90.5586 76.9902V76.3384C90.5586 75.728 90.4854 75.186 90.3389 74.7124C90.1924 74.2339 89.9775 73.8311 89.6943 73.5039C89.4111 73.1719 89.0645 72.9204 88.6543 72.7495C88.249 72.5786 87.7827 72.4932 87.2554 72.4932H84.853V71.3359H87.2554C87.9536 71.3359 88.5908 71.4531 89.167 71.6875C89.7432 71.917 90.2388 72.2515 90.6538 72.6909C91.0737 73.1255 91.396 73.6528 91.6206 74.2729C91.8452 74.8882 91.9575 75.5815 91.9575 76.353V76.9902C91.9575 77.7617 91.8452 78.4575 91.6206 79.0776C91.396 79.6929 91.0713 80.2178 90.6465 80.6523C90.2266 81.0869 89.7188 81.4214 89.123 81.6558C88.5322 81.8853 87.8657 82 87.1235 82ZM85.6514 71.3359V82H84.2378V71.3359H85.6514ZM98.5493 80.645V76.5654C98.5493 76.2529 98.4858 75.9819 98.3589 75.7524C98.2368 75.5181 98.0513 75.3374 97.8022 75.2104C97.5532 75.0835 97.2456 75.02 96.8794 75.02C96.5376 75.02 96.2373 75.0786 95.9785 75.1958C95.7246 75.313 95.5244 75.4668 95.3779 75.6572C95.2363 75.8477 95.1655 76.0527 95.1655 76.2725H93.8105C93.8105 75.9893 93.8838 75.7085 94.0303 75.4302C94.1768 75.1519 94.3867 74.9004 94.6602 74.6758C94.9385 74.4463 95.2705 74.2656 95.6562 74.1338C96.0469 73.9971 96.4814 73.9287 96.96 73.9287C97.5361 73.9287 98.0439 74.0264 98.4834 74.2217C98.9277 74.417 99.2744 74.7124 99.5234 75.1079C99.7773 75.4985 99.9043 75.9893 99.9043 76.5801V80.2715C99.9043 80.5352 99.9263 80.8159 99.9702 81.1138C100.019 81.4116 100.09 81.668 100.183 81.8828V82H98.769C98.7007 81.8438 98.647 81.6362 98.6079 81.3774C98.5688 81.1138 98.5493 80.8696 98.5493 80.645ZM98.7837 77.1953L98.7983 78.1475H97.4287C97.043 78.1475 96.6987 78.1792 96.396 78.2427C96.0933 78.3013 95.8394 78.3916 95.6343 78.5137C95.4292 78.6357 95.2729 78.7896 95.1655 78.9751C95.0581 79.1558 95.0044 79.3682 95.0044 79.6123C95.0044 79.8613 95.0605 80.0884 95.1729 80.2935C95.2852 80.4985 95.4536 80.6621 95.6782 80.7842C95.9077 80.9014 96.1885 80.96 96.5205 80.96C96.9355 80.96 97.3018 80.8721 97.6191 80.6963C97.9365 80.5205 98.188 80.3057 98.3735 80.0518C98.564 79.7979 98.6665 79.5513 98.6812 79.312L99.2598 79.9639C99.2256 80.1689 99.1328 80.396 98.9814 80.645C98.8301 80.894 98.6274 81.1333 98.3735 81.3628C98.1245 81.5874 97.8267 81.7754 97.48 81.9268C97.1382 82.0732 96.7524 82.1465 96.3228 82.1465C95.7856 82.1465 95.3145 82.0415 94.9092 81.8315C94.5088 81.6216 94.1963 81.3408 93.9717 80.9893C93.752 80.6328 93.6421 80.2349 93.6421 79.7954C93.6421 79.3706 93.7251 78.9971 93.8911 78.6748C94.0571 78.3477 94.2964 78.0767 94.6089 77.8618C94.9214 77.6421 95.2974 77.4761 95.7368 77.3638C96.1763 77.2515 96.667 77.1953 97.209 77.1953H98.7837ZM104.145 81.1797L106.35 74.0752H107.8L104.621 83.2231C104.548 83.4185 104.45 83.6284 104.328 83.853C104.211 84.0825 104.06 84.2998 103.874 84.5049C103.688 84.71 103.464 84.876 103.2 85.0029C102.941 85.1348 102.631 85.2007 102.27 85.2007C102.163 85.2007 102.026 85.186 101.86 85.1567C101.694 85.1274 101.577 85.103 101.508 85.0835L101.501 83.9849C101.54 83.9897 101.601 83.9946 101.684 83.9995C101.772 84.0093 101.833 84.0142 101.867 84.0142C102.175 84.0142 102.436 83.9727 102.651 83.8896C102.866 83.8115 103.046 83.6772 103.193 83.4868C103.344 83.3013 103.474 83.0449 103.581 82.7178L104.145 81.1797ZM102.526 74.0752L104.584 80.2275L104.936 81.6558L103.962 82.1538L101.047 74.0752H102.526ZM113.637 79.8979C113.637 79.7026 113.593 79.522 113.505 79.356C113.422 79.1851 113.249 79.0312 112.985 78.8945C112.727 78.7529 112.336 78.6309 111.813 78.5283C111.374 78.4355 110.976 78.3257 110.62 78.1987C110.268 78.0718 109.968 77.918 109.719 77.7373C109.475 77.5566 109.287 77.3442 109.155 77.1001C109.023 76.856 108.957 76.5703 108.957 76.2432C108.957 75.9307 109.025 75.6353 109.162 75.3569C109.304 75.0786 109.501 74.832 109.755 74.6172C110.014 74.4023 110.324 74.2339 110.686 74.1118C111.047 73.9897 111.45 73.9287 111.894 73.9287C112.529 73.9287 113.071 74.041 113.52 74.2656C113.969 74.4902 114.313 74.7905 114.553 75.1665C114.792 75.5376 114.912 75.9502 114.912 76.4043H113.557C113.557 76.1846 113.491 75.9722 113.359 75.7671C113.232 75.5571 113.044 75.3838 112.795 75.2471C112.551 75.1104 112.25 75.042 111.894 75.042C111.518 75.042 111.213 75.1006 110.979 75.2178C110.749 75.3301 110.581 75.4741 110.473 75.6499C110.371 75.8257 110.319 76.0112 110.319 76.2065C110.319 76.353 110.344 76.4849 110.393 76.6021C110.446 76.7144 110.539 76.8193 110.671 76.917C110.803 77.0098 110.988 77.0977 111.228 77.1807C111.467 77.2637 111.772 77.3467 112.143 77.4297C112.792 77.5762 113.327 77.752 113.747 77.957C114.167 78.1621 114.479 78.4136 114.685 78.7114C114.89 79.0093 114.992 79.3706 114.992 79.7954C114.992 80.1421 114.919 80.4595 114.772 80.7476C114.631 81.0356 114.423 81.2847 114.15 81.4946C113.881 81.6997 113.559 81.8608 113.183 81.978C112.812 82.0903 112.395 82.1465 111.931 82.1465C111.232 82.1465 110.642 82.022 110.158 81.7729C109.675 81.5239 109.309 81.2017 109.06 80.8062C108.811 80.4106 108.686 79.9932 108.686 79.5537H110.048C110.068 79.9248 110.175 80.2202 110.371 80.4399C110.566 80.6548 110.805 80.8086 111.088 80.9014C111.372 80.9893 111.652 81.0332 111.931 81.0332C112.302 81.0332 112.612 80.9844 112.861 80.8867C113.115 80.7891 113.308 80.6548 113.439 80.4839C113.571 80.313 113.637 80.1177 113.637 79.8979Z" fill="black"/>
<path d="M134.86 50.2422C134.86 49.6953 135.046 49.2363 135.417 48.8652C135.788 48.4844 136.291 48.2939 136.926 48.2939C137.57 48.2939 138.073 48.4844 138.435 48.8652C138.806 49.2363 138.991 49.6953 138.991 50.2422C138.991 50.7891 138.806 51.248 138.435 51.6191C138.073 51.9902 137.57 52.1758 136.926 52.1758C136.291 52.1758 135.788 51.9902 135.417 51.6191C135.046 51.248 134.86 50.7891 134.86 50.2422ZM134.875 37.7617C134.875 37.2148 135.061 36.7559 135.432 36.3848C135.803 36.0039 136.306 35.8135 136.94 35.8135C137.585 35.8135 138.088 36.0039 138.449 36.3848C138.82 36.7559 139.006 37.2148 139.006 37.7617C139.006 38.3086 138.82 38.7676 138.449 39.1387C138.088 39.5098 137.585 39.6953 136.94 39.6953C136.306 39.6953 135.803 39.5098 135.432 39.1387C135.061 38.7676 134.875 38.3086 134.875 37.7617Z" fill="black"/>
<path d="M175.908 49.1875V52H161.611V49.583L168.555 42.0098C169.316 41.1504 169.917 40.4082 170.356 39.7832C170.796 39.1582 171.104 38.5967 171.279 38.0986C171.465 37.5908 171.558 37.0977 171.558 36.6191C171.558 35.9453 171.431 35.3545 171.177 34.8467C170.933 34.3291 170.571 33.9238 170.093 33.6309C169.614 33.3281 169.033 33.1768 168.35 33.1768C167.559 33.1768 166.895 33.3477 166.357 33.6895C165.82 34.0312 165.415 34.5049 165.142 35.1104C164.868 35.7061 164.731 36.3896 164.731 37.1611H161.201C161.201 35.9209 161.484 34.7881 162.051 33.7627C162.617 32.7275 163.438 31.9072 164.512 31.3018C165.586 30.6865 166.88 30.3789 168.394 30.3789C169.819 30.3789 171.03 30.6182 172.026 31.0967C173.022 31.5752 173.779 32.2539 174.297 33.1328C174.824 34.0117 175.088 35.0518 175.088 36.2529C175.088 36.917 174.98 37.5762 174.766 38.2305C174.551 38.8848 174.243 39.5391 173.843 40.1934C173.452 40.8379 172.988 41.4873 172.451 42.1416C171.914 42.7861 171.323 43.4404 170.679 44.1045L166.064 49.1875H175.908ZM182.808 39.7393H184.917C185.737 39.7393 186.416 39.5977 186.953 39.3145C187.5 39.0312 187.905 38.6406 188.169 38.1426C188.433 37.6445 188.564 37.0732 188.564 36.4287C188.564 35.7549 188.442 35.1787 188.198 34.7002C187.964 34.2119 187.603 33.8359 187.114 33.5723C186.636 33.3086 186.025 33.1768 185.283 33.1768C184.658 33.1768 184.092 33.3037 183.584 33.5576C183.086 33.8018 182.69 34.1533 182.397 34.6123C182.104 35.0615 181.958 35.5986 181.958 36.2236H178.413C178.413 35.0908 178.711 34.085 179.307 33.2061C179.902 32.3271 180.713 31.6387 181.738 31.1406C182.773 30.6328 183.936 30.3789 185.225 30.3789C186.602 30.3789 187.803 30.6084 188.828 31.0674C189.863 31.5166 190.669 32.1904 191.245 33.0889C191.821 33.9873 192.109 35.1006 192.109 36.4287C192.109 37.0342 191.968 37.6494 191.685 38.2744C191.401 38.8994 190.981 39.4707 190.425 39.9883C189.868 40.4961 189.175 40.9111 188.345 41.2334C187.515 41.5459 186.553 41.7021 185.459 41.7021H182.808V39.7393ZM182.808 42.4932V40.5596H185.459C186.709 40.5596 187.773 40.7061 188.652 40.999C189.541 41.292 190.264 41.6973 190.82 42.2148C191.377 42.7227 191.782 43.3037 192.036 43.958C192.3 44.6123 192.432 45.3057 192.432 46.0381C192.432 47.0342 192.251 47.9229 191.89 48.7041C191.538 49.4756 191.035 50.1299 190.381 50.667C189.727 51.2041 188.96 51.6094 188.081 51.8828C187.212 52.1562 186.265 52.293 185.239 52.293C184.321 52.293 183.442 52.166 182.603 51.9121C181.763 51.6582 181.011 51.2822 180.347 50.7842C179.683 50.2764 179.155 49.6465 178.765 48.8945C178.384 48.1328 178.193 47.2539 178.193 46.2578H181.724C181.724 46.8926 181.87 47.4541 182.163 47.9424C182.466 48.4209 182.886 48.7969 183.423 49.0703C183.97 49.3438 184.595 49.4805 185.298 49.4805C186.04 49.4805 186.68 49.3486 187.217 49.085C187.754 48.8213 188.164 48.4307 188.447 47.9131C188.74 47.3955 188.887 46.7705 188.887 46.0381C188.887 45.208 188.726 44.5342 188.403 44.0166C188.081 43.499 187.622 43.1182 187.026 42.874C186.431 42.6201 185.728 42.4932 184.917 42.4932H182.808Z" fill="black"/>
<path d="M165.203 75.9209V77.0708H159.432V75.9209H165.203ZM159.651 71.3359V82H158.238V71.3359H159.651ZM166.434 71.3359V82H165.027V71.3359H166.434ZM168.382 78.1255V77.957C168.382 77.3857 168.465 76.856 168.631 76.3677C168.797 75.8745 169.036 75.4473 169.349 75.0859C169.661 74.7197 170.04 74.4365 170.484 74.2363C170.928 74.0312 171.426 73.9287 171.978 73.9287C172.535 73.9287 173.035 74.0312 173.479 74.2363C173.929 74.4365 174.31 74.7197 174.622 75.0859C174.939 75.4473 175.181 75.8745 175.347 76.3677C175.513 76.856 175.596 77.3857 175.596 77.957V78.1255C175.596 78.6968 175.513 79.2266 175.347 79.7148C175.181 80.2031 174.939 80.6304 174.622 80.9966C174.31 81.3579 173.931 81.6411 173.487 81.8462C173.047 82.0464 172.549 82.1465 171.993 82.1465C171.436 82.1465 170.936 82.0464 170.491 81.8462C170.047 81.6411 169.666 81.3579 169.349 80.9966C169.036 80.6304 168.797 80.2031 168.631 79.7148C168.465 79.2266 168.382 78.6968 168.382 78.1255ZM169.737 77.957V78.1255C169.737 78.521 169.783 78.8945 169.876 79.2461C169.969 79.5928 170.108 79.9004 170.293 80.1689C170.484 80.4375 170.721 80.6499 171.004 80.8062C171.287 80.9575 171.617 81.0332 171.993 81.0332C172.364 81.0332 172.688 80.9575 172.967 80.8062C173.25 80.6499 173.484 80.4375 173.67 80.1689C173.855 79.9004 173.995 79.5928 174.087 79.2461C174.185 78.8945 174.234 78.521 174.234 78.1255V77.957C174.234 77.5664 174.185 77.1978 174.087 76.8511C173.995 76.4995 173.853 76.1895 173.663 75.9209C173.477 75.6475 173.243 75.4326 172.959 75.2764C172.681 75.1201 172.354 75.042 171.978 75.042C171.607 75.042 171.28 75.1201 170.997 75.2764C170.718 75.4326 170.484 75.6475 170.293 75.9209C170.108 76.1895 169.969 76.4995 169.876 76.8511C169.783 77.1978 169.737 77.5664 169.737 77.957ZM182.144 80.1689V74.0752H183.506V82H182.21L182.144 80.1689ZM182.4 78.499L182.964 78.4844C182.964 79.0117 182.908 79.5 182.796 79.9492C182.688 80.3936 182.513 80.7793 182.269 81.1064C182.024 81.4336 181.705 81.6899 181.309 81.8755C180.914 82.0562 180.433 82.1465 179.866 82.1465C179.48 82.1465 179.126 82.0903 178.804 81.978C178.487 81.8657 178.213 81.6924 177.984 81.458C177.754 81.2236 177.576 80.9185 177.449 80.5425C177.327 80.1665 177.266 79.7148 177.266 79.1875V74.0752H178.621V79.2021C178.621 79.5586 178.66 79.854 178.738 80.0884C178.821 80.3179 178.931 80.501 179.068 80.6377C179.209 80.7695 179.366 80.8623 179.537 80.916C179.712 80.9697 179.893 80.9966 180.079 80.9966C180.655 80.9966 181.111 80.8867 181.448 80.667C181.785 80.4424 182.027 80.1421 182.173 79.7661C182.325 79.3853 182.4 78.9629 182.4 78.499ZM186.927 75.3203V82H185.572V74.0752H186.89L186.927 75.3203ZM189.402 74.0312L189.395 75.291C189.283 75.2666 189.175 75.252 189.073 75.2471C188.975 75.2373 188.863 75.2324 188.736 75.2324C188.423 75.2324 188.147 75.2812 187.908 75.3789C187.669 75.4766 187.466 75.6133 187.3 75.7891C187.134 75.9648 187.002 76.1748 186.905 76.4189C186.812 76.6582 186.751 76.9219 186.722 77.21L186.341 77.4297C186.341 76.9512 186.387 76.502 186.48 76.082C186.578 75.6621 186.727 75.291 186.927 74.9688C187.127 74.6416 187.381 74.3877 187.688 74.207C188.001 74.0215 188.372 73.9287 188.802 73.9287C188.899 73.9287 189.012 73.9409 189.139 73.9653C189.266 73.9849 189.354 74.0068 189.402 74.0312ZM195.269 79.8979C195.269 79.7026 195.225 79.522 195.137 79.356C195.054 79.1851 194.881 79.0312 194.617 78.8945C194.358 78.7529 193.968 78.6309 193.445 78.5283C193.006 78.4355 192.608 78.3257 192.251 78.1987C191.9 78.0718 191.6 77.918 191.351 77.7373C191.106 77.5566 190.918 77.3442 190.787 77.1001C190.655 76.856 190.589 76.5703 190.589 76.2432C190.589 75.9307 190.657 75.6353 190.794 75.3569C190.936 75.0786 191.133 74.832 191.387 74.6172C191.646 74.4023 191.956 74.2339 192.317 74.1118C192.679 73.9897 193.082 73.9287 193.526 73.9287C194.161 73.9287 194.703 74.041 195.152 74.2656C195.601 74.4902 195.945 74.7905 196.185 75.1665C196.424 75.5376 196.543 75.9502 196.543 76.4043H195.188C195.188 76.1846 195.123 75.9722 194.991 75.7671C194.864 75.5571 194.676 75.3838 194.427 75.2471C194.183 75.1104 193.882 75.042 193.526 75.042C193.15 75.042 192.845 75.1006 192.61 75.2178C192.381 75.3301 192.212 75.4741 192.105 75.6499C192.002 75.8257 191.951 76.0112 191.951 76.2065C191.951 76.353 191.976 76.4849 192.024 76.6021C192.078 76.7144 192.171 76.8193 192.303 76.917C192.435 77.0098 192.62 77.0977 192.859 77.1807C193.099 77.2637 193.404 77.3467 193.775 77.4297C194.424 77.5762 194.959 77.752 195.379 77.957C195.799 78.1621 196.111 78.4136 196.316 78.7114C196.521 79.0093 196.624 79.3706 196.624 79.7954C196.624 80.1421 196.551 80.4595 196.404 80.7476C196.263 81.0356 196.055 81.2847 195.782 81.4946C195.513 81.6997 195.191 81.8608 194.815 81.978C194.444 82.0903 194.026 82.1465 193.562 82.1465C192.864 82.1465 192.273 82.022 191.79 81.7729C191.307 81.5239 190.94 81.2017 190.691 80.8062C190.442 80.4106 190.318 79.9932 190.318 79.5537H191.68C191.7 79.9248 191.807 80.2202 192.002 80.4399C192.198 80.6548 192.437 80.8086 192.72 80.9014C193.003 80.9893 193.284 81.0332 193.562 81.0332C193.934 81.0332 194.244 80.9844 194.493 80.8867C194.747 80.7891 194.939 80.6548 195.071 80.4839C195.203 80.313 195.269 80.1177 195.269 79.8979Z" fill="black"/>
<path d="M215.86 50.2422C215.86 49.6953 216.046 49.2363 216.417 48.8652C216.788 48.4844 217.291 48.2939 217.926 48.2939C218.57 48.2939 219.073 48.4844 219.435 48.8652C219.806 49.2363 219.991 49.6953 219.991 50.2422C219.991 50.7891 219.806 51.248 219.435 51.6191C219.073 51.9902 218.57 52.1758 217.926 52.1758C217.291 52.1758 216.788 51.9902 216.417 51.6191C216.046 51.248 215.86 50.7891 215.86 50.2422ZM215.875 37.7617C215.875 37.2148 216.061 36.7559 216.432 36.3848C216.803 36.0039 217.306 35.8135 217.94 35.8135C218.585 35.8135 219.088 36.0039 219.449 36.3848C219.82 36.7559 220.006 37.2148 220.006 37.7617C220.006 38.3086 219.82 38.7676 219.449 39.1387C219.088 39.5098 218.585 39.6953 217.94 39.6953C217.306 39.6953 216.803 39.5098 216.432 39.1387C216.061 38.7676 215.875 38.3086 215.875 37.7617Z" fill="black"/>
<path d="M243.317 42.083L240.505 41.3945L241.662 30.6719H253.161V33.6602H244.592L244.006 38.8896C244.338 38.6943 244.797 38.5039 245.383 38.3184C245.969 38.123 246.638 38.0254 247.39 38.0254C248.396 38.0254 249.294 38.1914 250.085 38.5234C250.886 38.8457 251.564 39.3193 252.121 39.9443C252.678 40.5596 253.103 41.3115 253.396 42.2002C253.688 43.0791 253.835 44.0703 253.835 45.1738C253.835 46.1602 253.688 47.083 253.396 47.9424C253.112 48.8018 252.683 49.5586 252.106 50.2129C251.53 50.8672 250.803 51.3799 249.924 51.751C249.055 52.1123 248.024 52.293 246.833 52.293C245.944 52.293 245.09 52.166 244.27 51.9121C243.459 51.6484 242.731 51.2627 242.087 50.7549C241.442 50.2373 240.925 49.6025 240.534 48.8506C240.144 48.0889 239.919 47.2148 239.86 46.2285H243.317C243.405 46.9219 243.596 47.5127 243.889 48.001C244.191 48.4795 244.592 48.8457 245.09 49.0996C245.588 49.3535 246.164 49.4805 246.818 49.4805C247.414 49.4805 247.927 49.3779 248.356 49.1729C248.786 48.958 249.143 48.6553 249.426 48.2646C249.719 47.8643 249.934 47.3955 250.07 46.8584C250.217 46.3213 250.29 45.7256 250.29 45.0713C250.29 44.4463 250.207 43.875 250.041 43.3574C249.885 42.8398 249.646 42.3906 249.323 42.0098C249.011 41.6289 248.615 41.3359 248.137 41.1309C247.658 40.916 247.106 40.8086 246.481 40.8086C245.642 40.8086 244.997 40.9307 244.548 41.1748C244.108 41.4189 243.698 41.7217 243.317 42.083ZM267.326 30.54H267.766V33.4258H267.517C266.257 33.4258 265.168 33.6211 264.25 34.0117C263.342 34.4023 262.595 34.9395 262.009 35.623C261.423 36.3066 260.983 37.1074 260.69 38.0254C260.407 38.9336 260.266 39.9004 260.266 40.9258V44.2803C260.266 45.1299 260.358 45.8818 260.544 46.5361C260.729 47.1807 260.988 47.7227 261.32 48.1621C261.662 48.5918 262.053 48.9189 262.492 49.1436C262.932 49.3682 263.405 49.4805 263.913 49.4805C264.44 49.4805 264.919 49.373 265.349 49.1582C265.778 48.9336 266.145 48.626 266.447 48.2354C266.75 47.8447 266.979 47.3809 267.136 46.8438C267.292 46.3066 267.37 45.7207 267.37 45.0859C267.37 44.4805 267.292 43.9141 267.136 43.3867C266.989 42.8496 266.77 42.3809 266.477 41.9805C266.184 41.5703 265.817 41.2529 265.378 41.0283C264.948 40.7939 264.45 40.6768 263.884 40.6768C263.181 40.6768 262.541 40.8428 261.965 41.1748C261.398 41.5068 260.939 41.9414 260.588 42.4785C260.246 43.0059 260.061 43.5674 260.031 44.1631L258.684 43.7236C258.762 42.8154 258.962 42 259.284 41.2773C259.616 40.5547 260.051 39.9395 260.588 39.4316C261.125 38.9238 261.745 38.5381 262.448 38.2744C263.161 38.001 263.942 37.8643 264.792 37.8643C265.827 37.8643 266.726 38.0596 267.487 38.4502C268.249 38.8408 268.879 39.373 269.377 40.0469C269.885 40.7109 270.261 41.4727 270.505 42.332C270.759 43.1816 270.886 44.0703 270.886 44.998C270.886 46.0234 270.729 46.9805 270.417 47.8691C270.104 48.748 269.646 49.5195 269.04 50.1836C268.444 50.8477 267.717 51.3652 266.857 51.7363C266.008 52.1074 265.041 52.293 263.957 52.293C262.814 52.293 261.794 52.0732 260.896 51.6338C260.007 51.1943 259.25 50.5889 258.625 49.8174C258.01 49.0459 257.541 48.1572 257.219 47.1514C256.896 46.1455 256.735 45.0811 256.735 43.958V42.4932C256.735 40.8721 256.94 39.3438 257.351 37.9082C257.761 36.4629 258.391 35.1885 259.24 34.085C260.1 32.9814 261.198 32.1172 262.536 31.4922C263.874 30.8574 265.471 30.54 267.326 30.54Z" fill="black"/>
<path d="M240.685 71.3359H242.054L245.548 80.0298L249.034 71.3359H250.411L246.075 82H245.006L240.685 71.3359ZM240.238 71.3359H241.446L241.644 77.8398V82H240.238V71.3359ZM249.642 71.3359H250.851V82H249.444V77.8398L249.642 71.3359ZM254.601 74.0752V82H253.238V74.0752H254.601ZM253.136 71.9731C253.136 71.7534 253.202 71.5679 253.333 71.4165C253.47 71.2651 253.67 71.1895 253.934 71.1895C254.193 71.1895 254.391 71.2651 254.527 71.4165C254.669 71.5679 254.74 71.7534 254.74 71.9731C254.74 72.1831 254.669 72.3638 254.527 72.5151C254.391 72.6616 254.193 72.7349 253.934 72.7349C253.67 72.7349 253.47 72.6616 253.333 72.5151C253.202 72.3638 253.136 72.1831 253.136 71.9731ZM258.131 75.7671V82H256.776V74.0752H258.058L258.131 75.7671ZM257.809 77.7373L257.245 77.7153C257.25 77.1733 257.33 76.6729 257.486 76.2139C257.643 75.75 257.862 75.3472 258.146 75.0054C258.429 74.6636 258.766 74.3999 259.156 74.2144C259.552 74.0239 259.989 73.9287 260.467 73.9287C260.858 73.9287 261.209 73.9824 261.522 74.0898C261.834 74.1924 262.101 74.3584 262.32 74.5879C262.545 74.8174 262.716 75.1152 262.833 75.4814C262.95 75.8428 263.009 76.2847 263.009 76.8071V82H261.646V76.7925C261.646 76.3774 261.585 76.0454 261.463 75.7964C261.341 75.5425 261.163 75.3594 260.929 75.2471C260.694 75.1299 260.406 75.0713 260.064 75.0713C259.728 75.0713 259.42 75.1421 259.142 75.2837C258.868 75.4253 258.631 75.6206 258.431 75.8696C258.236 76.1187 258.082 76.4043 257.97 76.7266C257.862 77.0439 257.809 77.3809 257.809 77.7373ZM269.681 79.8979C269.681 79.7026 269.637 79.522 269.549 79.356C269.466 79.1851 269.293 79.0312 269.029 78.8945C268.771 78.7529 268.38 78.6309 267.857 78.5283C267.418 78.4355 267.02 78.3257 266.664 78.1987C266.312 78.0718 266.012 77.918 265.763 77.7373C265.519 77.5566 265.331 77.3442 265.199 77.1001C265.067 76.856 265.001 76.5703 265.001 76.2432C265.001 75.9307 265.069 75.6353 265.206 75.3569C265.348 75.0786 265.545 74.832 265.799 74.6172C266.058 74.4023 266.368 74.2339 266.729 74.1118C267.091 73.9897 267.494 73.9287 267.938 73.9287C268.573 73.9287 269.115 74.041 269.564 74.2656C270.013 74.4902 270.357 74.7905 270.597 75.1665C270.836 75.5376 270.956 75.9502 270.956 76.4043H269.601C269.601 76.1846 269.535 75.9722 269.403 75.7671C269.276 75.5571 269.088 75.3838 268.839 75.2471C268.595 75.1104 268.294 75.042 267.938 75.042C267.562 75.042 267.257 75.1006 267.022 75.2178C266.793 75.3301 266.625 75.4741 266.517 75.6499C266.415 75.8257 266.363 76.0112 266.363 76.2065C266.363 76.353 266.388 76.4849 266.437 76.6021C266.49 76.7144 266.583 76.8193 266.715 76.917C266.847 77.0098 267.032 77.0977 267.271 77.1807C267.511 77.2637 267.816 77.3467 268.187 77.4297C268.836 77.5762 269.371 77.752 269.791 77.957C270.211 78.1621 270.523 78.4136 270.729 78.7114C270.934 79.0093 271.036 79.3706 271.036 79.7954C271.036 80.1421 270.963 80.4595 270.816 80.7476C270.675 81.0356 270.467 81.2847 270.194 81.4946C269.925 81.6997 269.603 81.8608 269.227 81.978C268.856 82.0903 268.438 82.1465 267.975 82.1465C267.276 82.1465 266.686 82.022 266.202 81.7729C265.719 81.5239 265.353 81.2017 265.104 80.8062C264.854 80.4106 264.73 79.9932 264.73 79.5537H266.092C266.112 79.9248 266.219 80.2202 266.415 80.4399C266.61 80.6548 266.849 80.8086 267.132 80.9014C267.416 80.9893 267.696 81.0332 267.975 81.0332C268.346 81.0332 268.656 80.9844 268.905 80.8867C269.159 80.7891 269.352 80.6548 269.483 80.4839C269.615 80.313 269.681 80.1177 269.681 79.8979Z" fill="black"/>
<path d="M290.86 50.2422C290.86 49.6953 291.046 49.2363 291.417 48.8652C291.788 48.4844 292.291 48.2939 292.926 48.2939C293.57 48.2939 294.073 48.4844 294.435 48.8652C294.806 49.2363 294.991 49.6953 294.991 50.2422C294.991 50.7891 294.806 51.248 294.435 51.6191C294.073 51.9902 293.57 52.1758 292.926 52.1758C292.291 52.1758 291.788 51.9902 291.417 51.6191C291.046 51.248 290.86 50.7891 290.86 50.2422ZM290.875 37.7617C290.875 37.2148 291.061 36.7559 291.432 36.3848C291.803 36.0039 292.306 35.8135 292.94 35.8135C293.585 35.8135 294.088 36.0039 294.449 36.3848C294.82 36.7559 295.006 37.2148 295.006 37.7617C295.006 38.3086 294.82 38.7676 294.449 39.1387C294.088 39.5098 293.585 39.6953 292.94 39.6953C292.306 39.6953 291.803 39.5098 291.432 39.1387C291.061 38.7676 290.875 38.3086 290.875 37.7617Z" fill="black"/>
<path d="M318.757 39.7393H320.866C321.687 39.7393 322.365 39.5977 322.902 39.3145C323.449 39.0312 323.854 38.6406 324.118 38.1426C324.382 37.6445 324.514 37.0732 324.514 36.4287C324.514 35.7549 324.392 35.1787 324.147 34.7002C323.913 34.2119 323.552 33.8359 323.063 33.5723C322.585 33.3086 321.975 33.1768 321.232 33.1768C320.607 33.1768 320.041 33.3037 319.533 33.5576C319.035 33.8018 318.64 34.1533 318.347 34.6123C318.054 35.0615 317.907 35.5986 317.907 36.2236H314.362C314.362 35.0908 314.66 34.085 315.256 33.2061C315.852 32.3271 316.662 31.6387 317.688 31.1406C318.723 30.6328 319.885 30.3789 321.174 30.3789C322.551 30.3789 323.752 30.6084 324.777 31.0674C325.812 31.5166 326.618 32.1904 327.194 33.0889C327.771 33.9873 328.059 35.1006 328.059 36.4287C328.059 37.0342 327.917 37.6494 327.634 38.2744C327.351 38.8994 326.931 39.4707 326.374 39.9883C325.817 40.4961 325.124 40.9111 324.294 41.2334C323.464 41.5459 322.502 41.7021 321.408 41.7021H318.757V39.7393ZM318.757 42.4932V40.5596H321.408C322.658 40.5596 323.723 40.7061 324.602 40.999C325.49 41.292 326.213 41.6973 326.77 42.2148C327.326 42.7227 327.731 43.3037 327.985 43.958C328.249 44.6123 328.381 45.3057 328.381 46.0381C328.381 47.0342 328.2 47.9229 327.839 48.7041C327.487 49.4756 326.984 50.1299 326.33 50.667C325.676 51.2041 324.909 51.6094 324.03 51.8828C323.161 52.1562 322.214 52.293 321.188 52.293C320.271 52.293 319.392 52.166 318.552 51.9121C317.712 51.6582 316.96 51.2822 316.296 50.7842C315.632 50.2764 315.104 49.6465 314.714 48.8945C314.333 48.1328 314.143 47.2539 314.143 46.2578H317.673C317.673 46.8926 317.819 47.4541 318.112 47.9424C318.415 48.4209 318.835 48.7969 319.372 49.0703C319.919 49.3438 320.544 49.4805 321.247 49.4805C321.989 49.4805 322.629 49.3486 323.166 49.085C323.703 48.8213 324.113 48.4307 324.396 47.9131C324.689 47.3955 324.836 46.7705 324.836 46.0381C324.836 45.208 324.675 44.5342 324.353 44.0166C324.03 43.499 323.571 43.1182 322.976 42.874C322.38 42.6201 321.677 42.4932 320.866 42.4932H318.757ZM345.827 30.6719V32.6055L337.302 52H333.581L342.092 33.4844H331.047V30.6719H345.827Z" fill="black"/>
<path d="M320.921 79.3047C320.921 79.0557 320.882 78.8359 320.804 78.6455C320.731 78.4502 320.599 78.2744 320.409 78.1182C320.223 77.9619 319.964 77.813 319.632 77.6714C319.305 77.5298 318.89 77.3857 318.387 77.2393C317.86 77.083 317.384 76.9097 316.959 76.7192C316.534 76.5239 316.17 76.3018 315.868 76.0527C315.565 75.8037 315.333 75.5181 315.172 75.1958C315.011 74.8735 314.93 74.5049 314.93 74.0898C314.93 73.6748 315.016 73.2915 315.187 72.9399C315.357 72.5884 315.602 72.2832 315.919 72.0244C316.241 71.7607 316.625 71.5557 317.069 71.4092C317.513 71.2627 318.009 71.1895 318.556 71.1895C319.356 71.1895 320.035 71.3433 320.592 71.6509C321.153 71.9536 321.581 72.3516 321.874 72.8447C322.167 73.333 322.313 73.8555 322.313 74.4121H320.907C320.907 74.0117 320.821 73.6577 320.65 73.3501C320.479 73.0376 320.221 72.7935 319.874 72.6177C319.527 72.437 319.088 72.3467 318.556 72.3467C318.053 72.3467 317.638 72.4224 317.311 72.5737C316.983 72.7251 316.739 72.9302 316.578 73.189C316.422 73.4478 316.344 73.7432 316.344 74.0752C316.344 74.2998 316.39 74.5049 316.483 74.6904C316.581 74.8711 316.729 75.0396 316.93 75.1958C317.135 75.3521 317.394 75.4961 317.706 75.6279C318.023 75.7598 318.402 75.8867 318.841 76.0088C319.447 76.1797 319.969 76.3701 320.409 76.5801C320.848 76.79 321.209 77.0269 321.493 77.2905C321.781 77.5493 321.993 77.8447 322.13 78.1768C322.271 78.5039 322.342 78.875 322.342 79.29C322.342 79.7246 322.254 80.1177 322.079 80.4692C321.903 80.8208 321.651 81.1211 321.324 81.3701C320.997 81.6191 320.604 81.812 320.145 81.9487C319.691 82.0806 319.183 82.1465 318.622 82.1465C318.128 82.1465 317.643 82.0781 317.164 81.9414C316.69 81.8047 316.258 81.5996 315.868 81.3262C315.482 81.0527 315.172 80.7158 314.938 80.3154C314.708 79.9102 314.593 79.4414 314.593 78.9092H316C316 79.2754 316.07 79.5903 316.212 79.854C316.354 80.1128 316.546 80.3276 316.791 80.4985C317.04 80.6694 317.32 80.7964 317.633 80.8794C317.95 80.9575 318.28 80.9966 318.622 80.9966C319.115 80.9966 319.532 80.9282 319.874 80.7915C320.216 80.6548 320.475 80.4595 320.65 80.2056C320.831 79.9517 320.921 79.6514 320.921 79.3047ZM327.228 82.1465C326.676 82.1465 326.175 82.0537 325.726 81.8682C325.282 81.6777 324.898 81.4116 324.576 81.0698C324.259 80.728 324.015 80.3228 323.844 79.854C323.673 79.3853 323.587 78.8726 323.587 78.3159V78.0083C323.587 77.3638 323.683 76.79 323.873 76.2871C324.063 75.7793 324.322 75.3496 324.649 74.998C324.977 74.6465 325.348 74.3804 325.763 74.1997C326.178 74.019 326.607 73.9287 327.052 73.9287C327.618 73.9287 328.106 74.0264 328.517 74.2217C328.932 74.417 329.271 74.6904 329.535 75.042C329.798 75.3887 329.994 75.7988 330.121 76.2725C330.248 76.7412 330.311 77.2539 330.311 77.8105V78.4185H324.393V77.3125H328.956V77.21C328.937 76.8584 328.863 76.5166 328.736 76.1846C328.614 75.8525 328.419 75.5791 328.15 75.3643C327.882 75.1494 327.516 75.042 327.052 75.042C326.744 75.042 326.461 75.1079 326.202 75.2397C325.943 75.3667 325.721 75.5571 325.536 75.811C325.35 76.0649 325.206 76.375 325.104 76.7412C325.001 77.1074 324.95 77.5298 324.95 78.0083V78.3159C324.95 78.6919 325.001 79.0459 325.104 79.3779C325.211 79.7051 325.365 79.9932 325.565 80.2422C325.77 80.4912 326.017 80.6865 326.305 80.8281C326.598 80.9697 326.93 81.0405 327.301 81.0405C327.779 81.0405 328.185 80.9429 328.517 80.7476C328.849 80.5522 329.139 80.291 329.388 79.9639L330.208 80.6157C330.038 80.8745 329.82 81.1211 329.557 81.3555C329.293 81.5898 328.968 81.7803 328.583 81.9268C328.202 82.0732 327.75 82.1465 327.228 82.1465ZM335.064 81.0332C335.387 81.0332 335.685 80.9673 335.958 80.8354C336.231 80.7036 336.456 80.5229 336.632 80.2935C336.808 80.0591 336.908 79.793 336.932 79.4951H338.221C338.197 79.9639 338.038 80.4009 337.745 80.8062C337.457 81.2065 337.079 81.5312 336.61 81.7803C336.141 82.0244 335.626 82.1465 335.064 82.1465C334.469 82.1465 333.949 82.0415 333.504 81.8315C333.065 81.6216 332.699 81.3335 332.406 80.9673C332.118 80.6011 331.9 80.1812 331.754 79.7075C331.612 79.229 331.542 78.7236 331.542 78.1914V77.8838C331.542 77.3516 331.612 76.8486 331.754 76.375C331.9 75.8965 332.118 75.4741 332.406 75.1079C332.699 74.7417 333.065 74.4536 333.504 74.2437C333.949 74.0337 334.469 73.9287 335.064 73.9287C335.685 73.9287 336.227 74.0557 336.69 74.3096C337.154 74.5586 337.518 74.9004 337.782 75.335C338.05 75.7646 338.197 76.2529 338.221 76.7998H336.932C336.908 76.4727 336.815 76.1772 336.654 75.9136C336.498 75.6499 336.283 75.4399 336.009 75.2837C335.741 75.1226 335.426 75.042 335.064 75.042C334.649 75.042 334.3 75.125 334.017 75.291C333.739 75.4521 333.517 75.6719 333.351 75.9502C333.189 76.2236 333.072 76.5288 332.999 76.8657C332.931 77.1978 332.896 77.5371 332.896 77.8838V78.1914C332.896 78.5381 332.931 78.8799 332.999 79.2168C333.067 79.5537 333.182 79.8589 333.343 80.1323C333.509 80.4058 333.731 80.6255 334.01 80.7915C334.293 80.9526 334.645 81.0332 335.064 81.0332ZM344.359 79.8979C344.359 79.7026 344.315 79.522 344.227 79.356C344.144 79.1851 343.971 79.0312 343.707 78.8945C343.448 78.7529 343.058 78.6309 342.535 78.5283C342.096 78.4355 341.698 78.3257 341.341 78.1987C340.99 78.0718 340.689 77.918 340.44 77.7373C340.196 77.5566 340.008 77.3442 339.876 77.1001C339.745 76.856 339.679 76.5703 339.679 76.2432C339.679 75.9307 339.747 75.6353 339.884 75.3569C340.025 75.0786 340.223 74.832 340.477 74.6172C340.736 74.4023 341.046 74.2339 341.407 74.1118C341.769 73.9897 342.171 73.9287 342.616 73.9287C343.25 73.9287 343.792 74.041 344.242 74.2656C344.691 74.4902 345.035 74.7905 345.274 75.1665C345.514 75.5376 345.633 75.9502 345.633 76.4043H344.278C344.278 76.1846 344.212 75.9722 344.081 75.7671C343.954 75.5571 343.766 75.3838 343.517 75.2471C343.272 75.1104 342.972 75.042 342.616 75.042C342.24 75.042 341.935 75.1006 341.7 75.2178C341.471 75.3301 341.302 75.4741 341.195 75.6499C341.092 75.8257 341.041 76.0112 341.041 76.2065C341.041 76.353 341.065 76.4849 341.114 76.6021C341.168 76.7144 341.261 76.8193 341.393 76.917C341.524 77.0098 341.71 77.0977 341.949 77.1807C342.188 77.2637 342.494 77.3467 342.865 77.4297C343.514 77.5762 344.049 77.752 344.469 77.957C344.889 78.1621 345.201 78.4136 345.406 78.7114C345.611 79.0093 345.714 79.3706 345.714 79.7954C345.714 80.1421 345.641 80.4595 345.494 80.7476C345.353 81.0356 345.145 81.2847 344.872 81.4946C344.603 81.6997 344.281 81.8608 343.905 81.978C343.534 82.0903 343.116 82.1465 342.652 82.1465C341.954 82.1465 341.363 82.022 340.88 81.7729C340.396 81.5239 340.03 81.2017 339.781 80.8062C339.532 80.4106 339.408 79.9932 339.408 79.5537H340.77C340.79 79.9248 340.897 80.2202 341.092 80.4399C341.288 80.6548 341.527 80.8086 341.81 80.9014C342.093 80.9893 342.374 81.0332 342.652 81.0332C343.023 81.0332 343.333 80.9844 343.583 80.8867C343.836 80.7891 344.029 80.6548 344.161 80.4839C344.293 80.313 344.359 80.1177 344.359 79.8979Z" fill="black"/>
</svg>
