<svg width="430" height="110" viewBox="0 0 430 110" fill="none" xmlns="http://www.w3.org/2000/svg">
<path d="M63.0127 43.5488V47.0352C63.0127 48.7051 62.8467 50.1309 62.5146 51.3125C62.1924 52.4844 61.7236 53.4365 61.1084 54.1689C60.4932 54.9014 59.7559 55.4385 58.8965 55.7803C58.0469 56.1221 57.0947 56.293 56.04 56.293C55.2002 56.293 54.4189 56.1855 53.6963 55.9707C52.9834 55.7559 52.3389 55.4189 51.7627 54.96C51.1865 54.501 50.6934 53.9102 50.2832 53.1875C49.8828 52.4551 49.5703 51.5811 49.3457 50.5654C49.1309 49.5498 49.0234 48.373 49.0234 47.0352V43.5488C49.0234 41.8691 49.1895 40.4531 49.5215 39.3008C49.8535 38.1387 50.3271 37.1963 50.9424 36.4736C51.5576 35.7412 52.29 35.209 53.1396 34.877C53.999 34.5449 54.9561 34.3789 56.0107 34.3789C56.8604 34.3789 57.6416 34.4863 58.3545 34.7012C59.0771 34.9062 59.7217 35.2334 60.2881 35.6826C60.8643 36.1318 61.3525 36.7178 61.7529 37.4404C62.1631 38.1533 62.4756 39.0176 62.6904 40.0332C62.9053 41.0391 63.0127 42.2109 63.0127 43.5488ZM59.4824 47.5332V43.0215C59.4824 42.1719 59.4336 41.4248 59.3359 40.7803C59.2383 40.126 59.0918 39.5742 58.8965 39.125C58.7109 38.666 58.4766 38.2949 58.1934 38.0117C57.9102 37.7188 57.5879 37.5088 57.2266 37.3818C56.8652 37.2451 56.46 37.1768 56.0107 37.1768C55.4639 37.1768 54.9756 37.2842 54.5459 37.499C54.1162 37.7041 53.7549 38.0361 53.4619 38.4951C53.1689 38.9541 52.9443 39.5596 52.7881 40.3115C52.6416 41.0537 52.5684 41.957 52.5684 43.0215V47.5332C52.5684 48.3926 52.6172 49.1494 52.7148 49.8037C52.8125 50.458 52.959 51.0195 53.1543 51.4883C53.3496 51.9473 53.584 52.3281 53.8574 52.6309C54.1406 52.9238 54.4629 53.1387 54.8242 53.2754C55.1953 53.4121 55.6006 53.4805 56.04 53.4805C56.5967 53.4805 57.0898 53.373 57.5195 53.1582C57.9492 52.9434 58.3105 52.6016 58.6035 52.1328C58.8965 51.6543 59.1162 51.0342 59.2627 50.2725C59.4092 49.5107 59.4824 48.5977 59.4824 47.5332ZM80.8545 48.3975V51.21H65.4736L65.3564 49.0859L74.5557 34.6719H77.3828L74.3213 39.916L69.0332 48.3975H80.8545ZM78.1885 34.6719V56H74.6582V34.6719H78.1885Z" fill="black"/>
<path d="M53.3457 79H51.5234L51.5352 77.834H53.3457C53.873 77.834 54.3145 77.7188 54.6699 77.4883C55.0293 77.2578 55.2988 76.9277 55.4785 76.498C55.6621 76.0684 55.7539 75.5566 55.7539 74.9629V74.5C55.7539 74.0391 55.7012 73.6309 55.5957 73.2754C55.4941 72.9199 55.3418 72.6211 55.1387 72.3789C54.9395 72.1367 54.6934 71.9531 54.4004 71.8281C54.1113 71.7031 53.7773 71.6406 53.3984 71.6406H51.4883V70.4688H53.3984C53.9648 70.4688 54.4824 70.5645 54.9512 70.7559C55.4199 70.9434 55.8242 71.2148 56.1641 71.5703C56.5078 71.9258 56.7715 72.3516 56.9551 72.8477C57.1387 73.3438 57.2305 73.8984 57.2305 74.5117V74.9629C57.2305 75.5762 57.1387 76.1309 56.9551 76.627C56.7715 77.123 56.5078 77.5488 56.1641 77.9043C55.8203 78.2559 55.4102 78.5273 54.9336 78.7188C54.4609 78.9062 53.9316 79 53.3457 79ZM52.3379 70.4688V79H50.8672V70.4688H52.3379ZM61.9004 71.6055L59.3516 79H57.8105L61.0215 70.4688H62.0059L61.9004 71.6055ZM64.0332 79L61.4785 71.6055L61.3672 70.4688H62.3574L65.5801 79H64.0332ZM63.9102 75.8359V77.002H59.2695V75.8359H63.9102ZM66.6816 70.4688L68.6621 74.541L70.6426 70.4688H72.2715L69.4004 75.8594V79H67.918V75.8594L65.0469 70.4688H66.6816ZM77.5977 76.8027C77.5977 76.627 77.5703 76.4707 77.5156 76.334C77.4648 76.1973 77.373 76.0723 77.2402 75.959C77.1074 75.8457 76.9199 75.7363 76.6777 75.6309C76.4395 75.5215 76.1348 75.4102 75.7637 75.2969C75.3574 75.1719 74.9824 75.0332 74.6387 74.8809C74.2988 74.7246 74.002 74.5449 73.748 74.3418C73.4941 74.1348 73.2969 73.8984 73.1562 73.6328C73.0156 73.3633 72.9453 73.0527 72.9453 72.7012C72.9453 72.3535 73.0176 72.0371 73.1621 71.752C73.3105 71.4668 73.5195 71.2207 73.7891 71.0137C74.0625 70.8027 74.3848 70.6406 74.7559 70.5273C75.127 70.4102 75.5371 70.3516 75.9863 70.3516C76.6191 70.3516 77.1641 70.4688 77.6211 70.7031C78.082 70.9375 78.4355 71.252 78.6816 71.6465C78.9316 72.041 79.0566 72.4766 79.0566 72.9531H77.5977C77.5977 72.6719 77.5371 72.4238 77.416 72.209C77.2988 71.9902 77.1191 71.8184 76.877 71.6934C76.6387 71.5684 76.3359 71.5059 75.9688 71.5059C75.6211 71.5059 75.332 71.5586 75.1016 71.6641C74.8711 71.7695 74.6992 71.9121 74.5859 72.0918C74.4727 72.2715 74.416 72.4746 74.416 72.7012C74.416 72.8613 74.4531 73.0078 74.5273 73.1406C74.6016 73.2695 74.7148 73.3906 74.8672 73.5039C75.0195 73.6133 75.2109 73.7168 75.4414 73.8145C75.6719 73.9121 75.9434 74.0059 76.2559 74.0957C76.7285 74.2363 77.1406 74.3926 77.4922 74.5645C77.8438 74.7324 78.1367 74.9238 78.3711 75.1387C78.6055 75.3535 78.7812 75.5977 78.8984 75.8711C79.0156 76.1406 79.0742 76.4473 79.0742 76.791C79.0742 77.1504 79.002 77.4746 78.8574 77.7637C78.7129 78.0488 78.5059 78.293 78.2363 78.4961C77.9707 78.6953 77.6504 78.8496 77.2754 78.959C76.9043 79.0645 76.4902 79.1172 76.0332 79.1172C75.623 79.1172 75.2188 79.0625 74.8203 78.9531C74.4258 78.8438 74.0664 78.6777 73.7422 78.4551C73.418 78.2285 73.1602 77.9473 72.9688 77.6113C72.7773 77.2715 72.6816 76.875 72.6816 76.4219H74.1523C74.1523 76.6992 74.1992 76.9355 74.293 77.1309C74.3906 77.3262 74.5254 77.4863 74.6973 77.6113C74.8691 77.7324 75.0684 77.8223 75.2949 77.8809C75.5254 77.9395 75.7715 77.9688 76.0332 77.9688C76.377 77.9688 76.6641 77.9199 76.8945 77.8223C77.1289 77.7246 77.3047 77.5879 77.4219 77.4121C77.5391 77.2363 77.5977 77.0332 77.5977 76.8027Z" fill="black"/>
<rect x="24" y="14" width="82" height="82" rx="41" stroke="#41495B" stroke-width="2"/>
<path d="M163.408 53.1875V56H149.111V53.583L156.055 46.0098C156.816 45.1504 157.417 44.4082 157.856 43.7832C158.296 43.1582 158.604 42.5967 158.779 42.0986C158.965 41.5908 159.058 41.0977 159.058 40.6191C159.058 39.9453 158.931 39.3545 158.677 38.8467C158.433 38.3291 158.071 37.9238 157.593 37.6309C157.114 37.3281 156.533 37.1768 155.85 37.1768C155.059 37.1768 154.395 37.3477 153.857 37.6895C153.32 38.0312 152.915 38.5049 152.642 39.1104C152.368 39.7061 152.231 40.3896 152.231 41.1611H148.701C148.701 39.9209 148.984 38.7881 149.551 37.7627C150.117 36.7275 150.938 35.9072 152.012 35.3018C153.086 34.6865 154.38 34.3789 155.894 34.3789C157.319 34.3789 158.53 34.6182 159.526 35.0967C160.522 35.5752 161.279 36.2539 161.797 37.1328C162.324 38.0117 162.588 39.0518 162.588 40.2529C162.588 40.917 162.48 41.5762 162.266 42.2305C162.051 42.8848 161.743 43.5391 161.343 44.1934C160.952 44.8379 160.488 45.4873 159.951 46.1416C159.414 46.7861 158.823 47.4404 158.179 48.1045L153.564 53.1875H163.408ZM170.308 43.7393H172.417C173.237 43.7393 173.916 43.5977 174.453 43.3145C175 43.0312 175.405 42.6406 175.669 42.1426C175.933 41.6445 176.064 41.0732 176.064 40.4287C176.064 39.7549 175.942 39.1787 175.698 38.7002C175.464 38.2119 175.103 37.8359 174.614 37.5723C174.136 37.3086 173.525 37.1768 172.783 37.1768C172.158 37.1768 171.592 37.3037 171.084 37.5576C170.586 37.8018 170.19 38.1533 169.897 38.6123C169.604 39.0615 169.458 39.5986 169.458 40.2236H165.913C165.913 39.0908 166.211 38.085 166.807 37.2061C167.402 36.3271 168.213 35.6387 169.238 35.1406C170.273 34.6328 171.436 34.3789 172.725 34.3789C174.102 34.3789 175.303 34.6084 176.328 35.0674C177.363 35.5166 178.169 36.1904 178.745 37.0889C179.321 37.9873 179.609 39.1006 179.609 40.4287C179.609 41.0342 179.468 41.6494 179.185 42.2744C178.901 42.8994 178.481 43.4707 177.925 43.9883C177.368 44.4961 176.675 44.9111 175.845 45.2334C175.015 45.5459 174.053 45.7021 172.959 45.7021H170.308V43.7393ZM170.308 46.4932V44.5596H172.959C174.209 44.5596 175.273 44.7061 176.152 44.999C177.041 45.292 177.764 45.6973 178.32 46.2148C178.877 46.7227 179.282 47.3037 179.536 47.958C179.8 48.6123 179.932 49.3057 179.932 50.0381C179.932 51.0342 179.751 51.9229 179.39 52.7041C179.038 53.4756 178.535 54.1299 177.881 54.667C177.227 55.2041 176.46 55.6094 175.581 55.8828C174.712 56.1562 173.765 56.293 172.739 56.293C171.821 56.293 170.942 56.166 170.103 55.9121C169.263 55.6582 168.511 55.2822 167.847 54.7842C167.183 54.2764 166.655 53.6465 166.265 52.8945C165.884 52.1328 165.693 51.2539 165.693 50.2578H169.224C169.224 50.8926 169.37 51.4541 169.663 51.9424C169.966 52.4209 170.386 52.7969 170.923 53.0703C171.47 53.3438 172.095 53.4805 172.798 53.4805C173.54 53.4805 174.18 53.3486 174.717 53.085C175.254 52.8213 175.664 52.4307 175.947 51.9131C176.24 51.3955 176.387 50.7705 176.387 50.0381C176.387 49.208 176.226 48.5342 175.903 48.0166C175.581 47.499 175.122 47.1182 174.526 46.874C173.931 46.6201 173.228 46.4932 172.417 46.4932H170.308Z" fill="black"/>
<path d="M151.504 74.0312V75.1973H146.975V74.0312H151.504ZM147.338 70.4688V79H145.867V70.4688H147.338ZM152.635 70.4688V79H151.17V70.4688H152.635ZM161.189 74.5V74.9688C161.189 75.6133 161.105 76.1914 160.938 76.7031C160.77 77.2148 160.529 77.6504 160.217 78.0098C159.908 78.3691 159.537 78.6445 159.104 78.8359C158.67 79.0234 158.189 79.1172 157.662 79.1172C157.139 79.1172 156.66 79.0234 156.227 78.8359C155.797 78.6445 155.424 78.3691 155.107 78.0098C154.791 77.6504 154.545 77.2148 154.369 76.7031C154.197 76.1914 154.111 75.6133 154.111 74.9688V74.5C154.111 73.8555 154.197 73.2793 154.369 72.7715C154.541 72.2598 154.783 71.8242 155.096 71.4648C155.412 71.1016 155.785 70.8262 156.215 70.6387C156.648 70.4473 157.127 70.3516 157.65 70.3516C158.178 70.3516 158.658 70.4473 159.092 70.6387C159.525 70.8262 159.898 71.1016 160.211 71.4648C160.523 71.8242 160.764 72.2598 160.932 72.7715C161.104 73.2793 161.189 73.8555 161.189 74.5ZM159.719 74.9688V74.4883C159.719 74.0117 159.672 73.5918 159.578 73.2285C159.488 72.8613 159.354 72.5547 159.174 72.3086C158.998 72.0586 158.781 71.8711 158.523 71.7461C158.266 71.6172 157.975 71.5527 157.65 71.5527C157.326 71.5527 157.037 71.6172 156.783 71.7461C156.529 71.8711 156.312 72.0586 156.133 72.3086C155.957 72.5547 155.822 72.8613 155.729 73.2285C155.635 73.5918 155.588 74.0117 155.588 74.4883V74.9688C155.588 75.4453 155.635 75.8672 155.729 76.2344C155.822 76.6016 155.959 76.9121 156.139 77.166C156.322 77.416 156.541 77.6055 156.795 77.7344C157.049 77.8594 157.338 77.9219 157.662 77.9219C157.99 77.9219 158.281 77.8594 158.535 77.7344C158.789 77.6055 159.004 77.416 159.18 77.166C159.355 76.9121 159.488 76.6016 159.578 76.2344C159.672 75.8672 159.719 75.4453 159.719 74.9688ZM167.447 70.4688H168.912V76.1699C168.912 76.8184 168.771 77.3613 168.49 77.7988C168.209 78.2363 167.826 78.5664 167.342 78.7891C166.861 79.0078 166.324 79.1172 165.73 79.1172C165.117 79.1172 164.57 79.0078 164.09 78.7891C163.609 78.5664 163.23 78.2363 162.953 77.7988C162.68 77.3613 162.543 76.8184 162.543 76.1699V70.4688H164.008V76.1699C164.008 76.5801 164.078 76.918 164.219 77.1836C164.359 77.4453 164.559 77.6387 164.816 77.7637C165.074 77.8887 165.379 77.9512 165.73 77.9512C166.082 77.9512 166.385 77.8887 166.639 77.7637C166.896 77.6387 167.096 77.4453 167.236 77.1836C167.377 76.918 167.447 76.5801 167.447 76.1699V70.4688ZM170.512 70.4688H173.529C174.178 70.4688 174.73 70.5664 175.188 70.7617C175.645 70.957 175.994 71.2461 176.236 71.6289C176.482 72.0078 176.605 72.4766 176.605 73.0352C176.605 73.4609 176.527 73.8359 176.371 74.1602C176.215 74.4844 175.994 74.7578 175.709 74.9805C175.424 75.1992 175.084 75.3691 174.689 75.4902L174.244 75.707H171.531L171.52 74.541H173.553C173.904 74.541 174.197 74.4785 174.432 74.3535C174.666 74.2285 174.842 74.0586 174.959 73.8438C175.08 73.625 175.141 73.3789 175.141 73.1055C175.141 72.8086 175.082 72.5508 174.965 72.332C174.852 72.1094 174.676 71.9395 174.438 71.8223C174.199 71.7012 173.896 71.6406 173.529 71.6406H171.982V79H170.512V70.4688ZM175.381 79L173.377 75.168L174.918 75.1621L176.951 78.9238V79H175.381ZM182.559 76.8027C182.559 76.627 182.531 76.4707 182.477 76.334C182.426 76.1973 182.334 76.0723 182.201 75.959C182.068 75.8457 181.881 75.7363 181.639 75.6309C181.4 75.5215 181.096 75.4102 180.725 75.2969C180.318 75.1719 179.943 75.0332 179.6 74.8809C179.26 74.7246 178.963 74.5449 178.709 74.3418C178.455 74.1348 178.258 73.8984 178.117 73.6328C177.977 73.3633 177.906 73.0527 177.906 72.7012C177.906 72.3535 177.979 72.0371 178.123 71.752C178.271 71.4668 178.48 71.2207 178.75 71.0137C179.023 70.8027 179.346 70.6406 179.717 70.5273C180.088 70.4102 180.498 70.3516 180.947 70.3516C181.58 70.3516 182.125 70.4688 182.582 70.7031C183.043 70.9375 183.396 71.252 183.643 71.6465C183.893 72.041 184.018 72.4766 184.018 72.9531H182.559C182.559 72.6719 182.498 72.4238 182.377 72.209C182.26 71.9902 182.08 71.8184 181.838 71.6934C181.6 71.5684 181.297 71.5059 180.93 71.5059C180.582 71.5059 180.293 71.5586 180.062 71.6641C179.832 71.7695 179.66 71.9121 179.547 72.0918C179.434 72.2715 179.377 72.4746 179.377 72.7012C179.377 72.8613 179.414 73.0078 179.488 73.1406C179.562 73.2695 179.676 73.3906 179.828 73.5039C179.98 73.6133 180.172 73.7168 180.402 73.8145C180.633 73.9121 180.904 74.0059 181.217 74.0957C181.689 74.2363 182.102 74.3926 182.453 74.5645C182.805 74.7324 183.098 74.9238 183.332 75.1387C183.566 75.3535 183.742 75.5977 183.859 75.8711C183.977 76.1406 184.035 76.4473 184.035 76.791C184.035 77.1504 183.963 77.4746 183.818 77.7637C183.674 78.0488 183.467 78.293 183.197 78.4961C182.932 78.6953 182.611 78.8496 182.236 78.959C181.865 79.0645 181.451 79.1172 180.994 79.1172C180.584 79.1172 180.18 79.0625 179.781 78.9531C179.387 78.8438 179.027 78.6777 178.703 78.4551C178.379 78.2285 178.121 77.9473 177.93 77.6113C177.738 77.2715 177.643 76.875 177.643 76.4219H179.113C179.113 76.6992 179.16 76.9355 179.254 77.1309C179.352 77.3262 179.486 77.4863 179.658 77.6113C179.83 77.7324 180.029 77.8223 180.256 77.8809C180.486 77.9395 180.732 77.9688 180.994 77.9688C181.338 77.9688 181.625 77.9199 181.855 77.8223C182.09 77.7246 182.266 77.5879 182.383 77.4121C182.5 77.2363 182.559 77.0332 182.559 76.8027Z" fill="black"/>
<rect x="124" y="14" width="82" height="82" rx="41" stroke="#41495B" stroke-width="2"/>
<path d="M252.817 46.083L250.005 45.3945L251.162 34.6719H262.661V37.6602H254.092L253.506 42.8896C253.838 42.6943 254.297 42.5039 254.883 42.3184C255.469 42.123 256.138 42.0254 256.89 42.0254C257.896 42.0254 258.794 42.1914 259.585 42.5234C260.386 42.8457 261.064 43.3193 261.621 43.9443C262.178 44.5596 262.603 45.3115 262.896 46.2002C263.188 47.0791 263.335 48.0703 263.335 49.1738C263.335 50.1602 263.188 51.083 262.896 51.9424C262.612 52.8018 262.183 53.5586 261.606 54.2129C261.03 54.8672 260.303 55.3799 259.424 55.751C258.555 56.1123 257.524 56.293 256.333 56.293C255.444 56.293 254.59 56.166 253.77 55.9121C252.959 55.6484 252.231 55.2627 251.587 54.7549C250.942 54.2373 250.425 53.6025 250.034 52.8506C249.644 52.0889 249.419 51.2148 249.36 50.2285H252.817C252.905 50.9219 253.096 51.5127 253.389 52.001C253.691 52.4795 254.092 52.8457 254.59 53.0996C255.088 53.3535 255.664 53.4805 256.318 53.4805C256.914 53.4805 257.427 53.3779 257.856 53.1729C258.286 52.958 258.643 52.6553 258.926 52.2646C259.219 51.8643 259.434 51.3955 259.57 50.8584C259.717 50.3213 259.79 49.7256 259.79 49.0713C259.79 48.4463 259.707 47.875 259.541 47.3574C259.385 46.8398 259.146 46.3906 258.823 46.0098C258.511 45.6289 258.115 45.3359 257.637 45.1309C257.158 44.916 256.606 44.8086 255.981 44.8086C255.142 44.8086 254.497 44.9307 254.048 45.1748C253.608 45.4189 253.198 45.7217 252.817 46.083ZM276.826 34.54H277.266V37.4258H277.017C275.757 37.4258 274.668 37.6211 273.75 38.0117C272.842 38.4023 272.095 38.9395 271.509 39.623C270.923 40.3066 270.483 41.1074 270.19 42.0254C269.907 42.9336 269.766 43.9004 269.766 44.9258V48.2803C269.766 49.1299 269.858 49.8818 270.044 50.5361C270.229 51.1807 270.488 51.7227 270.82 52.1621C271.162 52.5918 271.553 52.9189 271.992 53.1436C272.432 53.3682 272.905 53.4805 273.413 53.4805C273.94 53.4805 274.419 53.373 274.849 53.1582C275.278 52.9336 275.645 52.626 275.947 52.2354C276.25 51.8447 276.479 51.3809 276.636 50.8438C276.792 50.3066 276.87 49.7207 276.87 49.0859C276.87 48.4805 276.792 47.9141 276.636 47.3867C276.489 46.8496 276.27 46.3809 275.977 45.9805C275.684 45.5703 275.317 45.2529 274.878 45.0283C274.448 44.7939 273.95 44.6768 273.384 44.6768C272.681 44.6768 272.041 44.8428 271.465 45.1748C270.898 45.5068 270.439 45.9414 270.088 46.4785C269.746 47.0059 269.561 47.5674 269.531 48.1631L268.184 47.7236C268.262 46.8154 268.462 46 268.784 45.2773C269.116 44.5547 269.551 43.9395 270.088 43.4316C270.625 42.9238 271.245 42.5381 271.948 42.2744C272.661 42.001 273.442 41.8643 274.292 41.8643C275.327 41.8643 276.226 42.0596 276.987 42.4502C277.749 42.8408 278.379 43.373 278.877 44.0469C279.385 44.7109 279.761 45.4727 280.005 46.332C280.259 47.1816 280.386 48.0703 280.386 48.998C280.386 50.0234 280.229 50.9805 279.917 51.8691C279.604 52.748 279.146 53.5195 278.54 54.1836C277.944 54.8477 277.217 55.3652 276.357 55.7363C275.508 56.1074 274.541 56.293 273.457 56.293C272.314 56.293 271.294 56.0732 270.396 55.6338C269.507 55.1943 268.75 54.5889 268.125 53.8174C267.51 53.0459 267.041 52.1572 266.719 51.1514C266.396 50.1455 266.235 49.0811 266.235 47.958V46.4932C266.235 44.8721 266.44 43.3438 266.851 41.9082C267.261 40.4629 267.891 39.1885 268.74 38.085C269.6 36.9814 270.698 36.1172 272.036 35.4922C273.374 34.8574 274.971 34.54 276.826 34.54Z" fill="black"/>
<path d="M251.465 70.4688H252.777L255.244 77.0488L257.705 70.4688H259.018L255.76 79H254.717L251.465 70.4688ZM250.867 70.4688H252.115L252.332 76.1641V79H250.867V70.4688ZM258.367 70.4688H259.621V79H258.15V76.1641L258.367 70.4688ZM262.938 70.4688V79H261.467V70.4688H262.938ZM271.533 70.4688V79H270.062L266.236 72.8887V79H264.766V70.4688H266.236L270.074 76.5918V70.4688H271.533ZM277.773 76.8027C277.773 76.627 277.746 76.4707 277.691 76.334C277.641 76.1973 277.549 76.0723 277.416 75.959C277.283 75.8457 277.096 75.7363 276.854 75.6309C276.615 75.5215 276.311 75.4102 275.939 75.2969C275.533 75.1719 275.158 75.0332 274.814 74.8809C274.475 74.7246 274.178 74.5449 273.924 74.3418C273.67 74.1348 273.473 73.8984 273.332 73.6328C273.191 73.3633 273.121 73.0527 273.121 72.7012C273.121 72.3535 273.193 72.0371 273.338 71.752C273.486 71.4668 273.695 71.2207 273.965 71.0137C274.238 70.8027 274.561 70.6406 274.932 70.5273C275.303 70.4102 275.713 70.3516 276.162 70.3516C276.795 70.3516 277.34 70.4688 277.797 70.7031C278.258 70.9375 278.611 71.252 278.857 71.6465C279.107 72.041 279.232 72.4766 279.232 72.9531H277.773C277.773 72.6719 277.713 72.4238 277.592 72.209C277.475 71.9902 277.295 71.8184 277.053 71.6934C276.814 71.5684 276.512 71.5059 276.145 71.5059C275.797 71.5059 275.508 71.5586 275.277 71.6641C275.047 71.7695 274.875 71.9121 274.762 72.0918C274.648 72.2715 274.592 72.4746 274.592 72.7012C274.592 72.8613 274.629 73.0078 274.703 73.1406C274.777 73.2695 274.891 73.3906 275.043 73.5039C275.195 73.6133 275.387 73.7168 275.617 73.8145C275.848 73.9121 276.119 74.0059 276.432 74.0957C276.904 74.2363 277.316 74.3926 277.668 74.5645C278.02 74.7324 278.312 74.9238 278.547 75.1387C278.781 75.3535 278.957 75.5977 279.074 75.8711C279.191 76.1406 279.25 76.4473 279.25 76.791C279.25 77.1504 279.178 77.4746 279.033 77.7637C278.889 78.0488 278.682 78.293 278.412 78.4961C278.146 78.6953 277.826 78.8496 277.451 78.959C277.08 79.0645 276.666 79.1172 276.209 79.1172C275.799 79.1172 275.395 79.0625 274.996 78.9531C274.602 78.8438 274.242 78.6777 273.918 78.4551C273.594 78.2285 273.336 77.9473 273.145 77.6113C272.953 77.2715 272.857 76.875 272.857 76.4219H274.328C274.328 76.6992 274.375 76.9355 274.469 77.1309C274.566 77.3262 274.701 77.4863 274.873 77.6113C275.045 77.7324 275.244 77.8223 275.471 77.8809C275.701 77.9395 275.947 77.9688 276.209 77.9688C276.553 77.9688 276.84 77.9199 277.07 77.8223C277.305 77.7246 277.48 77.5879 277.598 77.4121C277.715 77.2363 277.773 77.0332 277.773 76.8027Z" fill="black"/>
<rect x="224" y="14" width="82" height="82" rx="41" stroke="#41495B" stroke-width="2"/>
<path d="M353.257 43.7393H355.366C356.187 43.7393 356.865 43.5977 357.402 43.3145C357.949 43.0312 358.354 42.6406 358.618 42.1426C358.882 41.6445 359.014 41.0732 359.014 40.4287C359.014 39.7549 358.892 39.1787 358.647 38.7002C358.413 38.2119 358.052 37.8359 357.563 37.5723C357.085 37.3086 356.475 37.1768 355.732 37.1768C355.107 37.1768 354.541 37.3037 354.033 37.5576C353.535 37.8018 353.14 38.1533 352.847 38.6123C352.554 39.0615 352.407 39.5986 352.407 40.2236H348.862C348.862 39.0908 349.16 38.085 349.756 37.2061C350.352 36.3271 351.162 35.6387 352.188 35.1406C353.223 34.6328 354.385 34.3789 355.674 34.3789C357.051 34.3789 358.252 34.6084 359.277 35.0674C360.312 35.5166 361.118 36.1904 361.694 37.0889C362.271 37.9873 362.559 39.1006 362.559 40.4287C362.559 41.0342 362.417 41.6494 362.134 42.2744C361.851 42.8994 361.431 43.4707 360.874 43.9883C360.317 44.4961 359.624 44.9111 358.794 45.2334C357.964 45.5459 357.002 45.7021 355.908 45.7021H353.257V43.7393ZM353.257 46.4932V44.5596H355.908C357.158 44.5596 358.223 44.7061 359.102 44.999C359.99 45.292 360.713 45.6973 361.27 46.2148C361.826 46.7227 362.231 47.3037 362.485 47.958C362.749 48.6123 362.881 49.3057 362.881 50.0381C362.881 51.0342 362.7 51.9229 362.339 52.7041C361.987 53.4756 361.484 54.1299 360.83 54.667C360.176 55.2041 359.409 55.6094 358.53 55.8828C357.661 56.1562 356.714 56.293 355.688 56.293C354.771 56.293 353.892 56.166 353.052 55.9121C352.212 55.6582 351.46 55.2822 350.796 54.7842C350.132 54.2764 349.604 53.6465 349.214 52.8945C348.833 52.1328 348.643 51.2539 348.643 50.2578H352.173C352.173 50.8926 352.319 51.4541 352.612 51.9424C352.915 52.4209 353.335 52.7969 353.872 53.0703C354.419 53.3438 355.044 53.4805 355.747 53.4805C356.489 53.4805 357.129 53.3486 357.666 53.085C358.203 52.8213 358.613 52.4307 358.896 51.9131C359.189 51.3955 359.336 50.7705 359.336 50.0381C359.336 49.208 359.175 48.5342 358.853 48.0166C358.53 47.499 358.071 47.1182 357.476 46.874C356.88 46.6201 356.177 46.4932 355.366 46.4932H353.257ZM380.327 34.6719V36.6055L371.802 56H368.081L376.592 37.4844H365.547V34.6719H380.327Z" fill="black"/>
<path d="M355.355 76.8027C355.355 76.627 355.328 76.4707 355.273 76.334C355.223 76.1973 355.131 76.0723 354.998 75.959C354.865 75.8457 354.678 75.7363 354.436 75.6309C354.197 75.5215 353.893 75.4102 353.521 75.2969C353.115 75.1719 352.74 75.0332 352.396 74.8809C352.057 74.7246 351.76 74.5449 351.506 74.3418C351.252 74.1348 351.055 73.8984 350.914 73.6328C350.773 73.3633 350.703 73.0527 350.703 72.7012C350.703 72.3535 350.775 72.0371 350.92 71.752C351.068 71.4668 351.277 71.2207 351.547 71.0137C351.82 70.8027 352.143 70.6406 352.514 70.5273C352.885 70.4102 353.295 70.3516 353.744 70.3516C354.377 70.3516 354.922 70.4688 355.379 70.7031C355.84 70.9375 356.193 71.252 356.439 71.6465C356.689 72.041 356.814 72.4766 356.814 72.9531H355.355C355.355 72.6719 355.295 72.4238 355.174 72.209C355.057 71.9902 354.877 71.8184 354.635 71.6934C354.396 71.5684 354.094 71.5059 353.727 71.5059C353.379 71.5059 353.09 71.5586 352.859 71.6641C352.629 71.7695 352.457 71.9121 352.344 72.0918C352.23 72.2715 352.174 72.4746 352.174 72.7012C352.174 72.8613 352.211 73.0078 352.285 73.1406C352.359 73.2695 352.473 73.3906 352.625 73.5039C352.777 73.6133 352.969 73.7168 353.199 73.8145C353.43 73.9121 353.701 74.0059 354.014 74.0957C354.486 74.2363 354.898 74.3926 355.25 74.5645C355.602 74.7324 355.895 74.9238 356.129 75.1387C356.363 75.3535 356.539 75.5977 356.656 75.8711C356.773 76.1406 356.832 76.4473 356.832 76.791C356.832 77.1504 356.76 77.4746 356.615 77.7637C356.471 78.0488 356.264 78.293 355.994 78.4961C355.729 78.6953 355.408 78.8496 355.033 78.959C354.662 79.0645 354.248 79.1172 353.791 79.1172C353.381 79.1172 352.977 79.0625 352.578 78.9531C352.184 78.8438 351.824 78.6777 351.5 78.4551C351.176 78.2285 350.918 77.9473 350.727 77.6113C350.535 77.2715 350.439 76.875 350.439 76.4219H351.91C351.91 76.6992 351.957 76.9355 352.051 77.1309C352.148 77.3262 352.283 77.4863 352.455 77.6113C352.627 77.7324 352.826 77.8223 353.053 77.8809C353.283 77.9395 353.529 77.9688 353.791 77.9688C354.135 77.9688 354.422 77.9199 354.652 77.8223C354.887 77.7246 355.062 77.5879 355.18 77.4121C355.297 77.2363 355.355 77.0332 355.355 76.8027ZM363.717 77.834V79H359.188V77.834H363.717ZM359.604 70.4688V79H358.133V70.4688H359.604ZM363.125 74.0312V75.1797H359.188V74.0312H363.125ZM363.688 70.4688V71.6406H359.188V70.4688H363.688ZM369.957 76.2227H371.422C371.375 76.7812 371.219 77.2793 370.953 77.7168C370.688 78.1504 370.314 78.4922 369.834 78.7422C369.354 78.9922 368.77 79.1172 368.082 79.1172C367.555 79.1172 367.08 79.0234 366.658 78.8359C366.236 78.6445 365.875 78.375 365.574 78.0273C365.273 77.6758 365.043 77.252 364.883 76.7559C364.727 76.2598 364.648 75.7051 364.648 75.0918V74.3828C364.648 73.7695 364.729 73.2148 364.889 72.7188C365.053 72.2227 365.287 71.7988 365.592 71.4473C365.896 71.0918 366.262 70.8203 366.688 70.6328C367.117 70.4453 367.6 70.3516 368.135 70.3516C368.814 70.3516 369.389 70.4766 369.857 70.7266C370.326 70.9766 370.689 71.3223 370.947 71.7637C371.209 72.2051 371.369 72.7109 371.428 73.2812H369.963C369.924 72.9141 369.838 72.5996 369.705 72.3379C369.576 72.0762 369.385 71.877 369.131 71.7402C368.877 71.5996 368.545 71.5293 368.135 71.5293C367.799 71.5293 367.506 71.5918 367.256 71.7168C367.006 71.8418 366.797 72.0254 366.629 72.2676C366.461 72.5098 366.334 72.8086 366.248 73.1641C366.166 73.5156 366.125 73.918 366.125 74.3711V75.0918C366.125 75.5215 366.162 75.9121 366.236 76.2637C366.314 76.6113 366.432 76.9102 366.588 77.1602C366.748 77.4102 366.951 77.6035 367.197 77.7402C367.443 77.877 367.738 77.9453 368.082 77.9453C368.5 77.9453 368.838 77.8789 369.096 77.7461C369.357 77.6133 369.555 77.4199 369.688 77.166C369.824 76.9082 369.914 76.5938 369.957 76.2227ZM377.246 76.8027C377.246 76.627 377.219 76.4707 377.164 76.334C377.113 76.1973 377.021 76.0723 376.889 75.959C376.756 75.8457 376.568 75.7363 376.326 75.6309C376.088 75.5215 375.783 75.4102 375.412 75.2969C375.006 75.1719 374.631 75.0332 374.287 74.8809C373.947 74.7246 373.65 74.5449 373.396 74.3418C373.143 74.1348 372.945 73.8984 372.805 73.6328C372.664 73.3633 372.594 73.0527 372.594 72.7012C372.594 72.3535 372.666 72.0371 372.811 71.752C372.959 71.4668 373.168 71.2207 373.438 71.0137C373.711 70.8027 374.033 70.6406 374.404 70.5273C374.775 70.4102 375.186 70.3516 375.635 70.3516C376.268 70.3516 376.812 70.4688 377.27 70.7031C377.73 70.9375 378.084 71.252 378.33 71.6465C378.58 72.041 378.705 72.4766 378.705 72.9531H377.246C377.246 72.6719 377.186 72.4238 377.064 72.209C376.947 71.9902 376.768 71.8184 376.525 71.6934C376.287 71.5684 375.984 71.5059 375.617 71.5059C375.27 71.5059 374.98 71.5586 374.75 71.6641C374.52 71.7695 374.348 71.9121 374.234 72.0918C374.121 72.2715 374.064 72.4746 374.064 72.7012C374.064 72.8613 374.102 73.0078 374.176 73.1406C374.25 73.2695 374.363 73.3906 374.516 73.5039C374.668 73.6133 374.859 73.7168 375.09 73.8145C375.32 73.9121 375.592 74.0059 375.904 74.0957C376.377 74.2363 376.789 74.3926 377.141 74.5645C377.492 74.7324 377.785 74.9238 378.02 75.1387C378.254 75.3535 378.43 75.5977 378.547 75.8711C378.664 76.1406 378.723 76.4473 378.723 76.791C378.723 77.1504 378.65 77.4746 378.506 77.7637C378.361 78.0488 378.154 78.293 377.885 78.4961C377.619 78.6953 377.299 78.8496 376.924 78.959C376.553 79.0645 376.139 79.1172 375.682 79.1172C375.271 79.1172 374.867 79.0625 374.469 78.9531C374.074 78.8438 373.715 78.6777 373.391 78.4551C373.066 78.2285 372.809 77.9473 372.617 77.6113C372.426 77.2715 372.33 76.875 372.33 76.4219H373.801C373.801 76.6992 373.848 76.9355 373.941 77.1309C374.039 77.3262 374.174 77.4863 374.346 77.6113C374.518 77.7324 374.717 77.8223 374.943 77.8809C375.174 77.9395 375.42 77.9688 375.682 77.9688C376.025 77.9688 376.312 77.9199 376.543 77.8223C376.777 77.7246 376.953 77.5879 377.07 77.4121C377.188 77.2363 377.246 77.0332 377.246 76.8027Z" fill="black"/>
<rect x="324" y="14" width="82" height="82" rx="41" stroke="#41495B" stroke-width="2"/>
</svg>
