<svg width="430" height="110" viewBox="0 0 430 110" fill="none" xmlns="http://www.w3.org/2000/svg">
<rect x="44" y="19" width="72" height="72" rx="8" fill="#41495B"/>
<path d="M78.0127 43.5488V47.0352C78.0127 48.7051 77.8467 50.1309 77.5146 51.3125C77.1924 52.4844 76.7236 53.4365 76.1084 54.1689C75.4932 54.9014 74.7559 55.4385 73.8965 55.7803C73.0469 56.1221 72.0947 56.293 71.04 56.293C70.2002 56.293 69.4189 56.1855 68.6963 55.9707C67.9834 55.7559 67.3389 55.4189 66.7627 54.96C66.1865 54.501 65.6934 53.9102 65.2832 53.1875C64.8828 52.4551 64.5703 51.5811 64.3457 50.5654C64.1309 49.5498 64.0234 48.373 64.0234 47.0352V43.5488C64.0234 41.8691 64.1895 40.4531 64.5215 39.3008C64.8535 38.1387 65.3271 37.1963 65.9424 36.4736C66.5576 35.7412 67.29 35.209 68.1396 34.877C68.999 34.5449 69.9561 34.3789 71.0107 34.3789C71.8604 34.3789 72.6416 34.4863 73.3545 34.7012C74.0771 34.9062 74.7217 35.2334 75.2881 35.6826C75.8643 36.1318 76.3525 36.7178 76.7529 37.4404C77.1631 38.1533 77.4756 39.0176 77.6904 40.0332C77.9053 41.0391 78.0127 42.2109 78.0127 43.5488ZM74.4824 47.5332V43.0215C74.4824 42.1719 74.4336 41.4248 74.3359 40.7803C74.2383 40.126 74.0918 39.5742 73.8965 39.125C73.7109 38.666 73.4766 38.2949 73.1934 38.0117C72.9102 37.7188 72.5879 37.5088 72.2266 37.3818C71.8652 37.2451 71.46 37.1768 71.0107 37.1768C70.4639 37.1768 69.9756 37.2842 69.5459 37.499C69.1162 37.7041 68.7549 38.0361 68.4619 38.4951C68.1689 38.9541 67.9443 39.5596 67.7881 40.3115C67.6416 41.0537 67.5684 41.957 67.5684 43.0215V47.5332C67.5684 48.3926 67.6172 49.1494 67.7148 49.8037C67.8125 50.458 67.959 51.0195 68.1543 51.4883C68.3496 51.9473 68.584 52.3281 68.8574 52.6309C69.1406 52.9238 69.4629 53.1387 69.8242 53.2754C70.1953 53.4121 70.6006 53.4805 71.04 53.4805C71.5967 53.4805 72.0898 53.373 72.5195 53.1582C72.9492 52.9434 73.3105 52.6016 73.6035 52.1328C73.8965 51.6543 74.1162 51.0342 74.2627 50.2725C74.4092 49.5107 74.4824 48.5977 74.4824 47.5332ZM95.8545 48.3975V51.21H80.4736L80.3564 49.0859L89.5557 34.6719H92.3828L89.3213 39.916L84.0332 48.3975H95.8545ZM93.1885 34.6719V56H89.6582V34.6719H93.1885Z" fill="white"/>
<path d="M69.8457 79H68.0234L68.0352 77.834H69.8457C70.373 77.834 70.8145 77.7188 71.1699 77.4883C71.5293 77.2578 71.7988 76.9277 71.9785 76.498C72.1621 76.0684 72.2539 75.5566 72.2539 74.9629V74.5C72.2539 74.0391 72.2012 73.6309 72.0957 73.2754C71.9941 72.9199 71.8418 72.6211 71.6387 72.3789C71.4395 72.1367 71.1934 71.9531 70.9004 71.8281C70.6113 71.7031 70.2773 71.6406 69.8984 71.6406H67.9883V70.4688H69.8984C70.4648 70.4688 70.9824 70.5645 71.4512 70.7559C71.9199 70.9434 72.3242 71.2148 72.6641 71.5703C73.0078 71.9258 73.2715 72.3516 73.4551 72.8477C73.6387 73.3438 73.7305 73.8984 73.7305 74.5117V74.9629C73.7305 75.5762 73.6387 76.1309 73.4551 76.627C73.2715 77.123 73.0078 77.5488 72.6641 77.9043C72.3203 78.2559 71.9102 78.5273 71.4336 78.7188C70.9609 78.9062 70.4316 79 69.8457 79ZM68.8379 70.4688V79H67.3672V70.4688H68.8379ZM78.6406 77.7285V74.7051C78.6406 74.4785 78.5996 74.2832 78.5176 74.1191C78.4355 73.9551 78.3105 73.8281 78.1426 73.7383C77.9785 73.6484 77.7715 73.6035 77.5215 73.6035C77.291 73.6035 77.0918 73.6426 76.9238 73.7207C76.7559 73.7988 76.625 73.9043 76.5312 74.0371C76.4375 74.1699 76.3906 74.3203 76.3906 74.4883H74.9844C74.9844 74.2383 75.0449 73.9961 75.166 73.7617C75.2871 73.5273 75.4629 73.3184 75.6934 73.1348C75.9238 72.9512 76.1992 72.8066 76.5195 72.7012C76.8398 72.5957 77.1992 72.543 77.5977 72.543C78.0742 72.543 78.4961 72.623 78.8633 72.7832C79.2344 72.9434 79.5254 73.1855 79.7363 73.5098C79.9512 73.8301 80.0586 74.2324 80.0586 74.7168V77.5352C80.0586 77.8242 80.0781 78.084 80.1172 78.3145C80.1602 78.541 80.2207 78.7383 80.2988 78.9062V79H78.8516C78.7852 78.8477 78.7324 78.6543 78.6934 78.4199C78.6582 78.1816 78.6406 77.9512 78.6406 77.7285ZM78.8457 75.1445L78.8574 76.0176H77.8438C77.582 76.0176 77.3516 76.043 77.1523 76.0938C76.9531 76.1406 76.7871 76.2109 76.6543 76.3047C76.5215 76.3984 76.4219 76.5117 76.3555 76.6445C76.2891 76.7773 76.2559 76.9277 76.2559 77.0957C76.2559 77.2637 76.2949 77.418 76.373 77.5586C76.4512 77.6953 76.5645 77.8027 76.7129 77.8809C76.8652 77.959 77.0488 77.998 77.2637 77.998C77.5527 77.998 77.8047 77.9395 78.0195 77.8223C78.2383 77.7012 78.4102 77.5547 78.5352 77.3828C78.6602 77.207 78.7266 77.041 78.7344 76.8848L79.1914 77.5117C79.1445 77.6719 79.0645 77.8438 78.9512 78.0273C78.8379 78.2109 78.6895 78.3867 78.5059 78.5547C78.3262 78.7188 78.1094 78.8535 77.8555 78.959C77.6055 79.0645 77.3164 79.1172 76.9883 79.1172C76.5742 79.1172 76.2051 79.0352 75.8809 78.8711C75.5566 78.7031 75.3027 78.4785 75.1191 78.1973C74.9355 77.9121 74.8438 77.5898 74.8438 77.2305C74.8438 76.8945 74.9062 76.5977 75.0312 76.3398C75.1602 76.0781 75.3477 75.8594 75.5938 75.6836C75.8438 75.5078 76.1484 75.375 76.5078 75.2852C76.8672 75.1914 77.2773 75.1445 77.7383 75.1445H78.8457ZM83.2812 78.3086L85.0039 72.6602H86.5156L83.9727 79.9668C83.9141 80.123 83.8379 80.293 83.7441 80.4766C83.6504 80.6602 83.5273 80.834 83.375 80.998C83.2266 81.166 83.041 81.3008 82.8184 81.4023C82.5957 81.5078 82.3262 81.5605 82.0098 81.5605C81.8848 81.5605 81.7637 81.5488 81.6465 81.5254C81.5332 81.5059 81.4258 81.4844 81.3242 81.4609L81.3184 80.3828C81.3574 80.3867 81.4043 80.3906 81.459 80.3945C81.5176 80.3984 81.5645 80.4004 81.5996 80.4004C81.834 80.4004 82.0293 80.3711 82.1855 80.3125C82.3418 80.2578 82.4688 80.168 82.5664 80.043C82.668 79.918 82.7539 79.75 82.8242 79.5391L83.2812 78.3086ZM82.3086 72.6602L83.8145 77.4062L84.0664 78.8945L83.0879 79.1465L80.7852 72.6602H82.3086ZM90.8809 77.2832C90.8809 77.1426 90.8457 77.0156 90.7754 76.9023C90.7051 76.7852 90.5703 76.6797 90.3711 76.5859C90.1758 76.4922 89.8867 76.4062 89.5039 76.3281C89.168 76.2539 88.8594 76.166 88.5781 76.0645C88.3008 75.959 88.0625 75.832 87.8633 75.6836C87.6641 75.5352 87.5098 75.3594 87.4004 75.1562C87.291 74.9531 87.2363 74.7188 87.2363 74.4531C87.2363 74.1953 87.293 73.9512 87.4062 73.7207C87.5195 73.4902 87.6816 73.2871 87.8926 73.1113C88.1035 72.9355 88.3594 72.7969 88.6602 72.6953C88.9648 72.5938 89.3047 72.543 89.6797 72.543C90.2109 72.543 90.666 72.6328 91.0449 72.8125C91.4277 72.9883 91.7207 73.2285 91.9238 73.5332C92.127 73.834 92.2285 74.1738 92.2285 74.5527H90.8164C90.8164 74.3848 90.7734 74.2285 90.6875 74.084C90.6055 73.9355 90.4805 73.8164 90.3125 73.7266C90.1445 73.6328 89.9336 73.5859 89.6797 73.5859C89.4375 73.5859 89.2363 73.625 89.0762 73.7031C88.9199 73.7773 88.8027 73.875 88.7246 73.9961C88.6504 74.1172 88.6133 74.25 88.6133 74.3945C88.6133 74.5 88.6328 74.5957 88.6719 74.6816C88.7148 74.7637 88.7852 74.8398 88.8828 74.9102C88.9805 74.9766 89.1133 75.0391 89.2812 75.0977C89.4531 75.1562 89.668 75.2129 89.9258 75.2676C90.4102 75.3691 90.8262 75.5 91.1738 75.6602C91.5254 75.8164 91.7949 76.0195 91.9824 76.2695C92.1699 76.5156 92.2637 76.8281 92.2637 77.207C92.2637 77.4883 92.2031 77.7461 92.082 77.9805C91.9648 78.2109 91.793 78.4121 91.5664 78.584C91.3398 78.752 91.0684 78.8828 90.752 78.9766C90.4395 79.0703 90.0879 79.1172 89.6973 79.1172C89.123 79.1172 88.6367 79.0156 88.2383 78.8125C87.8398 78.6055 87.5371 78.3418 87.3301 78.0215C87.127 77.6973 87.0254 77.3613 87.0254 77.0137H88.3906C88.4062 77.2754 88.4785 77.4844 88.6074 77.6406C88.7402 77.793 88.9043 77.9043 89.0996 77.9746C89.2988 78.041 89.5039 78.0742 89.7148 78.0742C89.9688 78.0742 90.1816 78.041 90.3535 77.9746C90.5254 77.9043 90.6562 77.8105 90.7461 77.6934C90.8359 77.5723 90.8809 77.4355 90.8809 77.2832Z" fill="#D2D5EE"/>
<rect x="44" y="19" width="72" height="72" rx="8" stroke="#41495B" stroke-width="2"/>
<rect x="134" y="19" width="72" height="72" rx="8" fill="#41495B"/>
<path d="M168.408 53.1875V56H154.111V53.583L161.055 46.0098C161.816 45.1504 162.417 44.4082 162.856 43.7832C163.296 43.1582 163.604 42.5967 163.779 42.0986C163.965 41.5908 164.058 41.0977 164.058 40.6191C164.058 39.9453 163.931 39.3545 163.677 38.8467C163.433 38.3291 163.071 37.9238 162.593 37.6309C162.114 37.3281 161.533 37.1768 160.85 37.1768C160.059 37.1768 159.395 37.3477 158.857 37.6895C158.32 38.0312 157.915 38.5049 157.642 39.1104C157.368 39.7061 157.231 40.3896 157.231 41.1611H153.701C153.701 39.9209 153.984 38.7881 154.551 37.7627C155.117 36.7275 155.938 35.9072 157.012 35.3018C158.086 34.6865 159.38 34.3789 160.894 34.3789C162.319 34.3789 163.53 34.6182 164.526 35.0967C165.522 35.5752 166.279 36.2539 166.797 37.1328C167.324 38.0117 167.588 39.0518 167.588 40.2529C167.588 40.917 167.48 41.5762 167.266 42.2305C167.051 42.8848 166.743 43.5391 166.343 44.1934C165.952 44.8379 165.488 45.4873 164.951 46.1416C164.414 46.7861 163.823 47.4404 163.179 48.1045L158.564 53.1875H168.408ZM175.308 43.7393H177.417C178.237 43.7393 178.916 43.5977 179.453 43.3145C180 43.0312 180.405 42.6406 180.669 42.1426C180.933 41.6445 181.064 41.0732 181.064 40.4287C181.064 39.7549 180.942 39.1787 180.698 38.7002C180.464 38.2119 180.103 37.8359 179.614 37.5723C179.136 37.3086 178.525 37.1768 177.783 37.1768C177.158 37.1768 176.592 37.3037 176.084 37.5576C175.586 37.8018 175.19 38.1533 174.897 38.6123C174.604 39.0615 174.458 39.5986 174.458 40.2236H170.913C170.913 39.0908 171.211 38.085 171.807 37.2061C172.402 36.3271 173.213 35.6387 174.238 35.1406C175.273 34.6328 176.436 34.3789 177.725 34.3789C179.102 34.3789 180.303 34.6084 181.328 35.0674C182.363 35.5166 183.169 36.1904 183.745 37.0889C184.321 37.9873 184.609 39.1006 184.609 40.4287C184.609 41.0342 184.468 41.6494 184.185 42.2744C183.901 42.8994 183.481 43.4707 182.925 43.9883C182.368 44.4961 181.675 44.9111 180.845 45.2334C180.015 45.5459 179.053 45.7021 177.959 45.7021H175.308V43.7393ZM175.308 46.4932V44.5596H177.959C179.209 44.5596 180.273 44.7061 181.152 44.999C182.041 45.292 182.764 45.6973 183.32 46.2148C183.877 46.7227 184.282 47.3037 184.536 47.958C184.8 48.6123 184.932 49.3057 184.932 50.0381C184.932 51.0342 184.751 51.9229 184.39 52.7041C184.038 53.4756 183.535 54.1299 182.881 54.667C182.227 55.2041 181.46 55.6094 180.581 55.8828C179.712 56.1562 178.765 56.293 177.739 56.293C176.821 56.293 175.942 56.166 175.103 55.9121C174.263 55.6582 173.511 55.2822 172.847 54.7842C172.183 54.2764 171.655 53.6465 171.265 52.8945C170.884 52.1328 170.693 51.2539 170.693 50.2578H174.224C174.224 50.8926 174.37 51.4541 174.663 51.9424C174.966 52.4209 175.386 52.7969 175.923 53.0703C176.47 53.3438 177.095 53.4805 177.798 53.4805C178.54 53.4805 179.18 53.3486 179.717 53.085C180.254 52.8213 180.664 52.4307 180.947 51.9131C181.24 51.3955 181.387 50.7705 181.387 50.0381C181.387 49.208 181.226 48.5342 180.903 48.0166C180.581 47.499 180.122 47.1182 179.526 46.874C178.931 46.6201 178.228 46.4932 177.417 46.4932H175.308Z" fill="white"/>
<path d="M160.004 74.0312V75.1973H155.475V74.0312H160.004ZM155.838 70.4688V79H154.367V70.4688H155.838ZM161.135 70.4688V79H159.67V70.4688H161.135ZM162.477 75.9004V75.7656C162.477 75.3086 162.543 74.8848 162.676 74.4941C162.809 74.0996 163 73.7578 163.25 73.4688C163.504 73.1758 163.812 72.9492 164.176 72.7891C164.543 72.625 164.957 72.543 165.418 72.543C165.883 72.543 166.297 72.625 166.66 72.7891C167.027 72.9492 167.338 73.1758 167.592 73.4688C167.846 73.7578 168.039 74.0996 168.172 74.4941C168.305 74.8848 168.371 75.3086 168.371 75.7656V75.9004C168.371 76.3574 168.305 76.7812 168.172 77.1719C168.039 77.5625 167.846 77.9043 167.592 78.1973C167.338 78.4863 167.029 78.7129 166.666 78.877C166.303 79.0371 165.891 79.1172 165.43 79.1172C164.965 79.1172 164.549 79.0371 164.182 78.877C163.818 78.7129 163.51 78.4863 163.256 78.1973C163.002 77.9043 162.809 77.5625 162.676 77.1719C162.543 76.7812 162.477 76.3574 162.477 75.9004ZM163.889 75.7656V75.9004C163.889 76.1855 163.918 76.4551 163.977 76.709C164.035 76.9629 164.127 77.1855 164.252 77.377C164.377 77.5684 164.537 77.7188 164.732 77.8281C164.928 77.9375 165.16 77.9922 165.43 77.9922C165.691 77.9922 165.918 77.9375 166.109 77.8281C166.305 77.7188 166.465 77.5684 166.59 77.377C166.715 77.1855 166.807 76.9629 166.865 76.709C166.928 76.4551 166.959 76.1855 166.959 75.9004V75.7656C166.959 75.4844 166.928 75.2188 166.865 74.9688C166.807 74.7148 166.713 74.4902 166.584 74.2949C166.459 74.0996 166.299 73.9473 166.104 73.8379C165.912 73.7246 165.684 73.668 165.418 73.668C165.152 73.668 164.922 73.7246 164.727 73.8379C164.535 73.9473 164.377 74.0996 164.252 74.2949C164.127 74.4902 164.035 74.7148 163.977 74.9688C163.918 75.2188 163.889 75.4844 163.889 75.7656ZM173.369 77.5059V72.6602H174.787V79H173.451L173.369 77.5059ZM173.568 76.1875L174.043 76.1758C174.043 76.6016 173.996 76.9941 173.902 77.3535C173.809 77.709 173.664 78.0195 173.469 78.2852C173.273 78.5469 173.023 78.752 172.719 78.9004C172.414 79.0449 172.049 79.1172 171.623 79.1172C171.314 79.1172 171.031 79.0723 170.773 78.9824C170.516 78.8926 170.293 78.7539 170.105 78.5664C169.922 78.3789 169.779 78.1348 169.678 77.834C169.576 77.5332 169.525 77.1738 169.525 76.7559V72.6602H170.938V76.7676C170.938 76.998 170.965 77.1914 171.02 77.3477C171.074 77.5 171.148 77.623 171.242 77.7168C171.336 77.8105 171.445 77.877 171.57 77.916C171.695 77.9551 171.828 77.9746 171.969 77.9746C172.371 77.9746 172.688 77.8965 172.918 77.7402C173.152 77.5801 173.318 77.3652 173.416 77.0957C173.518 76.8262 173.568 76.5234 173.568 76.1875ZM177.652 73.8672V79H176.24V72.6602H177.588L177.652 73.8672ZM179.592 72.6191L179.58 73.9316C179.494 73.916 179.4 73.9043 179.299 73.8965C179.201 73.8887 179.104 73.8848 179.006 73.8848C178.764 73.8848 178.551 73.9199 178.367 73.9902C178.184 74.0566 178.029 74.1543 177.904 74.2832C177.783 74.4082 177.689 74.5605 177.623 74.7402C177.557 74.9199 177.518 75.1211 177.506 75.3438L177.184 75.3672C177.184 74.9688 177.223 74.5996 177.301 74.2598C177.379 73.9199 177.496 73.6211 177.652 73.3633C177.812 73.1055 178.012 72.9043 178.25 72.7598C178.492 72.6152 178.771 72.543 179.088 72.543C179.174 72.543 179.266 72.5508 179.363 72.5664C179.465 72.582 179.541 72.5996 179.592 72.6191ZM184.033 77.2832C184.033 77.1426 183.998 77.0156 183.928 76.9023C183.857 76.7852 183.723 76.6797 183.523 76.5859C183.328 76.4922 183.039 76.4062 182.656 76.3281C182.32 76.2539 182.012 76.166 181.73 76.0645C181.453 75.959 181.215 75.832 181.016 75.6836C180.816 75.5352 180.662 75.3594 180.553 75.1562C180.443 74.9531 180.389 74.7188 180.389 74.4531C180.389 74.1953 180.445 73.9512 180.559 73.7207C180.672 73.4902 180.834 73.2871 181.045 73.1113C181.256 72.9355 181.512 72.7969 181.812 72.6953C182.117 72.5938 182.457 72.543 182.832 72.543C183.363 72.543 183.818 72.6328 184.197 72.8125C184.58 72.9883 184.873 73.2285 185.076 73.5332C185.279 73.834 185.381 74.1738 185.381 74.5527H183.969C183.969 74.3848 183.926 74.2285 183.84 74.084C183.758 73.9355 183.633 73.8164 183.465 73.7266C183.297 73.6328 183.086 73.5859 182.832 73.5859C182.59 73.5859 182.389 73.625 182.229 73.7031C182.072 73.7773 181.955 73.875 181.877 73.9961C181.803 74.1172 181.766 74.25 181.766 74.3945C181.766 74.5 181.785 74.5957 181.824 74.6816C181.867 74.7637 181.938 74.8398 182.035 74.9102C182.133 74.9766 182.266 75.0391 182.434 75.0977C182.605 75.1562 182.82 75.2129 183.078 75.2676C183.562 75.3691 183.979 75.5 184.326 75.6602C184.678 75.8164 184.947 76.0195 185.135 76.2695C185.322 76.5156 185.416 76.8281 185.416 77.207C185.416 77.4883 185.355 77.7461 185.234 77.9805C185.117 78.2109 184.945 78.4121 184.719 78.584C184.492 78.752 184.221 78.8828 183.904 78.9766C183.592 79.0703 183.24 79.1172 182.85 79.1172C182.275 79.1172 181.789 79.0156 181.391 78.8125C180.992 78.6055 180.689 78.3418 180.482 78.0215C180.279 77.6973 180.178 77.3613 180.178 77.0137H181.543C181.559 77.2754 181.631 77.4844 181.76 77.6406C181.893 77.793 182.057 77.9043 182.252 77.9746C182.451 78.041 182.656 78.0742 182.867 78.0742C183.121 78.0742 183.334 78.041 183.506 77.9746C183.678 77.9043 183.809 77.8105 183.898 77.6934C183.988 77.5723 184.033 77.4355 184.033 77.2832Z" fill="#D2D5EE"/>
<rect x="134" y="19" width="72" height="72" rx="8" stroke="#41495B" stroke-width="2"/>
<rect x="224" y="19" width="72" height="72" rx="8" fill="#41495B"/>
<path d="M247.817 46.083L245.005 45.3945L246.162 34.6719H257.661V37.6602H249.092L248.506 42.8896C248.838 42.6943 249.297 42.5039 249.883 42.3184C250.469 42.123 251.138 42.0254 251.89 42.0254C252.896 42.0254 253.794 42.1914 254.585 42.5234C255.386 42.8457 256.064 43.3193 256.621 43.9443C257.178 44.5596 257.603 45.3115 257.896 46.2002C258.188 47.0791 258.335 48.0703 258.335 49.1738C258.335 50.1602 258.188 51.083 257.896 51.9424C257.612 52.8018 257.183 53.5586 256.606 54.2129C256.03 54.8672 255.303 55.3799 254.424 55.751C253.555 56.1123 252.524 56.293 251.333 56.293C250.444 56.293 249.59 56.166 248.77 55.9121C247.959 55.6484 247.231 55.2627 246.587 54.7549C245.942 54.2373 245.425 53.6025 245.034 52.8506C244.644 52.0889 244.419 51.2148 244.36 50.2285H247.817C247.905 50.9219 248.096 51.5127 248.389 52.001C248.691 52.4795 249.092 52.8457 249.59 53.0996C250.088 53.3535 250.664 53.4805 251.318 53.4805C251.914 53.4805 252.427 53.3779 252.856 53.1729C253.286 52.958 253.643 52.6553 253.926 52.2646C254.219 51.8643 254.434 51.3955 254.57 50.8584C254.717 50.3213 254.79 49.7256 254.79 49.0713C254.79 48.4463 254.707 47.875 254.541 47.3574C254.385 46.8398 254.146 46.3906 253.823 46.0098C253.511 45.6289 253.115 45.3359 252.637 45.1309C252.158 44.916 251.606 44.8086 250.981 44.8086C250.142 44.8086 249.497 44.9307 249.048 45.1748C248.608 45.4189 248.198 45.7217 247.817 46.083ZM271.826 34.54H272.266V37.4258H272.017C270.757 37.4258 269.668 37.6211 268.75 38.0117C267.842 38.4023 267.095 38.9395 266.509 39.623C265.923 40.3066 265.483 41.1074 265.19 42.0254C264.907 42.9336 264.766 43.9004 264.766 44.9258V48.2803C264.766 49.1299 264.858 49.8818 265.044 50.5361C265.229 51.1807 265.488 51.7227 265.82 52.1621C266.162 52.5918 266.553 52.9189 266.992 53.1436C267.432 53.3682 267.905 53.4805 268.413 53.4805C268.94 53.4805 269.419 53.373 269.849 53.1582C270.278 52.9336 270.645 52.626 270.947 52.2354C271.25 51.8447 271.479 51.3809 271.636 50.8438C271.792 50.3066 271.87 49.7207 271.87 49.0859C271.87 48.4805 271.792 47.9141 271.636 47.3867C271.489 46.8496 271.27 46.3809 270.977 45.9805C270.684 45.5703 270.317 45.2529 269.878 45.0283C269.448 44.7939 268.95 44.6768 268.384 44.6768C267.681 44.6768 267.041 44.8428 266.465 45.1748C265.898 45.5068 265.439 45.9414 265.088 46.4785C264.746 47.0059 264.561 47.5674 264.531 48.1631L263.184 47.7236C263.262 46.8154 263.462 46 263.784 45.2773C264.116 44.5547 264.551 43.9395 265.088 43.4316C265.625 42.9238 266.245 42.5381 266.948 42.2744C267.661 42.001 268.442 41.8643 269.292 41.8643C270.327 41.8643 271.226 42.0596 271.987 42.4502C272.749 42.8408 273.379 43.373 273.877 44.0469C274.385 44.7109 274.761 45.4727 275.005 46.332C275.259 47.1816 275.386 48.0703 275.386 48.998C275.386 50.0234 275.229 50.9805 274.917 51.8691C274.604 52.748 274.146 53.5195 273.54 54.1836C272.944 54.8477 272.217 55.3652 271.357 55.7363C270.508 56.1074 269.541 56.293 268.457 56.293C267.314 56.293 266.294 56.0732 265.396 55.6338C264.507 55.1943 263.75 54.5889 263.125 53.8174C262.51 53.0459 262.041 52.1572 261.719 51.1514C261.396 50.1455 261.235 49.0811 261.235 47.958V46.4932C261.235 44.8721 261.44 43.3438 261.851 41.9082C262.261 40.4629 262.891 39.1885 263.74 38.085C264.6 36.9814 265.698 36.1172 267.036 35.4922C268.374 34.8574 269.971 34.54 271.826 34.54Z" fill="white"/>
<path d="M239.465 70.4688H240.777L243.244 77.0488L245.705 70.4688H247.018L243.76 79H242.717L239.465 70.4688ZM238.867 70.4688H240.115L240.332 76.1641V79H238.867V70.4688ZM246.367 70.4688H247.621V79H246.15V76.1641L246.367 70.4688ZM250.738 72.6602V79H249.32V72.6602H250.738ZM249.227 70.9961C249.227 70.7812 249.297 70.6035 249.438 70.4629C249.582 70.3184 249.781 70.2461 250.035 70.2461C250.285 70.2461 250.482 70.3184 250.627 70.4629C250.771 70.6035 250.844 70.7812 250.844 70.9961C250.844 71.207 250.771 71.3828 250.627 71.5234C250.482 71.6641 250.285 71.7344 250.035 71.7344C249.781 71.7344 249.582 71.6641 249.438 71.5234C249.297 71.3828 249.227 71.207 249.227 70.9961ZM253.686 74.0137V79H252.273V72.6602H253.604L253.686 74.0137ZM253.434 75.5957L252.977 75.5898C252.98 75.1406 253.043 74.7285 253.164 74.3535C253.289 73.9785 253.461 73.6562 253.68 73.3867C253.902 73.1172 254.168 72.9102 254.477 72.7656C254.785 72.6172 255.129 72.543 255.508 72.543C255.812 72.543 256.088 72.5859 256.334 72.6719C256.584 72.7539 256.797 72.8887 256.973 73.0762C257.152 73.2637 257.289 73.5078 257.383 73.8086C257.477 74.1055 257.523 74.4707 257.523 74.9043V79H256.105V74.8984C256.105 74.5938 256.061 74.3535 255.971 74.1777C255.885 73.998 255.758 73.8711 255.59 73.7969C255.426 73.7188 255.221 73.6797 254.975 73.6797C254.732 73.6797 254.516 73.7305 254.324 73.832C254.133 73.9336 253.971 74.0723 253.838 74.248C253.709 74.4238 253.609 74.627 253.539 74.8574C253.469 75.0879 253.434 75.334 253.434 75.5957ZM262.779 77.5059V72.6602H264.197V79H262.861L262.779 77.5059ZM262.979 76.1875L263.453 76.1758C263.453 76.6016 263.406 76.9941 263.312 77.3535C263.219 77.709 263.074 78.0195 262.879 78.2852C262.684 78.5469 262.434 78.752 262.129 78.9004C261.824 79.0449 261.459 79.1172 261.033 79.1172C260.725 79.1172 260.441 79.0723 260.184 78.9824C259.926 78.8926 259.703 78.7539 259.516 78.5664C259.332 78.3789 259.189 78.1348 259.088 77.834C258.986 77.5332 258.936 77.1738 258.936 76.7559V72.6602H260.348V76.7676C260.348 76.998 260.375 77.1914 260.43 77.3477C260.484 77.5 260.559 77.623 260.652 77.7168C260.746 77.8105 260.855 77.877 260.98 77.916C261.105 77.9551 261.238 77.9746 261.379 77.9746C261.781 77.9746 262.098 77.8965 262.328 77.7402C262.562 77.5801 262.729 77.3652 262.826 77.0957C262.928 76.8262 262.979 76.5234 262.979 76.1875ZM268.551 72.6602V73.6914H264.977V72.6602H268.551ZM266.008 71.1074H267.42V77.248C267.42 77.4434 267.447 77.5938 267.502 77.6992C267.561 77.8008 267.641 77.8691 267.742 77.9043C267.844 77.9395 267.963 77.957 268.1 77.957C268.197 77.957 268.291 77.9512 268.381 77.9395C268.471 77.9277 268.543 77.916 268.598 77.9043L268.604 78.9824C268.486 79.0176 268.35 79.0488 268.193 79.0762C268.041 79.1035 267.865 79.1172 267.666 79.1172C267.342 79.1172 267.055 79.0605 266.805 78.9473C266.555 78.8301 266.359 78.6406 266.219 78.3789C266.078 78.1172 266.008 77.7695 266.008 77.3359V71.1074ZM272.436 79.1172C271.967 79.1172 271.543 79.041 271.164 78.8887C270.789 78.7324 270.469 78.5156 270.203 78.2383C269.941 77.9609 269.74 77.6348 269.6 77.2598C269.459 76.8848 269.389 76.4805 269.389 76.0469V75.8125C269.389 75.3164 269.461 74.8672 269.605 74.4648C269.75 74.0625 269.951 73.7188 270.209 73.4336C270.467 73.1445 270.771 72.9238 271.123 72.7715C271.475 72.6191 271.855 72.543 272.266 72.543C272.719 72.543 273.115 72.6191 273.455 72.7715C273.795 72.9238 274.076 73.1387 274.299 73.416C274.525 73.6895 274.693 74.0156 274.803 74.3945C274.916 74.7734 274.973 75.1914 274.973 75.6484V76.252H270.074V75.2383H273.578V75.127C273.57 74.873 273.52 74.6348 273.426 74.4121C273.336 74.1895 273.197 74.0098 273.01 73.873C272.822 73.7363 272.572 73.668 272.26 73.668C272.025 73.668 271.816 73.7188 271.633 73.8203C271.453 73.918 271.303 74.0605 271.182 74.248C271.061 74.4355 270.967 74.6621 270.9 74.9277C270.838 75.1895 270.807 75.4844 270.807 75.8125V76.0469C270.807 76.3242 270.844 76.582 270.918 76.8203C270.996 77.0547 271.109 77.2598 271.258 77.4355C271.406 77.6113 271.586 77.75 271.797 77.8516C272.008 77.9492 272.248 77.998 272.518 77.998C272.857 77.998 273.16 77.9297 273.426 77.793C273.691 77.6562 273.922 77.4629 274.117 77.2129L274.861 77.9336C274.725 78.1328 274.547 78.3242 274.328 78.5078C274.109 78.6875 273.842 78.834 273.525 78.9473C273.213 79.0605 272.85 79.1172 272.436 79.1172ZM279.631 77.2832C279.631 77.1426 279.596 77.0156 279.525 76.9023C279.455 76.7852 279.32 76.6797 279.121 76.5859C278.926 76.4922 278.637 76.4062 278.254 76.3281C277.918 76.2539 277.609 76.166 277.328 76.0645C277.051 75.959 276.812 75.832 276.613 75.6836C276.414 75.5352 276.26 75.3594 276.15 75.1562C276.041 74.9531 275.986 74.7188 275.986 74.4531C275.986 74.1953 276.043 73.9512 276.156 73.7207C276.27 73.4902 276.432 73.2871 276.643 73.1113C276.854 72.9355 277.109 72.7969 277.41 72.6953C277.715 72.5938 278.055 72.543 278.43 72.543C278.961 72.543 279.416 72.6328 279.795 72.8125C280.178 72.9883 280.471 73.2285 280.674 73.5332C280.877 73.834 280.979 74.1738 280.979 74.5527H279.566C279.566 74.3848 279.523 74.2285 279.438 74.084C279.355 73.9355 279.23 73.8164 279.062 73.7266C278.895 73.6328 278.684 73.5859 278.43 73.5859C278.188 73.5859 277.986 73.625 277.826 73.7031C277.67 73.7773 277.553 73.875 277.475 73.9961C277.4 74.1172 277.363 74.25 277.363 74.3945C277.363 74.5 277.383 74.5957 277.422 74.6816C277.465 74.7637 277.535 74.8398 277.633 74.9102C277.73 74.9766 277.863 75.0391 278.031 75.0977C278.203 75.1562 278.418 75.2129 278.676 75.2676C279.16 75.3691 279.576 75.5 279.924 75.6602C280.275 75.8164 280.545 76.0195 280.732 76.2695C280.92 76.5156 281.014 76.8281 281.014 77.207C281.014 77.4883 280.953 77.7461 280.832 77.9805C280.715 78.2109 280.543 78.4121 280.316 78.584C280.09 78.752 279.818 78.8828 279.502 78.9766C279.189 79.0703 278.838 79.1172 278.447 79.1172C277.873 79.1172 277.387 79.0156 276.988 78.8125C276.59 78.6055 276.287 78.3418 276.08 78.0215C275.877 77.6973 275.775 77.3613 275.775 77.0137H277.141C277.156 77.2754 277.229 77.4844 277.357 77.6406C277.49 77.793 277.654 77.9043 277.85 77.9746C278.049 78.041 278.254 78.0742 278.465 78.0742C278.719 78.0742 278.932 78.041 279.104 77.9746C279.275 77.9043 279.406 77.8105 279.496 77.6934C279.586 77.5723 279.631 77.4355 279.631 77.2832Z" fill="#D2D5EE"/>
<rect x="224" y="19" width="72" height="72" rx="8" stroke="#41495B" stroke-width="2"/>
<rect x="314" y="19" width="72" height="72" rx="8" fill="#41495B"/>
<path d="M338.257 43.7393H340.366C341.187 43.7393 341.865 43.5977 342.402 43.3145C342.949 43.0312 343.354 42.6406 343.618 42.1426C343.882 41.6445 344.014 41.0732 344.014 40.4287C344.014 39.7549 343.892 39.1787 343.647 38.7002C343.413 38.2119 343.052 37.8359 342.563 37.5723C342.085 37.3086 341.475 37.1768 340.732 37.1768C340.107 37.1768 339.541 37.3037 339.033 37.5576C338.535 37.8018 338.14 38.1533 337.847 38.6123C337.554 39.0615 337.407 39.5986 337.407 40.2236H333.862C333.862 39.0908 334.16 38.085 334.756 37.2061C335.352 36.3271 336.162 35.6387 337.188 35.1406C338.223 34.6328 339.385 34.3789 340.674 34.3789C342.051 34.3789 343.252 34.6084 344.277 35.0674C345.312 35.5166 346.118 36.1904 346.694 37.0889C347.271 37.9873 347.559 39.1006 347.559 40.4287C347.559 41.0342 347.417 41.6494 347.134 42.2744C346.851 42.8994 346.431 43.4707 345.874 43.9883C345.317 44.4961 344.624 44.9111 343.794 45.2334C342.964 45.5459 342.002 45.7021 340.908 45.7021H338.257V43.7393ZM338.257 46.4932V44.5596H340.908C342.158 44.5596 343.223 44.7061 344.102 44.999C344.99 45.292 345.713 45.6973 346.27 46.2148C346.826 46.7227 347.231 47.3037 347.485 47.958C347.749 48.6123 347.881 49.3057 347.881 50.0381C347.881 51.0342 347.7 51.9229 347.339 52.7041C346.987 53.4756 346.484 54.1299 345.83 54.667C345.176 55.2041 344.409 55.6094 343.53 55.8828C342.661 56.1562 341.714 56.293 340.688 56.293C339.771 56.293 338.892 56.166 338.052 55.9121C337.212 55.6582 336.46 55.2822 335.796 54.7842C335.132 54.2764 334.604 53.6465 334.214 52.8945C333.833 52.1328 333.643 51.2539 333.643 50.2578H337.173C337.173 50.8926 337.319 51.4541 337.612 51.9424C337.915 52.4209 338.335 52.7969 338.872 53.0703C339.419 53.3438 340.044 53.4805 340.747 53.4805C341.489 53.4805 342.129 53.3486 342.666 53.085C343.203 52.8213 343.613 52.4307 343.896 51.9131C344.189 51.3955 344.336 50.7705 344.336 50.0381C344.336 49.208 344.175 48.5342 343.853 48.0166C343.53 47.499 343.071 47.1182 342.476 46.874C341.88 46.6201 341.177 46.4932 340.366 46.4932H338.257ZM365.327 34.6719V36.6055L356.802 56H353.081L361.592 37.4844H350.547V34.6719H365.327Z" fill="white"/>
<path d="M331.855 76.8027C331.855 76.627 331.828 76.4707 331.773 76.334C331.723 76.1973 331.631 76.0723 331.498 75.959C331.365 75.8457 331.178 75.7363 330.936 75.6309C330.697 75.5215 330.393 75.4102 330.021 75.2969C329.615 75.1719 329.24 75.0332 328.896 74.8809C328.557 74.7246 328.26 74.5449 328.006 74.3418C327.752 74.1348 327.555 73.8984 327.414 73.6328C327.273 73.3633 327.203 73.0527 327.203 72.7012C327.203 72.3535 327.275 72.0371 327.42 71.752C327.568 71.4668 327.777 71.2207 328.047 71.0137C328.32 70.8027 328.643 70.6406 329.014 70.5273C329.385 70.4102 329.795 70.3516 330.244 70.3516C330.877 70.3516 331.422 70.4688 331.879 70.7031C332.34 70.9375 332.693 71.252 332.939 71.6465C333.189 72.041 333.314 72.4766 333.314 72.9531H331.855C331.855 72.6719 331.795 72.4238 331.674 72.209C331.557 71.9902 331.377 71.8184 331.135 71.6934C330.896 71.5684 330.594 71.5059 330.227 71.5059C329.879 71.5059 329.59 71.5586 329.359 71.6641C329.129 71.7695 328.957 71.9121 328.844 72.0918C328.73 72.2715 328.674 72.4746 328.674 72.7012C328.674 72.8613 328.711 73.0078 328.785 73.1406C328.859 73.2695 328.973 73.3906 329.125 73.5039C329.277 73.6133 329.469 73.7168 329.699 73.8145C329.93 73.9121 330.201 74.0059 330.514 74.0957C330.986 74.2363 331.398 74.3926 331.75 74.5645C332.102 74.7324 332.395 74.9238 332.629 75.1387C332.863 75.3535 333.039 75.5977 333.156 75.8711C333.273 76.1406 333.332 76.4473 333.332 76.791C333.332 77.1504 333.26 77.4746 333.115 77.7637C332.971 78.0488 332.764 78.293 332.494 78.4961C332.229 78.6953 331.908 78.8496 331.533 78.959C331.162 79.0645 330.748 79.1172 330.291 79.1172C329.881 79.1172 329.477 79.0625 329.078 78.9531C328.684 78.8438 328.324 78.6777 328 78.4551C327.676 78.2285 327.418 77.9473 327.227 77.6113C327.035 77.2715 326.939 76.875 326.939 76.4219H328.41C328.41 76.6992 328.457 76.9355 328.551 77.1309C328.648 77.3262 328.783 77.4863 328.955 77.6113C329.127 77.7324 329.326 77.8223 329.553 77.8809C329.783 77.9395 330.029 77.9688 330.291 77.9688C330.635 77.9688 330.922 77.9199 331.152 77.8223C331.387 77.7246 331.562 77.5879 331.68 77.4121C331.797 77.2363 331.855 77.0332 331.855 76.8027ZM337.287 79.1172C336.818 79.1172 336.395 79.041 336.016 78.8887C335.641 78.7324 335.32 78.5156 335.055 78.2383C334.793 77.9609 334.592 77.6348 334.451 77.2598C334.311 76.8848 334.24 76.4805 334.24 76.0469V75.8125C334.24 75.3164 334.312 74.8672 334.457 74.4648C334.602 74.0625 334.803 73.7188 335.061 73.4336C335.318 73.1445 335.623 72.9238 335.975 72.7715C336.326 72.6191 336.707 72.543 337.117 72.543C337.57 72.543 337.967 72.6191 338.307 72.7715C338.646 72.9238 338.928 73.1387 339.15 73.416C339.377 73.6895 339.545 74.0156 339.654 74.3945C339.768 74.7734 339.824 75.1914 339.824 75.6484V76.252H334.926V75.2383H338.43V75.127C338.422 74.873 338.371 74.6348 338.277 74.4121C338.188 74.1895 338.049 74.0098 337.861 73.873C337.674 73.7363 337.424 73.668 337.111 73.668C336.877 73.668 336.668 73.7188 336.484 73.8203C336.305 73.918 336.154 74.0605 336.033 74.248C335.912 74.4355 335.818 74.6621 335.752 74.9277C335.689 75.1895 335.658 75.4844 335.658 75.8125V76.0469C335.658 76.3242 335.695 76.582 335.77 76.8203C335.848 77.0547 335.961 77.2598 336.109 77.4355C336.258 77.6113 336.438 77.75 336.648 77.8516C336.859 77.9492 337.1 77.998 337.369 77.998C337.709 77.998 338.012 77.9297 338.277 77.793C338.543 77.6562 338.773 77.4629 338.969 77.2129L339.713 77.9336C339.576 78.1328 339.398 78.3242 339.18 78.5078C338.961 78.6875 338.693 78.834 338.377 78.9473C338.064 79.0605 337.701 79.1172 337.287 79.1172ZM343.516 77.9922C343.746 77.9922 343.953 77.9473 344.137 77.8574C344.324 77.7637 344.475 77.6348 344.588 77.4707C344.705 77.3066 344.77 77.1172 344.781 76.9023H346.111C346.104 77.3125 345.982 77.6855 345.748 78.0215C345.514 78.3574 345.203 78.625 344.816 78.8242C344.43 79.0195 344.002 79.1172 343.533 79.1172C343.049 79.1172 342.627 79.0352 342.268 78.8711C341.908 78.7031 341.609 78.4727 341.371 78.1797C341.133 77.8867 340.953 77.5488 340.832 77.166C340.715 76.7832 340.656 76.373 340.656 75.9355V75.7305C340.656 75.293 340.715 74.8828 340.832 74.5C340.953 74.1133 341.133 73.7734 341.371 73.4805C341.609 73.1875 341.908 72.959 342.268 72.7949C342.627 72.627 343.047 72.543 343.527 72.543C344.035 72.543 344.48 72.6445 344.863 72.8477C345.246 73.0469 345.547 73.3262 345.766 73.6855C345.988 74.041 346.104 74.4551 346.111 74.9277H344.781C344.77 74.6934 344.711 74.4824 344.605 74.2949C344.504 74.1035 344.359 73.9512 344.172 73.8379C343.988 73.7246 343.768 73.668 343.51 73.668C343.225 73.668 342.988 73.7266 342.801 73.8438C342.613 73.957 342.467 74.1133 342.361 74.3125C342.256 74.5078 342.18 74.7285 342.133 74.9746C342.09 75.2168 342.068 75.4688 342.068 75.7305V75.9355C342.068 76.1973 342.09 76.4512 342.133 76.6973C342.176 76.9434 342.25 77.1641 342.355 77.3594C342.465 77.5508 342.613 77.7051 342.801 77.8223C342.988 77.9355 343.227 77.9922 343.516 77.9922ZM346.926 75.9004V75.7656C346.926 75.3086 346.992 74.8848 347.125 74.4941C347.258 74.0996 347.449 73.7578 347.699 73.4688C347.953 73.1758 348.262 72.9492 348.625 72.7891C348.992 72.625 349.406 72.543 349.867 72.543C350.332 72.543 350.746 72.625 351.109 72.7891C351.477 72.9492 351.787 73.1758 352.041 73.4688C352.295 73.7578 352.488 74.0996 352.621 74.4941C352.754 74.8848 352.82 75.3086 352.82 75.7656V75.9004C352.82 76.3574 352.754 76.7812 352.621 77.1719C352.488 77.5625 352.295 77.9043 352.041 78.1973C351.787 78.4863 351.479 78.7129 351.115 78.877C350.752 79.0371 350.34 79.1172 349.879 79.1172C349.414 79.1172 348.998 79.0371 348.631 78.877C348.268 78.7129 347.959 78.4863 347.705 78.1973C347.451 77.9043 347.258 77.5625 347.125 77.1719C346.992 76.7812 346.926 76.3574 346.926 75.9004ZM348.338 75.7656V75.9004C348.338 76.1855 348.367 76.4551 348.426 76.709C348.484 76.9629 348.576 77.1855 348.701 77.377C348.826 77.5684 348.986 77.7188 349.182 77.8281C349.377 77.9375 349.609 77.9922 349.879 77.9922C350.141 77.9922 350.367 77.9375 350.559 77.8281C350.754 77.7188 350.914 77.5684 351.039 77.377C351.164 77.1855 351.256 76.9629 351.314 76.709C351.377 76.4551 351.408 76.1855 351.408 75.9004V75.7656C351.408 75.4844 351.377 75.2188 351.314 74.9688C351.256 74.7148 351.162 74.4902 351.033 74.2949C350.908 74.0996 350.748 73.9473 350.553 73.8379C350.361 73.7246 350.133 73.668 349.867 73.668C349.602 73.668 349.371 73.7246 349.176 73.8379C348.984 73.9473 348.826 74.0996 348.701 74.2949C348.576 74.4902 348.484 74.7148 348.426 74.9688C348.367 75.2188 348.338 75.4844 348.338 75.7656ZM355.404 74.0137V79H353.992V72.6602H355.322L355.404 74.0137ZM355.152 75.5957L354.695 75.5898C354.699 75.1406 354.762 74.7285 354.883 74.3535C355.008 73.9785 355.18 73.6562 355.398 73.3867C355.621 73.1172 355.887 72.9102 356.195 72.7656C356.504 72.6172 356.848 72.543 357.227 72.543C357.531 72.543 357.807 72.5859 358.053 72.6719C358.303 72.7539 358.516 72.8887 358.691 73.0762C358.871 73.2637 359.008 73.5078 359.102 73.8086C359.195 74.1055 359.242 74.4707 359.242 74.9043V79H357.824V74.8984C357.824 74.5938 357.779 74.3535 357.689 74.1777C357.604 73.998 357.477 73.8711 357.309 73.7969C357.145 73.7188 356.939 73.6797 356.693 73.6797C356.451 73.6797 356.234 73.7305 356.043 73.832C355.852 73.9336 355.689 74.0723 355.557 74.248C355.428 74.4238 355.328 74.627 355.258 74.8574C355.188 75.0879 355.152 75.334 355.152 75.5957ZM364.551 77.6875V70H365.969V79H364.686L364.551 77.6875ZM360.426 75.9004V75.7773C360.426 75.2969 360.482 74.8594 360.596 74.4648C360.709 74.0664 360.873 73.7246 361.088 73.4395C361.303 73.1504 361.564 72.9297 361.873 72.7773C362.182 72.6211 362.529 72.543 362.916 72.543C363.299 72.543 363.635 72.6172 363.924 72.7656C364.213 72.9141 364.459 73.127 364.662 73.4043C364.865 73.6777 365.027 74.0059 365.148 74.3887C365.27 74.7676 365.355 75.1895 365.406 75.6543V76.0469C365.355 76.5 365.27 76.9141 365.148 77.2891C365.027 77.6641 364.865 77.9883 364.662 78.2617C364.459 78.5352 364.211 78.7461 363.918 78.8945C363.629 79.043 363.291 79.1172 362.904 79.1172C362.521 79.1172 362.176 79.0371 361.867 78.877C361.562 78.7168 361.303 78.4922 361.088 78.2031C360.873 77.9141 360.709 77.5742 360.596 77.1836C360.482 76.7891 360.426 76.3613 360.426 75.9004ZM361.838 75.7773V75.9004C361.838 76.1895 361.863 76.459 361.914 76.709C361.969 76.959 362.053 77.1797 362.166 77.3711C362.279 77.5586 362.426 77.707 362.605 77.8164C362.789 77.9219 363.008 77.9746 363.262 77.9746C363.582 77.9746 363.846 77.9043 364.053 77.7637C364.26 77.623 364.422 77.4336 364.539 77.1953C364.66 76.9531 364.742 76.6836 364.785 76.3867V75.3262C364.762 75.0957 364.713 74.8809 364.639 74.6816C364.568 74.4824 364.473 74.3086 364.352 74.1602C364.23 74.0078 364.08 73.8906 363.9 73.8086C363.725 73.7227 363.516 73.6797 363.273 73.6797C363.016 73.6797 362.797 73.7344 362.617 73.8438C362.438 73.9531 362.289 74.1035 362.172 74.2949C362.059 74.4863 361.975 74.709 361.92 74.9629C361.865 75.2168 361.838 75.4883 361.838 75.7773ZM371.002 77.2832C371.002 77.1426 370.967 77.0156 370.896 76.9023C370.826 76.7852 370.691 76.6797 370.492 76.5859C370.297 76.4922 370.008 76.4062 369.625 76.3281C369.289 76.2539 368.98 76.166 368.699 76.0645C368.422 75.959 368.184 75.832 367.984 75.6836C367.785 75.5352 367.631 75.3594 367.521 75.1562C367.412 74.9531 367.357 74.7188 367.357 74.4531C367.357 74.1953 367.414 73.9512 367.527 73.7207C367.641 73.4902 367.803 73.2871 368.014 73.1113C368.225 72.9355 368.48 72.7969 368.781 72.6953C369.086 72.5938 369.426 72.543 369.801 72.543C370.332 72.543 370.787 72.6328 371.166 72.8125C371.549 72.9883 371.842 73.2285 372.045 73.5332C372.248 73.834 372.35 74.1738 372.35 74.5527H370.938C370.938 74.3848 370.895 74.2285 370.809 74.084C370.727 73.9355 370.602 73.8164 370.434 73.7266C370.266 73.6328 370.055 73.5859 369.801 73.5859C369.559 73.5859 369.357 73.625 369.197 73.7031C369.041 73.7773 368.924 73.875 368.846 73.9961C368.771 74.1172 368.734 74.25 368.734 74.3945C368.734 74.5 368.754 74.5957 368.793 74.6816C368.836 74.7637 368.906 74.8398 369.004 74.9102C369.102 74.9766 369.234 75.0391 369.402 75.0977C369.574 75.1562 369.789 75.2129 370.047 75.2676C370.531 75.3691 370.947 75.5 371.295 75.6602C371.646 75.8164 371.916 76.0195 372.104 76.2695C372.291 76.5156 372.385 76.8281 372.385 77.207C372.385 77.4883 372.324 77.7461 372.203 77.9805C372.086 78.2109 371.914 78.4121 371.688 78.584C371.461 78.752 371.189 78.8828 370.873 78.9766C370.561 79.0703 370.209 79.1172 369.818 79.1172C369.244 79.1172 368.758 79.0156 368.359 78.8125C367.961 78.6055 367.658 78.3418 367.451 78.0215C367.248 77.6973 367.146 77.3613 367.146 77.0137H368.512C368.527 77.2754 368.6 77.4844 368.729 77.6406C368.861 77.793 369.025 77.9043 369.221 77.9746C369.42 78.041 369.625 78.0742 369.836 78.0742C370.09 78.0742 370.303 78.041 370.475 77.9746C370.646 77.9043 370.777 77.8105 370.867 77.6934C370.957 77.5723 371.002 77.4355 371.002 77.2832Z" fill="#D2D5EE"/>
<rect x="314" y="19" width="72" height="72" rx="8" stroke="#41495B" stroke-width="2"/>
</svg>
