<svg width="430" height="110" viewBox="0 0 430 110" fill="none" xmlns="http://www.w3.org/2000/svg">
<rect x="82.5" y="19" width="36" height="45" rx="9" fill="#41495B"/>
<path d="M107.013 39.5488V43.0352C107.013 44.7051 106.847 46.1309 106.515 47.3125C106.192 48.4844 105.724 49.4365 105.108 50.1689C104.493 50.9014 103.756 51.4385 102.896 51.7803C102.047 52.1221 101.095 52.293 100.04 52.293C99.2002 52.293 98.4189 52.1855 97.6963 51.9707C96.9834 51.7559 96.3389 51.4189 95.7627 50.96C95.1865 50.501 94.6934 49.9102 94.2832 49.1875C93.8828 48.4551 93.5703 47.5811 93.3457 46.5654C93.1309 45.5498 93.0234 44.373 93.0234 43.0352V39.5488C93.0234 37.8691 93.1895 36.4531 93.5215 35.3008C93.8535 34.1387 94.3271 33.1963 94.9424 32.4736C95.5576 31.7412 96.29 31.209 97.1396 30.877C97.999 30.5449 98.9561 30.3789 100.011 30.3789C100.86 30.3789 101.642 30.4863 102.354 30.7012C103.077 30.9062 103.722 31.2334 104.288 31.6826C104.864 32.1318 105.353 32.7178 105.753 33.4404C106.163 34.1533 106.476 35.0176 106.69 36.0332C106.905 37.0391 107.013 38.2109 107.013 39.5488ZM103.482 43.5332V39.0215C103.482 38.1719 103.434 37.4248 103.336 36.7803C103.238 36.126 103.092 35.5742 102.896 35.125C102.711 34.666 102.477 34.2949 102.193 34.0117C101.91 33.7188 101.588 33.5088 101.227 33.3818C100.865 33.2451 100.46 33.1768 100.011 33.1768C99.4639 33.1768 98.9756 33.2842 98.5459 33.499C98.1162 33.7041 97.7549 34.0361 97.4619 34.4951C97.1689 34.9541 96.9443 35.5596 96.7881 36.3115C96.6416 37.0537 96.5684 37.957 96.5684 39.0215V43.5332C96.5684 44.3926 96.6172 45.1494 96.7148 45.8037C96.8125 46.458 96.959 47.0195 97.1543 47.4883C97.3496 47.9473 97.584 48.3281 97.8574 48.6309C98.1406 48.9238 98.4629 49.1387 98.8242 49.2754C99.1953 49.4121 99.6006 49.4805 100.04 49.4805C100.597 49.4805 101.09 49.373 101.52 49.1582C101.949 48.9434 102.311 48.6016 102.604 48.1328C102.896 47.6543 103.116 47.0342 103.263 46.2725C103.409 45.5107 103.482 44.5977 103.482 43.5332Z" fill="white"/>
<rect x="121.5" y="19" width="36" height="45" rx="9" fill="#41495B"/>
<path d="M146.804 44.3975V47.21H131.423L131.306 45.0859L140.505 30.6719H143.332L140.271 35.916L134.982 44.3975H146.804ZM144.138 30.6719V52H140.607V30.6719H144.138Z" fill="white"/>
<path d="M107.703 80.9209V82.0708H101.932V80.9209H107.703ZM102.151 76.3359V87H100.738V76.3359H102.151ZM108.934 76.3359V87H107.527V76.3359H108.934ZM110.882 83.1255V82.957C110.882 82.3857 110.965 81.856 111.131 81.3677C111.297 80.8745 111.536 80.4473 111.849 80.0859C112.161 79.7197 112.54 79.4365 112.984 79.2363C113.428 79.0312 113.926 78.9287 114.478 78.9287C115.035 78.9287 115.535 79.0312 115.979 79.2363C116.429 79.4365 116.81 79.7197 117.122 80.0859C117.439 80.4473 117.681 80.8745 117.847 81.3677C118.013 81.856 118.096 82.3857 118.096 82.957V83.1255C118.096 83.6968 118.013 84.2266 117.847 84.7148C117.681 85.2031 117.439 85.6304 117.122 85.9966C116.81 86.3579 116.431 86.6411 115.987 86.8462C115.547 87.0464 115.049 87.1465 114.493 87.1465C113.936 87.1465 113.436 87.0464 112.991 86.8462C112.547 86.6411 112.166 86.3579 111.849 85.9966C111.536 85.6304 111.297 85.2031 111.131 84.7148C110.965 84.2266 110.882 83.6968 110.882 83.1255ZM112.237 82.957V83.1255C112.237 83.521 112.283 83.8945 112.376 84.2461C112.469 84.5928 112.608 84.9004 112.793 85.1689C112.984 85.4375 113.221 85.6499 113.504 85.8062C113.787 85.9575 114.117 86.0332 114.493 86.0332C114.864 86.0332 115.188 85.9575 115.467 85.8062C115.75 85.6499 115.984 85.4375 116.17 85.1689C116.355 84.9004 116.495 84.5928 116.587 84.2461C116.685 83.8945 116.734 83.521 116.734 83.1255V82.957C116.734 82.5664 116.685 82.1978 116.587 81.8511C116.495 81.4995 116.353 81.1895 116.163 80.9209C115.977 80.6475 115.743 80.4326 115.459 80.2764C115.181 80.1201 114.854 80.042 114.478 80.042C114.107 80.042 113.78 80.1201 113.497 80.2764C113.218 80.4326 112.984 80.6475 112.793 80.9209C112.608 81.1895 112.469 81.4995 112.376 81.8511C112.283 82.1978 112.237 82.5664 112.237 82.957ZM124.644 85.1689V79.0752H126.006V87H124.71L124.644 85.1689ZM124.9 83.499L125.464 83.4844C125.464 84.0117 125.408 84.5 125.296 84.9492C125.188 85.3936 125.013 85.7793 124.769 86.1064C124.524 86.4336 124.205 86.6899 123.809 86.8755C123.414 87.0562 122.933 87.1465 122.366 87.1465C121.98 87.1465 121.626 87.0903 121.304 86.978C120.987 86.8657 120.713 86.6924 120.484 86.458C120.254 86.2236 120.076 85.9185 119.949 85.5425C119.827 85.1665 119.766 84.7148 119.766 84.1875V79.0752H121.121V84.2021C121.121 84.5586 121.16 84.854 121.238 85.0884C121.321 85.3179 121.431 85.501 121.568 85.6377C121.709 85.7695 121.866 85.8623 122.037 85.916C122.212 85.9697 122.393 85.9966 122.579 85.9966C123.155 85.9966 123.611 85.8867 123.948 85.667C124.285 85.4424 124.527 85.1421 124.673 84.7661C124.825 84.3853 124.9 83.9629 124.9 83.499ZM129.427 80.3203V87H128.072V79.0752H129.39L129.427 80.3203ZM131.902 79.0312L131.895 80.291C131.783 80.2666 131.675 80.252 131.573 80.2471C131.475 80.2373 131.363 80.2324 131.236 80.2324C130.923 80.2324 130.647 80.2812 130.408 80.3789C130.169 80.4766 129.966 80.6133 129.8 80.7891C129.634 80.9648 129.502 81.1748 129.405 81.4189C129.312 81.6582 129.251 81.9219 129.222 82.21L128.841 82.4297C128.841 81.9512 128.887 81.502 128.98 81.082C129.078 80.6621 129.227 80.291 129.427 79.9688C129.627 79.6416 129.881 79.3877 130.188 79.207C130.501 79.0215 130.872 78.9287 131.302 78.9287C131.399 78.9287 131.512 78.9409 131.639 78.9653C131.766 78.9849 131.854 79.0068 131.902 79.0312ZM137.769 84.8979C137.769 84.7026 137.725 84.522 137.637 84.356C137.554 84.1851 137.381 84.0312 137.117 83.8945C136.858 83.7529 136.468 83.6309 135.945 83.5283C135.506 83.4355 135.108 83.3257 134.751 83.1987C134.4 83.0718 134.1 82.918 133.851 82.7373C133.606 82.5566 133.418 82.3442 133.287 82.1001C133.155 81.856 133.089 81.5703 133.089 81.2432C133.089 80.9307 133.157 80.6353 133.294 80.3569C133.436 80.0786 133.633 79.832 133.887 79.6172C134.146 79.4023 134.456 79.2339 134.817 79.1118C135.179 78.9897 135.582 78.9287 136.026 78.9287C136.661 78.9287 137.203 79.041 137.652 79.2656C138.101 79.4902 138.445 79.7905 138.685 80.1665C138.924 80.5376 139.043 80.9502 139.043 81.4043H137.688C137.688 81.1846 137.623 80.9722 137.491 80.7671C137.364 80.5571 137.176 80.3838 136.927 80.2471C136.683 80.1104 136.382 80.042 136.026 80.042C135.65 80.042 135.345 80.1006 135.11 80.2178C134.881 80.3301 134.712 80.4741 134.605 80.6499C134.502 80.8257 134.451 81.0112 134.451 81.2065C134.451 81.353 134.476 81.4849 134.524 81.6021C134.578 81.7144 134.671 81.8193 134.803 81.917C134.935 82.0098 135.12 82.0977 135.359 82.1807C135.599 82.2637 135.904 82.3467 136.275 82.4297C136.924 82.5762 137.459 82.752 137.879 82.957C138.299 83.1621 138.611 83.4136 138.816 83.7114C139.021 84.0093 139.124 84.3706 139.124 84.7954C139.124 85.1421 139.051 85.4595 138.904 85.7476C138.763 86.0356 138.555 86.2847 138.282 86.4946C138.013 86.6997 137.691 86.8608 137.315 86.978C136.944 87.0903 136.526 87.1465 136.062 87.1465C135.364 87.1465 134.773 87.022 134.29 86.7729C133.807 86.5239 133.44 86.2017 133.191 85.8062C132.942 85.4106 132.818 84.9932 132.818 84.5537H134.18C134.2 84.9248 134.307 85.2202 134.502 85.4399C134.698 85.6548 134.937 85.8086 135.22 85.9014C135.503 85.9893 135.784 86.0332 136.062 86.0332C136.434 86.0332 136.744 85.9844 136.993 85.8867C137.247 85.7891 137.439 85.6548 137.571 85.4839C137.703 85.313 137.769 85.1177 137.769 84.8979Z" fill="#41495B"/>
<path d="M165.36 50.2422C165.36 49.6953 165.546 49.2363 165.917 48.8652C166.288 48.4844 166.791 48.2939 167.426 48.2939C168.07 48.2939 168.573 48.4844 168.935 48.8652C169.306 49.2363 169.491 49.6953 169.491 50.2422C169.491 50.7891 169.306 51.248 168.935 51.6191C168.573 51.9902 168.07 52.1758 167.426 52.1758C166.791 52.1758 166.288 51.9902 165.917 51.6191C165.546 51.248 165.36 50.7891 165.36 50.2422ZM165.375 37.7617C165.375 37.2148 165.561 36.7559 165.932 36.3848C166.303 36.0039 166.806 35.8135 167.44 35.8135C168.085 35.8135 168.588 36.0039 168.949 36.3848C169.32 36.7559 169.506 37.2148 169.506 37.7617C169.506 38.3086 169.32 38.7676 168.949 39.1387C168.588 39.5098 168.085 39.6953 167.44 39.6953C166.806 39.6953 166.303 39.5098 165.932 39.1387C165.561 38.7676 165.375 38.3086 165.375 37.7617Z" fill="black"/>
<rect x="177.5" y="19" width="36" height="45" rx="9" fill="#41495B"/>
<path d="M191.817 42.083L189.005 41.3945L190.162 30.6719H201.661V33.6602H193.092L192.506 38.8896C192.838 38.6943 193.297 38.5039 193.883 38.3184C194.469 38.123 195.138 38.0254 195.89 38.0254C196.896 38.0254 197.794 38.1914 198.585 38.5234C199.386 38.8457 200.064 39.3193 200.621 39.9443C201.178 40.5596 201.603 41.3115 201.896 42.2002C202.188 43.0791 202.335 44.0703 202.335 45.1738C202.335 46.1602 202.188 47.083 201.896 47.9424C201.612 48.8018 201.183 49.5586 200.606 50.2129C200.03 50.8672 199.303 51.3799 198.424 51.751C197.555 52.1123 196.524 52.293 195.333 52.293C194.444 52.293 193.59 52.166 192.77 51.9121C191.959 51.6484 191.231 51.2627 190.587 50.7549C189.942 50.2373 189.425 49.6025 189.034 48.8506C188.644 48.0889 188.419 47.2148 188.36 46.2285H191.817C191.905 46.9219 192.096 47.5127 192.389 48.001C192.691 48.4795 193.092 48.8457 193.59 49.0996C194.088 49.3535 194.664 49.4805 195.318 49.4805C195.914 49.4805 196.427 49.3779 196.856 49.1729C197.286 48.958 197.643 48.6553 197.926 48.2646C198.219 47.8643 198.434 47.3955 198.57 46.8584C198.717 46.3213 198.79 45.7256 198.79 45.0713C198.79 44.4463 198.707 43.875 198.541 43.3574C198.385 42.8398 198.146 42.3906 197.823 42.0098C197.511 41.6289 197.115 41.3359 196.637 41.1309C196.158 40.916 195.606 40.8086 194.981 40.8086C194.142 40.8086 193.497 40.9307 193.048 41.1748C192.608 41.4189 192.198 41.7217 191.817 42.083Z" fill="white"/>
<rect x="216.5" y="19" width="36" height="45" rx="9" fill="#41495B"/>
<path d="M237.775 30.54H238.215V33.4258H237.966C236.706 33.4258 235.617 33.6211 234.699 34.0117C233.791 34.4023 233.044 34.9395 232.458 35.623C231.872 36.3066 231.433 37.1074 231.14 38.0254C230.856 38.9336 230.715 39.9004 230.715 40.9258V44.2803C230.715 45.1299 230.808 45.8818 230.993 46.5361C231.179 47.1807 231.438 47.7227 231.77 48.1621C232.111 48.5918 232.502 48.9189 232.941 49.1436C233.381 49.3682 233.854 49.4805 234.362 49.4805C234.89 49.4805 235.368 49.373 235.798 49.1582C236.228 48.9336 236.594 48.626 236.896 48.2354C237.199 47.8447 237.429 47.3809 237.585 46.8438C237.741 46.3066 237.819 45.7207 237.819 45.0859C237.819 44.4805 237.741 43.9141 237.585 43.3867C237.438 42.8496 237.219 42.3809 236.926 41.9805C236.633 41.5703 236.267 41.2529 235.827 41.0283C235.397 40.7939 234.899 40.6768 234.333 40.6768C233.63 40.6768 232.99 40.8428 232.414 41.1748C231.848 41.5068 231.389 41.9414 231.037 42.4785C230.695 43.0059 230.51 43.5674 230.48 44.1631L229.133 43.7236C229.211 42.8154 229.411 42 229.733 41.2773C230.065 40.5547 230.5 39.9395 231.037 39.4316C231.574 38.9238 232.194 38.5381 232.897 38.2744C233.61 38.001 234.392 37.8643 235.241 37.8643C236.276 37.8643 237.175 38.0596 237.937 38.4502C238.698 38.8408 239.328 39.373 239.826 40.0469C240.334 40.7109 240.71 41.4727 240.954 42.332C241.208 43.1816 241.335 44.0703 241.335 44.998C241.335 46.0234 241.179 46.9805 240.866 47.8691C240.554 48.748 240.095 49.5195 239.489 50.1836C238.894 50.8477 238.166 51.3652 237.307 51.7363C236.457 52.1074 235.49 52.293 234.406 52.293C233.264 52.293 232.243 52.0732 231.345 51.6338C230.456 51.1943 229.699 50.5889 229.074 49.8174C228.459 49.0459 227.99 48.1572 227.668 47.1514C227.346 46.1455 227.185 45.0811 227.185 43.958V42.4932C227.185 40.8721 227.39 39.3438 227.8 37.9082C228.21 36.4629 228.84 35.1885 229.689 34.085C230.549 32.9814 231.647 32.1172 232.985 31.4922C234.323 30.8574 235.92 30.54 237.775 30.54Z" fill="white"/>
<path d="M189.685 76.3359H191.054L194.548 85.0298L198.034 76.3359H199.411L195.075 87H194.006L189.685 76.3359ZM189.238 76.3359H190.446L190.644 82.8398V87H189.238V76.3359ZM198.642 76.3359H199.851V87H198.444V82.8398L198.642 76.3359ZM203.601 79.0752V87H202.238V79.0752H203.601ZM202.136 76.9731C202.136 76.7534 202.202 76.5679 202.333 76.4165C202.47 76.2651 202.67 76.1895 202.934 76.1895C203.193 76.1895 203.391 76.2651 203.527 76.4165C203.669 76.5679 203.74 76.7534 203.74 76.9731C203.74 77.1831 203.669 77.3638 203.527 77.5151C203.391 77.6616 203.193 77.7349 202.934 77.7349C202.67 77.7349 202.47 77.6616 202.333 77.5151C202.202 77.3638 202.136 77.1831 202.136 76.9731ZM207.131 80.7671V87H205.776V79.0752H207.058L207.131 80.7671ZM206.809 82.7373L206.245 82.7153C206.25 82.1733 206.33 81.6729 206.486 81.2139C206.643 80.75 206.862 80.3472 207.146 80.0054C207.429 79.6636 207.766 79.3999 208.156 79.2144C208.552 79.0239 208.989 78.9287 209.467 78.9287C209.858 78.9287 210.209 78.9824 210.522 79.0898C210.834 79.1924 211.101 79.3584 211.32 79.5879C211.545 79.8174 211.716 80.1152 211.833 80.4814C211.95 80.8428 212.009 81.2847 212.009 81.8071V87H210.646V81.7925C210.646 81.3774 210.585 81.0454 210.463 80.7964C210.341 80.5425 210.163 80.3594 209.929 80.2471C209.694 80.1299 209.406 80.0713 209.064 80.0713C208.728 80.0713 208.42 80.1421 208.142 80.2837C207.868 80.4253 207.631 80.6206 207.431 80.8696C207.236 81.1187 207.082 81.4043 206.97 81.7266C206.862 82.0439 206.809 82.3809 206.809 82.7373ZM218.916 85.1689V79.0752H220.278V87H218.981L218.916 85.1689ZM219.172 83.499L219.736 83.4844C219.736 84.0117 219.68 84.5 219.567 84.9492C219.46 85.3936 219.284 85.7793 219.04 86.1064C218.796 86.4336 218.476 86.6899 218.081 86.8755C217.685 87.0562 217.204 87.1465 216.638 87.1465C216.252 87.1465 215.898 87.0903 215.576 86.978C215.258 86.8657 214.985 86.6924 214.755 86.458C214.526 86.2236 214.348 85.9185 214.221 85.5425C214.099 85.1665 214.038 84.7148 214.038 84.1875V79.0752H215.393V84.2021C215.393 84.5586 215.432 84.854 215.51 85.0884C215.593 85.3179 215.703 85.501 215.839 85.6377C215.981 85.7695 216.137 85.8623 216.308 85.916C216.484 85.9697 216.665 85.9966 216.85 85.9966C217.426 85.9966 217.883 85.8867 218.22 85.667C218.557 85.4424 218.798 85.1421 218.945 84.7661C219.096 84.3853 219.172 83.9629 219.172 83.499ZM225.661 79.0752V80.1152H221.376V79.0752H225.661ZM222.827 77.1489H224.182V85.0371C224.182 85.3057 224.223 85.5083 224.306 85.645C224.389 85.7817 224.497 85.8721 224.628 85.916C224.76 85.96 224.902 85.9819 225.053 85.9819C225.166 85.9819 225.283 85.9722 225.405 85.9526C225.532 85.9282 225.627 85.9087 225.69 85.894L225.698 87C225.59 87.0342 225.449 87.0659 225.273 87.0952C225.102 87.1294 224.895 87.1465 224.65 87.1465C224.318 87.1465 224.013 87.0806 223.735 86.9487C223.457 86.8169 223.234 86.5972 223.068 86.2896C222.907 85.9771 222.827 85.5571 222.827 85.0298V77.1489ZM230.539 87.1465C229.987 87.1465 229.487 87.0537 229.038 86.8682C228.593 86.6777 228.21 86.4116 227.888 86.0698C227.57 85.728 227.326 85.3228 227.155 84.854C226.984 84.3853 226.899 83.8726 226.899 83.3159V83.0083C226.899 82.3638 226.994 81.79 227.185 81.2871C227.375 80.7793 227.634 80.3496 227.961 79.998C228.288 79.6465 228.659 79.3804 229.074 79.1997C229.489 79.019 229.919 78.9287 230.363 78.9287C230.93 78.9287 231.418 79.0264 231.828 79.2217C232.243 79.417 232.583 79.6904 232.846 80.042C233.11 80.3887 233.305 80.7988 233.432 81.2725C233.559 81.7412 233.623 82.2539 233.623 82.8105V83.4185H227.705V82.3125H232.268V82.21C232.248 81.8584 232.175 81.5166 232.048 81.1846C231.926 80.8525 231.73 80.5791 231.462 80.3643C231.193 80.1494 230.827 80.042 230.363 80.042C230.056 80.042 229.772 80.1079 229.514 80.2397C229.255 80.3667 229.033 80.5571 228.847 80.811C228.662 81.0649 228.518 81.375 228.415 81.7412C228.312 82.1074 228.261 82.5298 228.261 83.0083V83.3159C228.261 83.6919 228.312 84.0459 228.415 84.3779C228.522 84.7051 228.676 84.9932 228.876 85.2422C229.082 85.4912 229.328 85.6865 229.616 85.8281C229.909 85.9697 230.241 86.0405 230.612 86.0405C231.091 86.0405 231.496 85.9429 231.828 85.7476C232.16 85.5522 232.451 85.291 232.7 84.9639L233.52 85.6157C233.349 85.8745 233.132 86.1211 232.868 86.3555C232.604 86.5898 232.28 86.7803 231.894 86.9268C231.513 87.0732 231.062 87.1465 230.539 87.1465ZM239.819 84.8979C239.819 84.7026 239.775 84.522 239.687 84.356C239.604 84.1851 239.431 84.0312 239.167 83.8945C238.908 83.7529 238.518 83.6309 237.995 83.5283C237.556 83.4355 237.158 83.3257 236.801 83.1987C236.45 83.0718 236.149 82.918 235.9 82.7373C235.656 82.5566 235.468 82.3442 235.336 82.1001C235.205 81.856 235.139 81.5703 235.139 81.2432C235.139 80.9307 235.207 80.6353 235.344 80.3569C235.485 80.0786 235.683 79.832 235.937 79.6172C236.196 79.4023 236.506 79.2339 236.867 79.1118C237.229 78.9897 237.631 78.9287 238.076 78.9287C238.71 78.9287 239.252 79.041 239.702 79.2656C240.151 79.4902 240.495 79.7905 240.734 80.1665C240.974 80.5376 241.093 80.9502 241.093 81.4043H239.738C239.738 81.1846 239.672 80.9722 239.541 80.7671C239.414 80.5571 239.226 80.3838 238.977 80.2471C238.732 80.1104 238.432 80.042 238.076 80.042C237.7 80.042 237.395 80.1006 237.16 80.2178C236.931 80.3301 236.762 80.4741 236.655 80.6499C236.552 80.8257 236.501 81.0112 236.501 81.2065C236.501 81.353 236.525 81.4849 236.574 81.6021C236.628 81.7144 236.721 81.8193 236.853 81.917C236.984 82.0098 237.17 82.0977 237.409 82.1807C237.648 82.2637 237.954 82.3467 238.325 82.4297C238.974 82.5762 239.509 82.752 239.929 82.957C240.349 83.1621 240.661 83.4136 240.866 83.7114C241.071 84.0093 241.174 84.3706 241.174 84.7954C241.174 85.1421 241.101 85.4595 240.954 85.7476C240.812 86.0356 240.605 86.2847 240.332 86.4946C240.063 86.6997 239.741 86.8608 239.365 86.978C238.994 87.0903 238.576 87.1465 238.112 87.1465C237.414 87.1465 236.823 87.022 236.34 86.7729C235.856 86.5239 235.49 86.2017 235.241 85.8062C234.992 85.4106 234.868 84.9932 234.868 84.5537H236.23C236.25 84.9248 236.357 85.2202 236.552 85.4399C236.748 85.6548 236.987 85.8086 237.27 85.9014C237.553 85.9893 237.834 86.0332 238.112 86.0332C238.483 86.0332 238.793 85.9844 239.042 85.8867C239.296 85.7891 239.489 85.6548 239.621 85.4839C239.753 85.313 239.819 85.1177 239.819 84.8979Z" fill="#41495B"/>
<path d="M260.36 50.2422C260.36 49.6953 260.546 49.2363 260.917 48.8652C261.288 48.4844 261.791 48.2939 262.426 48.2939C263.07 48.2939 263.573 48.4844 263.935 48.8652C264.306 49.2363 264.491 49.6953 264.491 50.2422C264.491 50.7891 264.306 51.248 263.935 51.6191C263.573 51.9902 263.07 52.1758 262.426 52.1758C261.791 52.1758 261.288 51.9902 260.917 51.6191C260.546 51.248 260.36 50.7891 260.36 50.2422ZM260.375 37.7617C260.375 37.2148 260.561 36.7559 260.932 36.3848C261.303 36.0039 261.806 35.8135 262.44 35.8135C263.085 35.8135 263.588 36.0039 263.949 36.3848C264.32 36.7559 264.506 37.2148 264.506 37.7617C264.506 38.3086 264.32 38.7676 263.949 39.1387C263.588 39.5098 263.085 39.6953 262.44 39.6953C261.806 39.6953 261.303 39.5098 260.932 39.1387C260.561 38.7676 260.375 38.3086 260.375 37.7617Z" fill="black"/>
<rect x="272.5" y="19" width="36" height="45" rx="9" fill="#41495B"/>
<path d="M287.257 39.7393H289.366C290.187 39.7393 290.865 39.5977 291.402 39.3145C291.949 39.0312 292.354 38.6406 292.618 38.1426C292.882 37.6445 293.014 37.0732 293.014 36.4287C293.014 35.7549 292.892 35.1787 292.647 34.7002C292.413 34.2119 292.052 33.8359 291.563 33.5723C291.085 33.3086 290.475 33.1768 289.732 33.1768C289.107 33.1768 288.541 33.3037 288.033 33.5576C287.535 33.8018 287.14 34.1533 286.847 34.6123C286.554 35.0615 286.407 35.5986 286.407 36.2236H282.862C282.862 35.0908 283.16 34.085 283.756 33.2061C284.352 32.3271 285.162 31.6387 286.188 31.1406C287.223 30.6328 288.385 30.3789 289.674 30.3789C291.051 30.3789 292.252 30.6084 293.277 31.0674C294.312 31.5166 295.118 32.1904 295.694 33.0889C296.271 33.9873 296.559 35.1006 296.559 36.4287C296.559 37.0342 296.417 37.6494 296.134 38.2744C295.851 38.8994 295.431 39.4707 294.874 39.9883C294.317 40.4961 293.624 40.9111 292.794 41.2334C291.964 41.5459 291.002 41.7021 289.908 41.7021H287.257V39.7393ZM287.257 42.4932V40.5596H289.908C291.158 40.5596 292.223 40.7061 293.102 40.999C293.99 41.292 294.713 41.6973 295.27 42.2148C295.826 42.7227 296.231 43.3037 296.485 43.958C296.749 44.6123 296.881 45.3057 296.881 46.0381C296.881 47.0342 296.7 47.9229 296.339 48.7041C295.987 49.4756 295.484 50.1299 294.83 50.667C294.176 51.2041 293.409 51.6094 292.53 51.8828C291.661 52.1562 290.714 52.293 289.688 52.293C288.771 52.293 287.892 52.166 287.052 51.9121C286.212 51.6582 285.46 51.2822 284.796 50.7842C284.132 50.2764 283.604 49.6465 283.214 48.8945C282.833 48.1328 282.643 47.2539 282.643 46.2578H286.173C286.173 46.8926 286.319 47.4541 286.612 47.9424C286.915 48.4209 287.335 48.7969 287.872 49.0703C288.419 49.3438 289.044 49.4805 289.747 49.4805C290.489 49.4805 291.129 49.3486 291.666 49.085C292.203 48.8213 292.613 48.4307 292.896 47.9131C293.189 47.3955 293.336 46.7705 293.336 46.0381C293.336 45.208 293.175 44.5342 292.853 44.0166C292.53 43.499 292.071 43.1182 291.476 42.874C290.88 42.6201 290.177 42.4932 289.366 42.4932H287.257Z" fill="white"/>
<rect x="311.5" y="19" width="36" height="45" rx="9" fill="#41495B"/>
<path d="M336.276 30.6719V32.6055L327.751 52H324.03L332.541 33.4844H321.496V30.6719H336.276Z" fill="white"/>
<path d="M287.921 84.3047C287.921 84.0557 287.882 83.8359 287.804 83.6455C287.731 83.4502 287.599 83.2744 287.409 83.1182C287.223 82.9619 286.964 82.813 286.632 82.6714C286.305 82.5298 285.89 82.3857 285.387 82.2393C284.86 82.083 284.384 81.9097 283.959 81.7192C283.534 81.5239 283.17 81.3018 282.868 81.0527C282.565 80.8037 282.333 80.5181 282.172 80.1958C282.011 79.8735 281.93 79.5049 281.93 79.0898C281.93 78.6748 282.016 78.2915 282.187 77.9399C282.357 77.5884 282.602 77.2832 282.919 77.0244C283.241 76.7607 283.625 76.5557 284.069 76.4092C284.513 76.2627 285.009 76.1895 285.556 76.1895C286.356 76.1895 287.035 76.3433 287.592 76.6509C288.153 76.9536 288.581 77.3516 288.874 77.8447C289.167 78.333 289.313 78.8555 289.313 79.4121H287.907C287.907 79.0117 287.821 78.6577 287.65 78.3501C287.479 78.0376 287.221 77.7935 286.874 77.6177C286.527 77.437 286.088 77.3467 285.556 77.3467C285.053 77.3467 284.638 77.4224 284.311 77.5737C283.983 77.7251 283.739 77.9302 283.578 78.189C283.422 78.4478 283.344 78.7432 283.344 79.0752C283.344 79.2998 283.39 79.5049 283.483 79.6904C283.581 79.8711 283.729 80.0396 283.93 80.1958C284.135 80.3521 284.394 80.4961 284.706 80.6279C285.023 80.7598 285.402 80.8867 285.841 81.0088C286.447 81.1797 286.969 81.3701 287.409 81.5801C287.848 81.79 288.209 82.0269 288.493 82.2905C288.781 82.5493 288.993 82.8447 289.13 83.1768C289.271 83.5039 289.342 83.875 289.342 84.29C289.342 84.7246 289.254 85.1177 289.079 85.4692C288.903 85.8208 288.651 86.1211 288.324 86.3701C287.997 86.6191 287.604 86.812 287.145 86.9487C286.691 87.0806 286.183 87.1465 285.622 87.1465C285.128 87.1465 284.643 87.0781 284.164 86.9414C283.69 86.8047 283.258 86.5996 282.868 86.3262C282.482 86.0527 282.172 85.7158 281.938 85.3154C281.708 84.9102 281.593 84.4414 281.593 83.9092H283C283 84.2754 283.07 84.5903 283.212 84.854C283.354 85.1128 283.546 85.3276 283.791 85.4985C284.04 85.6694 284.32 85.7964 284.633 85.8794C284.95 85.9575 285.28 85.9966 285.622 85.9966C286.115 85.9966 286.532 85.9282 286.874 85.7915C287.216 85.6548 287.475 85.4595 287.65 85.2056C287.831 84.9517 287.921 84.6514 287.921 84.3047ZM294.228 87.1465C293.676 87.1465 293.175 87.0537 292.726 86.8682C292.282 86.6777 291.898 86.4116 291.576 86.0698C291.259 85.728 291.015 85.3228 290.844 84.854C290.673 84.3853 290.587 83.8726 290.587 83.3159V83.0083C290.587 82.3638 290.683 81.79 290.873 81.2871C291.063 80.7793 291.322 80.3496 291.649 79.998C291.977 79.6465 292.348 79.3804 292.763 79.1997C293.178 79.019 293.607 78.9287 294.052 78.9287C294.618 78.9287 295.106 79.0264 295.517 79.2217C295.932 79.417 296.271 79.6904 296.535 80.042C296.798 80.3887 296.994 80.7988 297.121 81.2725C297.248 81.7412 297.311 82.2539 297.311 82.8105V83.4185H291.393V82.3125H295.956V82.21C295.937 81.8584 295.863 81.5166 295.736 81.1846C295.614 80.8525 295.419 80.5791 295.15 80.3643C294.882 80.1494 294.516 80.042 294.052 80.042C293.744 80.042 293.461 80.1079 293.202 80.2397C292.943 80.3667 292.721 80.5571 292.536 80.811C292.35 81.0649 292.206 81.375 292.104 81.7412C292.001 82.1074 291.95 82.5298 291.95 83.0083V83.3159C291.95 83.6919 292.001 84.0459 292.104 84.3779C292.211 84.7051 292.365 84.9932 292.565 85.2422C292.77 85.4912 293.017 85.6865 293.305 85.8281C293.598 85.9697 293.93 86.0405 294.301 86.0405C294.779 86.0405 295.185 85.9429 295.517 85.7476C295.849 85.5522 296.139 85.291 296.388 84.9639L297.208 85.6157C297.038 85.8745 296.82 86.1211 296.557 86.3555C296.293 86.5898 295.968 86.7803 295.583 86.9268C295.202 87.0732 294.75 87.1465 294.228 87.1465ZM302.064 86.0332C302.387 86.0332 302.685 85.9673 302.958 85.8354C303.231 85.7036 303.456 85.5229 303.632 85.2935C303.808 85.0591 303.908 84.793 303.932 84.4951H305.221C305.197 84.9639 305.038 85.4009 304.745 85.8062C304.457 86.2065 304.079 86.5312 303.61 86.7803C303.141 87.0244 302.626 87.1465 302.064 87.1465C301.469 87.1465 300.949 87.0415 300.504 86.8315C300.065 86.6216 299.699 86.3335 299.406 85.9673C299.118 85.6011 298.9 85.1812 298.754 84.7075C298.612 84.229 298.542 83.7236 298.542 83.1914V82.8838C298.542 82.3516 298.612 81.8486 298.754 81.375C298.9 80.8965 299.118 80.4741 299.406 80.1079C299.699 79.7417 300.065 79.4536 300.504 79.2437C300.949 79.0337 301.469 78.9287 302.064 78.9287C302.685 78.9287 303.227 79.0557 303.69 79.3096C304.154 79.5586 304.518 79.9004 304.782 80.335C305.05 80.7646 305.197 81.2529 305.221 81.7998H303.932C303.908 81.4727 303.815 81.1772 303.654 80.9136C303.498 80.6499 303.283 80.4399 303.009 80.2837C302.741 80.1226 302.426 80.042 302.064 80.042C301.649 80.042 301.3 80.125 301.017 80.291C300.739 80.4521 300.517 80.6719 300.351 80.9502C300.189 81.2236 300.072 81.5288 299.999 81.8657C299.931 82.1978 299.896 82.5371 299.896 82.8838V83.1914C299.896 83.5381 299.931 83.8799 299.999 84.2168C300.067 84.5537 300.182 84.8589 300.343 85.1323C300.509 85.4058 300.731 85.6255 301.01 85.7915C301.293 85.9526 301.645 86.0332 302.064 86.0332ZM306.386 83.1255V82.957C306.386 82.3857 306.469 81.856 306.635 81.3677C306.801 80.8745 307.04 80.4473 307.353 80.0859C307.665 79.7197 308.043 79.4365 308.488 79.2363C308.932 79.0312 309.43 78.9287 309.982 78.9287C310.539 78.9287 311.039 79.0312 311.483 79.2363C311.933 79.4365 312.313 79.7197 312.626 80.0859C312.943 80.4473 313.185 80.8745 313.351 81.3677C313.517 81.856 313.6 82.3857 313.6 82.957V83.1255C313.6 83.6968 313.517 84.2266 313.351 84.7148C313.185 85.2031 312.943 85.6304 312.626 85.9966C312.313 86.3579 311.935 86.6411 311.491 86.8462C311.051 87.0464 310.553 87.1465 309.997 87.1465C309.44 87.1465 308.939 87.0464 308.495 86.8462C308.051 86.6411 307.67 86.3579 307.353 85.9966C307.04 85.6304 306.801 85.2031 306.635 84.7148C306.469 84.2266 306.386 83.6968 306.386 83.1255ZM307.741 82.957V83.1255C307.741 83.521 307.787 83.8945 307.88 84.2461C307.973 84.5928 308.112 84.9004 308.297 85.1689C308.488 85.4375 308.725 85.6499 309.008 85.8062C309.291 85.9575 309.621 86.0332 309.997 86.0332C310.368 86.0332 310.692 85.9575 310.971 85.8062C311.254 85.6499 311.488 85.4375 311.674 85.1689C311.859 84.9004 311.999 84.5928 312.091 84.2461C312.189 83.8945 312.238 83.521 312.238 83.1255V82.957C312.238 82.5664 312.189 82.1978 312.091 81.8511C311.999 81.4995 311.857 81.1895 311.667 80.9209C311.481 80.6475 311.247 80.4326 310.963 80.2764C310.685 80.1201 310.358 80.042 309.982 80.042C309.611 80.042 309.284 80.1201 309 80.2764C308.722 80.4326 308.488 80.6475 308.297 80.9209C308.112 81.1895 307.973 81.4995 307.88 81.8511C307.787 82.1978 307.741 82.5664 307.741 82.957ZM316.654 80.7671V87H315.299V79.0752H316.581L316.654 80.7671ZM316.332 82.7373L315.768 82.7153C315.773 82.1733 315.854 81.6729 316.01 81.2139C316.166 80.75 316.386 80.3472 316.669 80.0054C316.952 79.6636 317.289 79.3999 317.68 79.2144C318.075 79.0239 318.512 78.9287 318.991 78.9287C319.381 78.9287 319.733 78.9824 320.045 79.0898C320.358 79.1924 320.624 79.3584 320.844 79.5879C321.068 79.8174 321.239 80.1152 321.356 80.4814C321.474 80.8428 321.532 81.2847 321.532 81.8071V87H320.17V81.7925C320.17 81.3774 320.109 81.0454 319.987 80.7964C319.865 80.5425 319.687 80.3594 319.452 80.2471C319.218 80.1299 318.93 80.0713 318.588 80.0713C318.251 80.0713 317.943 80.1421 317.665 80.2837C317.392 80.4253 317.155 80.6206 316.955 80.8696C316.759 81.1187 316.605 81.4043 316.493 81.7266C316.386 82.0439 316.332 82.3809 316.332 82.7373ZM328.585 85.4619V75.75H329.948V87H328.703L328.585 85.4619ZM323.253 83.1255V82.9717C323.253 82.3662 323.327 81.8169 323.473 81.3237C323.625 80.8257 323.837 80.3984 324.11 80.042C324.389 79.6855 324.718 79.4121 325.099 79.2217C325.485 79.0264 325.915 78.9287 326.388 78.9287C326.886 78.9287 327.321 79.0166 327.692 79.1924C328.068 79.3633 328.385 79.6147 328.644 79.9468C328.908 80.2739 329.115 80.6694 329.267 81.1333C329.418 81.5972 329.523 82.1221 329.582 82.708V83.3818C329.528 83.9629 329.423 84.4854 329.267 84.9492C329.115 85.4131 328.908 85.8086 328.644 86.1357C328.385 86.4629 328.068 86.7144 327.692 86.8901C327.316 87.061 326.876 87.1465 326.374 87.1465C325.91 87.1465 325.485 87.0464 325.099 86.8462C324.718 86.646 324.389 86.3652 324.11 86.0039C323.837 85.6426 323.625 85.2178 323.473 84.7295C323.327 84.2363 323.253 83.7017 323.253 83.1255ZM324.616 82.9717V83.1255C324.616 83.521 324.655 83.8921 324.733 84.2388C324.816 84.5854 324.943 84.8906 325.114 85.1543C325.285 85.418 325.502 85.6255 325.766 85.7769C326.029 85.9233 326.344 85.9966 326.71 85.9966C327.16 85.9966 327.528 85.9014 327.816 85.7109C328.109 85.5205 328.344 85.269 328.52 84.9565C328.695 84.644 328.832 84.3047 328.93 83.9385V82.1733C328.871 81.9048 328.786 81.646 328.673 81.397C328.566 81.1431 328.424 80.9185 328.249 80.7231C328.078 80.5229 327.865 80.3643 327.611 80.2471C327.362 80.1299 327.067 80.0713 326.725 80.0713C326.354 80.0713 326.034 80.1494 325.766 80.3057C325.502 80.457 325.285 80.667 325.114 80.9355C324.943 81.1992 324.816 81.5068 324.733 81.8584C324.655 82.2051 324.616 82.5762 324.616 82.9717ZM336.671 84.8979C336.671 84.7026 336.627 84.522 336.54 84.356C336.457 84.1851 336.283 84.0312 336.02 83.8945C335.761 83.7529 335.37 83.6309 334.848 83.5283C334.408 83.4355 334.01 83.3257 333.654 83.1987C333.302 83.0718 333.002 82.918 332.753 82.7373C332.509 82.5566 332.321 82.3442 332.189 82.1001C332.057 81.856 331.991 81.5703 331.991 81.2432C331.991 80.9307 332.06 80.6353 332.196 80.3569C332.338 80.0786 332.536 79.832 332.79 79.6172C333.048 79.4023 333.358 79.2339 333.72 79.1118C334.081 78.9897 334.484 78.9287 334.928 78.9287C335.563 78.9287 336.105 79.041 336.554 79.2656C337.003 79.4902 337.348 79.7905 337.587 80.1665C337.826 80.5376 337.946 80.9502 337.946 81.4043H336.591C336.591 81.1846 336.525 80.9722 336.393 80.7671C336.266 80.5571 336.078 80.3838 335.829 80.2471C335.585 80.1104 335.285 80.042 334.928 80.042C334.552 80.042 334.247 80.1006 334.013 80.2178C333.783 80.3301 333.615 80.4741 333.507 80.6499C333.405 80.8257 333.354 81.0112 333.354 81.2065C333.354 81.353 333.378 81.4849 333.427 81.6021C333.48 81.7144 333.573 81.8193 333.705 81.917C333.837 82.0098 334.022 82.0977 334.262 82.1807C334.501 82.2637 334.806 82.3467 335.177 82.4297C335.827 82.5762 336.361 82.752 336.781 82.957C337.201 83.1621 337.514 83.4136 337.719 83.7114C337.924 84.0093 338.026 84.3706 338.026 84.7954C338.026 85.1421 337.953 85.4595 337.807 85.7476C337.665 86.0356 337.458 86.2847 337.184 86.4946C336.916 86.6997 336.593 86.8608 336.217 86.978C335.846 87.0903 335.429 87.1465 334.965 87.1465C334.267 87.1465 333.676 87.022 333.192 86.7729C332.709 86.5239 332.343 86.2017 332.094 85.8062C331.845 85.4106 331.72 84.9932 331.72 84.5537H333.083C333.102 84.9248 333.209 85.2202 333.405 85.4399C333.6 85.6548 333.839 85.8086 334.123 85.9014C334.406 85.9893 334.687 86.0332 334.965 86.0332C335.336 86.0332 335.646 85.9844 335.895 85.8867C336.149 85.7891 336.342 85.6548 336.474 85.4839C336.605 85.313 336.671 85.1177 336.671 84.8979Z" fill="#41495B"/>
</svg>
