<svg width="430" height="110" viewBox="0 0 430 110" fill="none" xmlns="http://www.w3.org/2000/svg">
<rect x="94" y="15.5" width="53" height="53" rx="5" fill="#41495B"/>
<path d="M118.513 40.0488V43.5352C118.513 45.2051 118.347 46.6309 118.015 47.8125C117.692 48.9844 117.224 49.9365 116.608 50.6689C115.993 51.4014 115.256 51.9385 114.396 52.2803C113.547 52.6221 112.595 52.793 111.54 52.793C110.7 52.793 109.919 52.6855 109.196 52.4707C108.483 52.2559 107.839 51.9189 107.263 51.46C106.687 51.001 106.193 50.4102 105.783 49.6875C105.383 48.9551 105.07 48.0811 104.846 47.0654C104.631 46.0498 104.523 44.873 104.523 43.5352V40.0488C104.523 38.3691 104.689 36.9531 105.021 35.8008C105.354 34.6387 105.827 33.6963 106.442 32.9736C107.058 32.2412 107.79 31.709 108.64 31.377C109.499 31.0449 110.456 30.8789 111.511 30.8789C112.36 30.8789 113.142 30.9863 113.854 31.2012C114.577 31.4062 115.222 31.7334 115.788 32.1826C116.364 32.6318 116.853 33.2178 117.253 33.9404C117.663 34.6533 117.976 35.5176 118.19 36.5332C118.405 37.5391 118.513 38.7109 118.513 40.0488ZM114.982 44.0332V39.5215C114.982 38.6719 114.934 37.9248 114.836 37.2803C114.738 36.626 114.592 36.0742 114.396 35.625C114.211 35.166 113.977 34.7949 113.693 34.5117C113.41 34.2188 113.088 34.0088 112.727 33.8818C112.365 33.7451 111.96 33.6768 111.511 33.6768C110.964 33.6768 110.476 33.7842 110.046 33.999C109.616 34.2041 109.255 34.5361 108.962 34.9951C108.669 35.4541 108.444 36.0596 108.288 36.8115C108.142 37.5537 108.068 38.457 108.068 39.5215V44.0332C108.068 44.8926 108.117 45.6494 108.215 46.3037C108.312 46.958 108.459 47.5195 108.654 47.9883C108.85 48.4473 109.084 48.8281 109.357 49.1309C109.641 49.4238 109.963 49.6387 110.324 49.7754C110.695 49.9121 111.101 49.9805 111.54 49.9805C112.097 49.9805 112.59 49.873 113.02 49.6582C113.449 49.4434 113.811 49.1016 114.104 48.6328C114.396 48.1543 114.616 47.5342 114.763 46.7725C114.909 46.0107 114.982 45.0977 114.982 44.0332ZM136.354 44.8975V47.71H120.974L120.856 45.5859L130.056 31.1719H132.883L129.821 36.416L124.533 44.8975H136.354ZM133.688 31.1719V52.5H130.158V31.1719H133.688Z" fill="white"/>
<path d="M108.124 90.5H105.897L105.912 89.3501H108.124C108.885 89.3501 109.52 89.1914 110.028 88.874C110.536 88.5518 110.917 88.1025 111.17 87.5264C111.429 86.9453 111.559 86.2666 111.559 85.4902V84.8384C111.559 84.228 111.485 83.686 111.339 83.2124C111.192 82.7339 110.978 82.3311 110.694 82.0039C110.411 81.6719 110.064 81.4204 109.654 81.2495C109.249 81.0786 108.783 80.9932 108.255 80.9932H105.853V79.8359H108.255C108.954 79.8359 109.591 79.9531 110.167 80.1875C110.743 80.417 111.239 80.7515 111.654 81.1909C112.074 81.6255 112.396 82.1528 112.621 82.7729C112.845 83.3882 112.958 84.0815 112.958 84.853V85.4902C112.958 86.2617 112.845 86.9575 112.621 87.5776C112.396 88.1929 112.071 88.7178 111.646 89.1523C111.227 89.5869 110.719 89.9214 110.123 90.1558C109.532 90.3853 108.866 90.5 108.124 90.5ZM106.651 79.8359V90.5H105.238V79.8359H106.651ZM119.549 89.145V85.0654C119.549 84.7529 119.486 84.4819 119.359 84.2524C119.237 84.0181 119.051 83.8374 118.802 83.7104C118.553 83.5835 118.246 83.52 117.879 83.52C117.538 83.52 117.237 83.5786 116.979 83.6958C116.725 83.813 116.524 83.9668 116.378 84.1572C116.236 84.3477 116.166 84.5527 116.166 84.7725H114.811C114.811 84.4893 114.884 84.2085 115.03 83.9302C115.177 83.6519 115.387 83.4004 115.66 83.1758C115.938 82.9463 116.271 82.7656 116.656 82.6338C117.047 82.4971 117.481 82.4287 117.96 82.4287C118.536 82.4287 119.044 82.5264 119.483 82.7217C119.928 82.917 120.274 83.2124 120.523 83.6079C120.777 83.9985 120.904 84.4893 120.904 85.0801V88.7715C120.904 89.0352 120.926 89.3159 120.97 89.6138C121.019 89.9116 121.09 90.168 121.183 90.3828V90.5H119.769C119.701 90.3438 119.647 90.1362 119.608 89.8774C119.569 89.6138 119.549 89.3696 119.549 89.145ZM119.784 85.6953L119.798 86.6475H118.429C118.043 86.6475 117.699 86.6792 117.396 86.7427C117.093 86.8013 116.839 86.8916 116.634 87.0137C116.429 87.1357 116.273 87.2896 116.166 87.4751C116.058 87.6558 116.004 87.8682 116.004 88.1123C116.004 88.3613 116.061 88.5884 116.173 88.7935C116.285 88.9985 116.454 89.1621 116.678 89.2842C116.908 89.4014 117.188 89.46 117.521 89.46C117.936 89.46 118.302 89.3721 118.619 89.1963C118.937 89.0205 119.188 88.8057 119.374 88.5518C119.564 88.2979 119.667 88.0513 119.681 87.812L120.26 88.4639C120.226 88.6689 120.133 88.896 119.981 89.145C119.83 89.394 119.627 89.6333 119.374 89.8628C119.125 90.0874 118.827 90.2754 118.48 90.4268C118.138 90.5732 117.752 90.6465 117.323 90.6465C116.786 90.6465 116.314 90.5415 115.909 90.3315C115.509 90.1216 115.196 89.8408 114.972 89.4893C114.752 89.1328 114.642 88.7349 114.642 88.2954C114.642 87.8706 114.725 87.4971 114.891 87.1748C115.057 86.8477 115.296 86.5767 115.609 86.3618C115.921 86.1421 116.297 85.9761 116.737 85.8638C117.176 85.7515 117.667 85.6953 118.209 85.6953H119.784ZM125.145 89.6797L127.35 82.5752H128.8L125.621 91.7231C125.548 91.9185 125.45 92.1284 125.328 92.353C125.211 92.5825 125.06 92.7998 124.874 93.0049C124.688 93.21 124.464 93.376 124.2 93.5029C123.941 93.6348 123.631 93.7007 123.27 93.7007C123.163 93.7007 123.026 93.686 122.86 93.6567C122.694 93.6274 122.577 93.603 122.508 93.5835L122.501 92.4849C122.54 92.4897 122.601 92.4946 122.684 92.4995C122.772 92.5093 122.833 92.5142 122.867 92.5142C123.175 92.5142 123.436 92.4727 123.651 92.3896C123.866 92.3115 124.046 92.1772 124.193 91.9868C124.344 91.8013 124.474 91.5449 124.581 91.2178L125.145 89.6797ZM123.526 82.5752L125.584 88.7275L125.936 90.1558L124.962 90.6538L122.047 82.5752H123.526ZM134.637 88.3979C134.637 88.2026 134.593 88.022 134.505 87.856C134.422 87.6851 134.249 87.5312 133.985 87.3945C133.727 87.2529 133.336 87.1309 132.813 87.0283C132.374 86.9355 131.976 86.8257 131.62 86.6987C131.268 86.5718 130.968 86.418 130.719 86.2373C130.475 86.0566 130.287 85.8442 130.155 85.6001C130.023 85.356 129.957 85.0703 129.957 84.7432C129.957 84.4307 130.025 84.1353 130.162 83.8569C130.304 83.5786 130.501 83.332 130.755 83.1172C131.014 82.9023 131.324 82.7339 131.686 82.6118C132.047 82.4897 132.45 82.4287 132.894 82.4287C133.529 82.4287 134.071 82.541 134.52 82.7656C134.969 82.9902 135.313 83.2905 135.553 83.6665C135.792 84.0376 135.912 84.4502 135.912 84.9043H134.557C134.557 84.6846 134.491 84.4722 134.359 84.2671C134.232 84.0571 134.044 83.8838 133.795 83.7471C133.551 83.6104 133.25 83.542 132.894 83.542C132.518 83.542 132.213 83.6006 131.979 83.7178C131.749 83.8301 131.581 83.9741 131.473 84.1499C131.371 84.3257 131.319 84.5112 131.319 84.7065C131.319 84.853 131.344 84.9849 131.393 85.1021C131.446 85.2144 131.539 85.3193 131.671 85.417C131.803 85.5098 131.988 85.5977 132.228 85.6807C132.467 85.7637 132.772 85.8467 133.143 85.9297C133.792 86.0762 134.327 86.252 134.747 86.457C135.167 86.6621 135.479 86.9136 135.685 87.2114C135.89 87.5093 135.992 87.8706 135.992 88.2954C135.992 88.6421 135.919 88.9595 135.772 89.2476C135.631 89.5356 135.423 89.7847 135.15 89.9946C134.881 90.1997 134.559 90.3608 134.183 90.478C133.812 90.5903 133.395 90.6465 132.931 90.6465C132.232 90.6465 131.642 90.522 131.158 90.2729C130.675 90.0239 130.309 89.7017 130.06 89.3062C129.811 88.9106 129.686 88.4932 129.686 88.0537H131.048C131.068 88.4248 131.175 88.7202 131.371 88.9399C131.566 89.1548 131.805 89.3086 132.088 89.4014C132.372 89.4893 132.652 89.5332 132.931 89.5332C133.302 89.5332 133.612 89.4844 133.861 89.3867C134.115 89.2891 134.308 89.1548 134.439 88.9839C134.571 88.813 134.637 88.6177 134.637 88.3979Z" fill="#41495B"/>
<rect x="157" y="15.5" width="53" height="53" rx="5" fill="#41495B"/>
<path d="M181.908 49.6875V52.5H167.611V50.083L174.555 42.5098C175.316 41.6504 175.917 40.9082 176.356 40.2832C176.796 39.6582 177.104 39.0967 177.279 38.5986C177.465 38.0908 177.558 37.5977 177.558 37.1191C177.558 36.4453 177.431 35.8545 177.177 35.3467C176.933 34.8291 176.571 34.4238 176.093 34.1309C175.614 33.8281 175.033 33.6768 174.35 33.6768C173.559 33.6768 172.895 33.8477 172.357 34.1895C171.82 34.5312 171.415 35.0049 171.142 35.6104C170.868 36.2061 170.731 36.8896 170.731 37.6611H167.201C167.201 36.4209 167.484 35.2881 168.051 34.2627C168.617 33.2275 169.438 32.4072 170.512 31.8018C171.586 31.1865 172.88 30.8789 174.394 30.8789C175.819 30.8789 177.03 31.1182 178.026 31.5967C179.022 32.0752 179.779 32.7539 180.297 33.6328C180.824 34.5117 181.088 35.5518 181.088 36.7529C181.088 37.417 180.98 38.0762 180.766 38.7305C180.551 39.3848 180.243 40.0391 179.843 40.6934C179.452 41.3379 178.988 41.9873 178.451 42.6416C177.914 43.2861 177.323 43.9404 176.679 44.6045L172.064 49.6875H181.908ZM188.808 40.2393H190.917C191.737 40.2393 192.416 40.0977 192.953 39.8145C193.5 39.5312 193.905 39.1406 194.169 38.6426C194.433 38.1445 194.564 37.5732 194.564 36.9287C194.564 36.2549 194.442 35.6787 194.198 35.2002C193.964 34.7119 193.603 34.3359 193.114 34.0723C192.636 33.8086 192.025 33.6768 191.283 33.6768C190.658 33.6768 190.092 33.8037 189.584 34.0576C189.086 34.3018 188.69 34.6533 188.397 35.1123C188.104 35.5615 187.958 36.0986 187.958 36.7236H184.413C184.413 35.5908 184.711 34.585 185.307 33.7061C185.902 32.8271 186.713 32.1387 187.738 31.6406C188.773 31.1328 189.936 30.8789 191.225 30.8789C192.602 30.8789 193.803 31.1084 194.828 31.5674C195.863 32.0166 196.669 32.6904 197.245 33.5889C197.821 34.4873 198.109 35.6006 198.109 36.9287C198.109 37.5342 197.968 38.1494 197.685 38.7744C197.401 39.3994 196.981 39.9707 196.425 40.4883C195.868 40.9961 195.175 41.4111 194.345 41.7334C193.515 42.0459 192.553 42.2021 191.459 42.2021H188.808V40.2393ZM188.808 42.9932V41.0596H191.459C192.709 41.0596 193.773 41.2061 194.652 41.499C195.541 41.792 196.264 42.1973 196.82 42.7148C197.377 43.2227 197.782 43.8037 198.036 44.458C198.3 45.1123 198.432 45.8057 198.432 46.5381C198.432 47.5342 198.251 48.4229 197.89 49.2041C197.538 49.9756 197.035 50.6299 196.381 51.167C195.727 51.7041 194.96 52.1094 194.081 52.3828C193.212 52.6562 192.265 52.793 191.239 52.793C190.321 52.793 189.442 52.666 188.603 52.4121C187.763 52.1582 187.011 51.7822 186.347 51.2842C185.683 50.7764 185.155 50.1465 184.765 49.3945C184.384 48.6328 184.193 47.7539 184.193 46.7578H187.724C187.724 47.3926 187.87 47.9541 188.163 48.4424C188.466 48.9209 188.886 49.2969 189.423 49.5703C189.97 49.8438 190.595 49.9805 191.298 49.9805C192.04 49.9805 192.68 49.8486 193.217 49.585C193.754 49.3213 194.164 48.9307 194.447 48.4131C194.74 47.8955 194.887 47.2705 194.887 46.5381C194.887 45.708 194.726 45.0342 194.403 44.5166C194.081 43.999 193.622 43.6182 193.026 43.374C192.431 43.1201 191.728 42.9932 190.917 42.9932H188.808Z" fill="white"/>
<path d="M171.203 84.4209V85.5708H165.432V84.4209H171.203ZM165.651 79.8359V90.5H164.238V79.8359H165.651ZM172.434 79.8359V90.5H171.027V79.8359H172.434ZM174.382 86.6255V86.457C174.382 85.8857 174.465 85.356 174.631 84.8677C174.797 84.3745 175.036 83.9473 175.349 83.5859C175.661 83.2197 176.04 82.9365 176.484 82.7363C176.928 82.5312 177.426 82.4287 177.978 82.4287C178.535 82.4287 179.035 82.5312 179.479 82.7363C179.929 82.9365 180.31 83.2197 180.622 83.5859C180.939 83.9473 181.181 84.3745 181.347 84.8677C181.513 85.356 181.596 85.8857 181.596 86.457V86.6255C181.596 87.1968 181.513 87.7266 181.347 88.2148C181.181 88.7031 180.939 89.1304 180.622 89.4966C180.31 89.8579 179.931 90.1411 179.487 90.3462C179.047 90.5464 178.549 90.6465 177.993 90.6465C177.436 90.6465 176.936 90.5464 176.491 90.3462C176.047 90.1411 175.666 89.8579 175.349 89.4966C175.036 89.1304 174.797 88.7031 174.631 88.2148C174.465 87.7266 174.382 87.1968 174.382 86.6255ZM175.737 86.457V86.6255C175.737 87.021 175.783 87.3945 175.876 87.7461C175.969 88.0928 176.108 88.4004 176.293 88.6689C176.484 88.9375 176.721 89.1499 177.004 89.3062C177.287 89.4575 177.617 89.5332 177.993 89.5332C178.364 89.5332 178.688 89.4575 178.967 89.3062C179.25 89.1499 179.484 88.9375 179.67 88.6689C179.855 88.4004 179.995 88.0928 180.087 87.7461C180.185 87.3945 180.234 87.021 180.234 86.6255V86.457C180.234 86.0664 180.185 85.6978 180.087 85.3511C179.995 84.9995 179.853 84.6895 179.663 84.4209C179.477 84.1475 179.243 83.9326 178.959 83.7764C178.681 83.6201 178.354 83.542 177.978 83.542C177.607 83.542 177.28 83.6201 176.997 83.7764C176.718 83.9326 176.484 84.1475 176.293 84.4209C176.108 84.6895 175.969 84.9995 175.876 85.3511C175.783 85.6978 175.737 86.0664 175.737 86.457ZM188.144 88.6689V82.5752H189.506V90.5H188.21L188.144 88.6689ZM188.4 86.999L188.964 86.9844C188.964 87.5117 188.908 88 188.796 88.4492C188.688 88.8936 188.513 89.2793 188.269 89.6064C188.024 89.9336 187.705 90.1899 187.309 90.3755C186.914 90.5562 186.433 90.6465 185.866 90.6465C185.48 90.6465 185.126 90.5903 184.804 90.478C184.487 90.3657 184.213 90.1924 183.984 89.958C183.754 89.7236 183.576 89.4185 183.449 89.0425C183.327 88.6665 183.266 88.2148 183.266 87.6875V82.5752H184.621V87.7021C184.621 88.0586 184.66 88.354 184.738 88.5884C184.821 88.8179 184.931 89.001 185.068 89.1377C185.209 89.2695 185.366 89.3623 185.537 89.416C185.712 89.4697 185.893 89.4966 186.079 89.4966C186.655 89.4966 187.111 89.3867 187.448 89.167C187.785 88.9424 188.027 88.6421 188.173 88.2661C188.325 87.8853 188.4 87.4629 188.4 86.999ZM192.927 83.8203V90.5H191.572V82.5752H192.89L192.927 83.8203ZM195.402 82.5312L195.395 83.791C195.283 83.7666 195.175 83.752 195.073 83.7471C194.975 83.7373 194.863 83.7324 194.736 83.7324C194.423 83.7324 194.147 83.7812 193.908 83.8789C193.669 83.9766 193.466 84.1133 193.3 84.2891C193.134 84.4648 193.002 84.6748 192.905 84.9189C192.812 85.1582 192.751 85.4219 192.722 85.71L192.341 85.9297C192.341 85.4512 192.387 85.002 192.48 84.582C192.578 84.1621 192.727 83.791 192.927 83.4688C193.127 83.1416 193.381 82.8877 193.688 82.707C194.001 82.5215 194.372 82.4287 194.802 82.4287C194.899 82.4287 195.012 82.4409 195.139 82.4653C195.266 82.4849 195.354 82.5068 195.402 82.5312ZM201.269 88.3979C201.269 88.2026 201.225 88.022 201.137 87.856C201.054 87.6851 200.881 87.5312 200.617 87.3945C200.358 87.2529 199.968 87.1309 199.445 87.0283C199.006 86.9355 198.608 86.8257 198.251 86.6987C197.9 86.5718 197.6 86.418 197.351 86.2373C197.106 86.0566 196.918 85.8442 196.787 85.6001C196.655 85.356 196.589 85.0703 196.589 84.7432C196.589 84.4307 196.657 84.1353 196.794 83.8569C196.936 83.5786 197.133 83.332 197.387 83.1172C197.646 82.9023 197.956 82.7339 198.317 82.6118C198.679 82.4897 199.082 82.4287 199.526 82.4287C200.161 82.4287 200.703 82.541 201.152 82.7656C201.601 82.9902 201.945 83.2905 202.185 83.6665C202.424 84.0376 202.543 84.4502 202.543 84.9043H201.188C201.188 84.6846 201.123 84.4722 200.991 84.2671C200.864 84.0571 200.676 83.8838 200.427 83.7471C200.183 83.6104 199.882 83.542 199.526 83.542C199.15 83.542 198.845 83.6006 198.61 83.7178C198.381 83.8301 198.212 83.9741 198.105 84.1499C198.002 84.3257 197.951 84.5112 197.951 84.7065C197.951 84.853 197.976 84.9849 198.024 85.1021C198.078 85.2144 198.171 85.3193 198.303 85.417C198.435 85.5098 198.62 85.5977 198.859 85.6807C199.099 85.7637 199.404 85.8467 199.775 85.9297C200.424 86.0762 200.959 86.252 201.379 86.457C201.799 86.6621 202.111 86.9136 202.316 87.2114C202.521 87.5093 202.624 87.8706 202.624 88.2954C202.624 88.6421 202.551 88.9595 202.404 89.2476C202.263 89.5356 202.055 89.7847 201.782 89.9946C201.513 90.1997 201.191 90.3608 200.815 90.478C200.444 90.5903 200.026 90.6465 199.562 90.6465C198.864 90.6465 198.273 90.522 197.79 90.2729C197.307 90.0239 196.94 89.7017 196.691 89.3062C196.442 88.9106 196.318 88.4932 196.318 88.0537H197.68C197.7 88.4248 197.807 88.7202 198.002 88.9399C198.198 89.1548 198.437 89.3086 198.72 89.4014C199.003 89.4893 199.284 89.5332 199.562 89.5332C199.934 89.5332 200.244 89.4844 200.493 89.3867C200.747 89.2891 200.939 89.1548 201.071 88.9839C201.203 88.813 201.269 88.6177 201.269 88.3979Z" fill="#41495B"/>
<rect x="220" y="15.5" width="53" height="53" rx="5" fill="#41495B"/>
<path d="M234.317 42.583L231.505 41.8945L232.662 31.1719H244.161V34.1602H235.592L235.006 39.3896C235.338 39.1943 235.797 39.0039 236.383 38.8184C236.969 38.623 237.638 38.5254 238.39 38.5254C239.396 38.5254 240.294 38.6914 241.085 39.0234C241.886 39.3457 242.564 39.8193 243.121 40.4443C243.678 41.0596 244.103 41.8115 244.396 42.7002C244.688 43.5791 244.835 44.5703 244.835 45.6738C244.835 46.6602 244.688 47.583 244.396 48.4424C244.112 49.3018 243.683 50.0586 243.106 50.7129C242.53 51.3672 241.803 51.8799 240.924 52.251C240.055 52.6123 239.024 52.793 237.833 52.793C236.944 52.793 236.09 52.666 235.27 52.4121C234.459 52.1484 233.731 51.7627 233.087 51.2549C232.442 50.7373 231.925 50.1025 231.534 49.3506C231.144 48.5889 230.919 47.7148 230.86 46.7285H234.317C234.405 47.4219 234.596 48.0127 234.889 48.501C235.191 48.9795 235.592 49.3457 236.09 49.5996C236.588 49.8535 237.164 49.9805 237.818 49.9805C238.414 49.9805 238.927 49.8779 239.356 49.6729C239.786 49.458 240.143 49.1553 240.426 48.7646C240.719 48.3643 240.934 47.8955 241.07 47.3584C241.217 46.8213 241.29 46.2256 241.29 45.5713C241.29 44.9463 241.207 44.375 241.041 43.8574C240.885 43.3398 240.646 42.8906 240.323 42.5098C240.011 42.1289 239.615 41.8359 239.137 41.6309C238.658 41.416 238.106 41.3086 237.481 41.3086C236.642 41.3086 235.997 41.4307 235.548 41.6748C235.108 41.9189 234.698 42.2217 234.317 42.583ZM258.326 31.04H258.766V33.9258H258.517C257.257 33.9258 256.168 34.1211 255.25 34.5117C254.342 34.9023 253.595 35.4395 253.009 36.123C252.423 36.8066 251.983 37.6074 251.69 38.5254C251.407 39.4336 251.266 40.4004 251.266 41.4258V44.7803C251.266 45.6299 251.358 46.3818 251.544 47.0361C251.729 47.6807 251.988 48.2227 252.32 48.6621C252.662 49.0918 253.053 49.4189 253.492 49.6436C253.932 49.8682 254.405 49.9805 254.913 49.9805C255.44 49.9805 255.919 49.873 256.349 49.6582C256.778 49.4336 257.145 49.126 257.447 48.7354C257.75 48.3447 257.979 47.8809 258.136 47.3438C258.292 46.8066 258.37 46.2207 258.37 45.5859C258.37 44.9805 258.292 44.4141 258.136 43.8867C257.989 43.3496 257.77 42.8809 257.477 42.4805C257.184 42.0703 256.817 41.7529 256.378 41.5283C255.948 41.2939 255.45 41.1768 254.884 41.1768C254.181 41.1768 253.541 41.3428 252.965 41.6748C252.398 42.0068 251.939 42.4414 251.588 42.9785C251.246 43.5059 251.061 44.0674 251.031 44.6631L249.684 44.2236C249.762 43.3154 249.962 42.5 250.284 41.7773C250.616 41.0547 251.051 40.4395 251.588 39.9316C252.125 39.4238 252.745 39.0381 253.448 38.7744C254.161 38.501 254.942 38.3643 255.792 38.3643C256.827 38.3643 257.726 38.5596 258.487 38.9502C259.249 39.3408 259.879 39.873 260.377 40.5469C260.885 41.2109 261.261 41.9727 261.505 42.832C261.759 43.6816 261.886 44.5703 261.886 45.498C261.886 46.5234 261.729 47.4805 261.417 48.3691C261.104 49.248 260.646 50.0195 260.04 50.6836C259.444 51.3477 258.717 51.8652 257.857 52.2363C257.008 52.6074 256.041 52.793 254.957 52.793C253.814 52.793 252.794 52.5732 251.896 52.1338C251.007 51.6943 250.25 51.0889 249.625 50.3174C249.01 49.5459 248.541 48.6572 248.219 47.6514C247.896 46.6455 247.735 45.5811 247.735 44.458V42.9932C247.735 41.3721 247.94 39.8438 248.351 38.4082C248.761 36.9629 249.391 35.6885 250.24 34.585C251.1 33.4814 252.198 32.6172 253.536 31.9922C254.874 31.3574 256.471 31.04 258.326 31.04Z" fill="white"/>
<path d="M231.685 79.8359H233.054L236.548 88.5298L240.034 79.8359H241.411L237.075 90.5H236.006L231.685 79.8359ZM231.238 79.8359H232.446L232.644 86.3398V90.5H231.238V79.8359ZM240.642 79.8359H241.851V90.5H240.444V86.3398L240.642 79.8359ZM245.601 82.5752V90.5H244.238V82.5752H245.601ZM244.136 80.4731C244.136 80.2534 244.202 80.0679 244.333 79.9165C244.47 79.7651 244.67 79.6895 244.934 79.6895C245.193 79.6895 245.391 79.7651 245.527 79.9165C245.669 80.0679 245.74 80.2534 245.74 80.4731C245.74 80.6831 245.669 80.8638 245.527 81.0151C245.391 81.1616 245.193 81.2349 244.934 81.2349C244.67 81.2349 244.47 81.1616 244.333 81.0151C244.202 80.8638 244.136 80.6831 244.136 80.4731ZM249.131 84.2671V90.5H247.776V82.5752H249.058L249.131 84.2671ZM248.809 86.2373L248.245 86.2153C248.25 85.6733 248.33 85.1729 248.486 84.7139C248.643 84.25 248.862 83.8472 249.146 83.5054C249.429 83.1636 249.766 82.8999 250.156 82.7144C250.552 82.5239 250.989 82.4287 251.467 82.4287C251.858 82.4287 252.209 82.4824 252.522 82.5898C252.834 82.6924 253.101 82.8584 253.32 83.0879C253.545 83.3174 253.716 83.6152 253.833 83.9814C253.95 84.3428 254.009 84.7847 254.009 85.3071V90.5H252.646V85.2925C252.646 84.8774 252.585 84.5454 252.463 84.2964C252.341 84.0425 252.163 83.8594 251.929 83.7471C251.694 83.6299 251.406 83.5713 251.064 83.5713C250.728 83.5713 250.42 83.6421 250.142 83.7837C249.868 83.9253 249.631 84.1206 249.431 84.3696C249.236 84.6187 249.082 84.9043 248.97 85.2266C248.862 85.5439 248.809 85.8809 248.809 86.2373ZM260.681 88.3979C260.681 88.2026 260.637 88.022 260.549 87.856C260.466 87.6851 260.293 87.5312 260.029 87.3945C259.771 87.2529 259.38 87.1309 258.857 87.0283C258.418 86.9355 258.02 86.8257 257.664 86.6987C257.312 86.5718 257.012 86.418 256.763 86.2373C256.519 86.0566 256.331 85.8442 256.199 85.6001C256.067 85.356 256.001 85.0703 256.001 84.7432C256.001 84.4307 256.069 84.1353 256.206 83.8569C256.348 83.5786 256.545 83.332 256.799 83.1172C257.058 82.9023 257.368 82.7339 257.729 82.6118C258.091 82.4897 258.494 82.4287 258.938 82.4287C259.573 82.4287 260.115 82.541 260.564 82.7656C261.013 82.9902 261.357 83.2905 261.597 83.6665C261.836 84.0376 261.956 84.4502 261.956 84.9043H260.601C260.601 84.6846 260.535 84.4722 260.403 84.2671C260.276 84.0571 260.088 83.8838 259.839 83.7471C259.595 83.6104 259.294 83.542 258.938 83.542C258.562 83.542 258.257 83.6006 258.022 83.7178C257.793 83.8301 257.625 83.9741 257.517 84.1499C257.415 84.3257 257.363 84.5112 257.363 84.7065C257.363 84.853 257.388 84.9849 257.437 85.1021C257.49 85.2144 257.583 85.3193 257.715 85.417C257.847 85.5098 258.032 85.5977 258.271 85.6807C258.511 85.7637 258.816 85.8467 259.187 85.9297C259.836 86.0762 260.371 86.252 260.791 86.457C261.211 86.6621 261.523 86.9136 261.729 87.2114C261.934 87.5093 262.036 87.8706 262.036 88.2954C262.036 88.6421 261.963 88.9595 261.816 89.2476C261.675 89.5356 261.467 89.7847 261.194 89.9946C260.925 90.1997 260.603 90.3608 260.227 90.478C259.856 90.5903 259.438 90.6465 258.975 90.6465C258.276 90.6465 257.686 90.522 257.202 90.2729C256.719 90.0239 256.353 89.7017 256.104 89.3062C255.854 88.9106 255.73 88.4932 255.73 88.0537H257.092C257.112 88.4248 257.219 88.7202 257.415 88.9399C257.61 89.1548 257.849 89.3086 258.132 89.4014C258.416 89.4893 258.696 89.5332 258.975 89.5332C259.346 89.5332 259.656 89.4844 259.905 89.3867C260.159 89.2891 260.352 89.1548 260.483 88.9839C260.615 88.813 260.681 88.6177 260.681 88.3979Z" fill="#41495B"/>
<rect x="283" y="15.5" width="53" height="53" rx="5" fill="#41495B"/>
<path d="M297.757 40.2393H299.866C300.687 40.2393 301.365 40.0977 301.902 39.8145C302.449 39.5312 302.854 39.1406 303.118 38.6426C303.382 38.1445 303.514 37.5732 303.514 36.9287C303.514 36.2549 303.392 35.6787 303.147 35.2002C302.913 34.7119 302.552 34.3359 302.063 34.0723C301.585 33.8086 300.975 33.6768 300.232 33.6768C299.607 33.6768 299.041 33.8037 298.533 34.0576C298.035 34.3018 297.64 34.6533 297.347 35.1123C297.054 35.5615 296.907 36.0986 296.907 36.7236H293.362C293.362 35.5908 293.66 34.585 294.256 33.7061C294.852 32.8271 295.662 32.1387 296.688 31.6406C297.723 31.1328 298.885 30.8789 300.174 30.8789C301.551 30.8789 302.752 31.1084 303.777 31.5674C304.812 32.0166 305.618 32.6904 306.194 33.5889C306.771 34.4873 307.059 35.6006 307.059 36.9287C307.059 37.5342 306.917 38.1494 306.634 38.7744C306.351 39.3994 305.931 39.9707 305.374 40.4883C304.817 40.9961 304.124 41.4111 303.294 41.7334C302.464 42.0459 301.502 42.2021 300.408 42.2021H297.757V40.2393ZM297.757 42.9932V41.0596H300.408C301.658 41.0596 302.723 41.2061 303.602 41.499C304.49 41.792 305.213 42.1973 305.77 42.7148C306.326 43.2227 306.731 43.8037 306.985 44.458C307.249 45.1123 307.381 45.8057 307.381 46.5381C307.381 47.5342 307.2 48.4229 306.839 49.2041C306.487 49.9756 305.984 50.6299 305.33 51.167C304.676 51.7041 303.909 52.1094 303.03 52.3828C302.161 52.6562 301.214 52.793 300.188 52.793C299.271 52.793 298.392 52.666 297.552 52.4121C296.712 52.1582 295.96 51.7822 295.296 51.2842C294.632 50.7764 294.104 50.1465 293.714 49.3945C293.333 48.6328 293.143 47.7539 293.143 46.7578H296.673C296.673 47.3926 296.819 47.9541 297.112 48.4424C297.415 48.9209 297.835 49.2969 298.372 49.5703C298.919 49.8438 299.544 49.9805 300.247 49.9805C300.989 49.9805 301.629 49.8486 302.166 49.585C302.703 49.3213 303.113 48.9307 303.396 48.4131C303.689 47.8955 303.836 47.2705 303.836 46.5381C303.836 45.708 303.675 45.0342 303.353 44.5166C303.03 43.999 302.571 43.6182 301.976 43.374C301.38 43.1201 300.677 42.9932 299.866 42.9932H297.757ZM324.827 31.1719V33.1055L316.302 52.5H312.581L321.092 33.9844H310.047V31.1719H324.827Z" fill="white"/>
<path d="M299.921 87.8047C299.921 87.5557 299.882 87.3359 299.804 87.1455C299.731 86.9502 299.599 86.7744 299.409 86.6182C299.223 86.4619 298.964 86.313 298.632 86.1714C298.305 86.0298 297.89 85.8857 297.387 85.7393C296.86 85.583 296.384 85.4097 295.959 85.2192C295.534 85.0239 295.17 84.8018 294.868 84.5527C294.565 84.3037 294.333 84.0181 294.172 83.6958C294.011 83.3735 293.93 83.0049 293.93 82.5898C293.93 82.1748 294.016 81.7915 294.187 81.4399C294.357 81.0884 294.602 80.7832 294.919 80.5244C295.241 80.2607 295.625 80.0557 296.069 79.9092C296.513 79.7627 297.009 79.6895 297.556 79.6895C298.356 79.6895 299.035 79.8433 299.592 80.1509C300.153 80.4536 300.581 80.8516 300.874 81.3447C301.167 81.833 301.313 82.3555 301.313 82.9121H299.907C299.907 82.5117 299.821 82.1577 299.65 81.8501C299.479 81.5376 299.221 81.2935 298.874 81.1177C298.527 80.937 298.088 80.8467 297.556 80.8467C297.053 80.8467 296.638 80.9224 296.311 81.0737C295.983 81.2251 295.739 81.4302 295.578 81.689C295.422 81.9478 295.344 82.2432 295.344 82.5752C295.344 82.7998 295.39 83.0049 295.483 83.1904C295.581 83.3711 295.729 83.5396 295.93 83.6958C296.135 83.8521 296.394 83.9961 296.706 84.1279C297.023 84.2598 297.402 84.3867 297.841 84.5088C298.447 84.6797 298.969 84.8701 299.409 85.0801C299.848 85.29 300.209 85.5269 300.493 85.7905C300.781 86.0493 300.993 86.3447 301.13 86.6768C301.271 87.0039 301.342 87.375 301.342 87.79C301.342 88.2246 301.254 88.6177 301.079 88.9692C300.903 89.3208 300.651 89.6211 300.324 89.8701C299.997 90.1191 299.604 90.312 299.145 90.4487C298.691 90.5806 298.183 90.6465 297.622 90.6465C297.128 90.6465 296.643 90.5781 296.164 90.4414C295.69 90.3047 295.258 90.0996 294.868 89.8262C294.482 89.5527 294.172 89.2158 293.938 88.8154C293.708 88.4102 293.593 87.9414 293.593 87.4092H295C295 87.7754 295.07 88.0903 295.212 88.354C295.354 88.6128 295.546 88.8276 295.791 88.9985C296.04 89.1694 296.32 89.2964 296.633 89.3794C296.95 89.4575 297.28 89.4966 297.622 89.4966C298.115 89.4966 298.532 89.4282 298.874 89.2915C299.216 89.1548 299.475 88.9595 299.65 88.7056C299.831 88.4517 299.921 88.1514 299.921 87.8047ZM306.228 90.6465C305.676 90.6465 305.175 90.5537 304.726 90.3682C304.282 90.1777 303.898 89.9116 303.576 89.5698C303.259 89.228 303.015 88.8228 302.844 88.354C302.673 87.8853 302.587 87.3726 302.587 86.8159V86.5083C302.587 85.8638 302.683 85.29 302.873 84.7871C303.063 84.2793 303.322 83.8496 303.649 83.498C303.977 83.1465 304.348 82.8804 304.763 82.6997C305.178 82.519 305.607 82.4287 306.052 82.4287C306.618 82.4287 307.106 82.5264 307.517 82.7217C307.932 82.917 308.271 83.1904 308.535 83.542C308.798 83.8887 308.994 84.2988 309.121 84.7725C309.248 85.2412 309.311 85.7539 309.311 86.3105V86.9185H303.393V85.8125H307.956V85.71C307.937 85.3584 307.863 85.0166 307.736 84.6846C307.614 84.3525 307.419 84.0791 307.15 83.8643C306.882 83.6494 306.516 83.542 306.052 83.542C305.744 83.542 305.461 83.6079 305.202 83.7397C304.943 83.8667 304.721 84.0571 304.536 84.311C304.35 84.5649 304.206 84.875 304.104 85.2412C304.001 85.6074 303.95 86.0298 303.95 86.5083V86.8159C303.95 87.1919 304.001 87.5459 304.104 87.8779C304.211 88.2051 304.365 88.4932 304.565 88.7422C304.77 88.9912 305.017 89.1865 305.305 89.3281C305.598 89.4697 305.93 89.5405 306.301 89.5405C306.779 89.5405 307.185 89.4429 307.517 89.2476C307.849 89.0522 308.139 88.791 308.388 88.4639L309.208 89.1157C309.038 89.3745 308.82 89.6211 308.557 89.8555C308.293 90.0898 307.968 90.2803 307.583 90.4268C307.202 90.5732 306.75 90.6465 306.228 90.6465ZM314.064 89.5332C314.387 89.5332 314.685 89.4673 314.958 89.3354C315.231 89.2036 315.456 89.0229 315.632 88.7935C315.808 88.5591 315.908 88.293 315.932 87.9951H317.221C317.197 88.4639 317.038 88.9009 316.745 89.3062C316.457 89.7065 316.079 90.0312 315.61 90.2803C315.141 90.5244 314.626 90.6465 314.064 90.6465C313.469 90.6465 312.949 90.5415 312.504 90.3315C312.065 90.1216 311.699 89.8335 311.406 89.4673C311.118 89.1011 310.9 88.6812 310.754 88.2075C310.612 87.729 310.542 87.2236 310.542 86.6914V86.3838C310.542 85.8516 310.612 85.3486 310.754 84.875C310.9 84.3965 311.118 83.9741 311.406 83.6079C311.699 83.2417 312.065 82.9536 312.504 82.7437C312.949 82.5337 313.469 82.4287 314.064 82.4287C314.685 82.4287 315.227 82.5557 315.69 82.8096C316.154 83.0586 316.518 83.4004 316.782 83.835C317.05 84.2646 317.197 84.7529 317.221 85.2998H315.932C315.908 84.9727 315.815 84.6772 315.654 84.4136C315.498 84.1499 315.283 83.9399 315.009 83.7837C314.741 83.6226 314.426 83.542 314.064 83.542C313.649 83.542 313.3 83.625 313.017 83.791C312.739 83.9521 312.517 84.1719 312.351 84.4502C312.189 84.7236 312.072 85.0288 311.999 85.3657C311.931 85.6978 311.896 86.0371 311.896 86.3838V86.6914C311.896 87.0381 311.931 87.3799 311.999 87.7168C312.067 88.0537 312.182 88.3589 312.343 88.6323C312.509 88.9058 312.731 89.1255 313.01 89.2915C313.293 89.4526 313.645 89.5332 314.064 89.5332ZM323.359 88.3979C323.359 88.2026 323.315 88.022 323.227 87.856C323.144 87.6851 322.971 87.5312 322.707 87.3945C322.448 87.2529 322.058 87.1309 321.535 87.0283C321.096 86.9355 320.698 86.8257 320.341 86.6987C319.99 86.5718 319.689 86.418 319.44 86.2373C319.196 86.0566 319.008 85.8442 318.876 85.6001C318.745 85.356 318.679 85.0703 318.679 84.7432C318.679 84.4307 318.747 84.1353 318.884 83.8569C319.025 83.5786 319.223 83.332 319.477 83.1172C319.736 82.9023 320.046 82.7339 320.407 82.6118C320.769 82.4897 321.171 82.4287 321.616 82.4287C322.25 82.4287 322.792 82.541 323.242 82.7656C323.691 82.9902 324.035 83.2905 324.274 83.6665C324.514 84.0376 324.633 84.4502 324.633 84.9043H323.278C323.278 84.6846 323.212 84.4722 323.081 84.2671C322.954 84.0571 322.766 83.8838 322.517 83.7471C322.272 83.6104 321.972 83.542 321.616 83.542C321.24 83.542 320.935 83.6006 320.7 83.7178C320.471 83.8301 320.302 83.9741 320.195 84.1499C320.092 84.3257 320.041 84.5112 320.041 84.7065C320.041 84.853 320.065 84.9849 320.114 85.1021C320.168 85.2144 320.261 85.3193 320.393 85.417C320.524 85.5098 320.71 85.5977 320.949 85.6807C321.188 85.7637 321.494 85.8467 321.865 85.9297C322.514 86.0762 323.049 86.252 323.469 86.457C323.889 86.6621 324.201 86.9136 324.406 87.2114C324.611 87.5093 324.714 87.8706 324.714 88.2954C324.714 88.6421 324.641 88.9595 324.494 89.2476C324.353 89.5356 324.145 89.7847 323.872 89.9946C323.603 90.1997 323.281 90.3608 322.905 90.478C322.534 90.5903 322.116 90.6465 321.652 90.6465C320.954 90.6465 320.363 90.522 319.88 90.2729C319.396 90.0239 319.03 89.7017 318.781 89.3062C318.532 88.9106 318.408 88.4932 318.408 88.0537H319.77C319.79 88.4248 319.897 88.7202 320.092 88.9399C320.288 89.1548 320.527 89.3086 320.81 89.4014C321.093 89.4893 321.374 89.5332 321.652 89.5332C322.023 89.5332 322.333 89.4844 322.583 89.3867C322.836 89.2891 323.029 89.1548 323.161 88.9839C323.293 88.813 323.359 88.6177 323.359 88.3979Z" fill="#41495B"/>
</svg>
