<svg width="430" height="110" viewBox="0 0 430 110" fill="none" xmlns="http://www.w3.org/2000/svg">
<rect x="5" y="10" width="90" height="90" rx="7" fill="#F6F6F6"/>
<rect x="12.5" y="21" width="36" height="45" rx="9" fill="#41495B"/>
<path d="M37.0127 41.5488V45.0352C37.0127 46.7051 36.8467 48.1309 36.5146 49.3125C36.1924 50.4844 35.7236 51.4365 35.1084 52.1689C34.4932 52.9014 33.7559 53.4385 32.8965 53.7803C32.0469 54.1221 31.0947 54.293 30.04 54.293C29.2002 54.293 28.4189 54.1855 27.6963 53.9707C26.9834 53.7559 26.3389 53.4189 25.7627 52.96C25.1865 52.501 24.6934 51.9102 24.2832 51.1875C23.8828 50.4551 23.5703 49.5811 23.3457 48.5654C23.1309 47.5498 23.0234 46.373 23.0234 45.0352V41.5488C23.0234 39.8691 23.1895 38.4531 23.5215 37.3008C23.8535 36.1387 24.3271 35.1963 24.9424 34.4736C25.5576 33.7412 26.29 33.209 27.1396 32.877C27.999 32.5449 28.9561 32.3789 30.0107 32.3789C30.8604 32.3789 31.6416 32.4863 32.3545 32.7012C33.0771 32.9062 33.7217 33.2334 34.2881 33.6826C34.8643 34.1318 35.3525 34.7178 35.7529 35.4404C36.1631 36.1533 36.4756 37.0176 36.6904 38.0332C36.9053 39.0391 37.0127 40.2109 37.0127 41.5488ZM33.4824 45.5332V41.0215C33.4824 40.1719 33.4336 39.4248 33.3359 38.7803C33.2383 38.126 33.0918 37.5742 32.8965 37.125C32.7109 36.666 32.4766 36.2949 32.1934 36.0117C31.9102 35.7188 31.5879 35.5088 31.2266 35.3818C30.8652 35.2451 30.46 35.1768 30.0107 35.1768C29.4639 35.1768 28.9756 35.2842 28.5459 35.499C28.1162 35.7041 27.7549 36.0361 27.4619 36.4951C27.1689 36.9541 26.9443 37.5596 26.7881 38.3115C26.6416 39.0537 26.5684 39.957 26.5684 41.0215V45.5332C26.5684 46.3926 26.6172 47.1494 26.7148 47.8037C26.8125 48.458 26.959 49.0195 27.1543 49.4883C27.3496 49.9473 27.584 50.3281 27.8574 50.6309C28.1406 50.9238 28.4629 51.1387 28.8242 51.2754C29.1953 51.4121 29.6006 51.4805 30.04 51.4805C30.5967 51.4805 31.0898 51.373 31.5195 51.1582C31.9492 50.9434 32.3105 50.6016 32.6035 50.1328C32.8965 49.6543 33.1162 49.0342 33.2627 48.2725C33.4092 47.5107 33.4824 46.5977 33.4824 45.5332Z" fill="white"/>
<rect x="51.5" y="21" width="36" height="45" rx="9" fill="#41495B"/>
<path d="M76.8037 46.3975V49.21H61.4229L61.3057 47.0859L70.5049 32.6719H73.332L70.2705 37.916L64.9824 46.3975H76.8037ZM74.1377 32.6719V54H70.6074V32.6719H74.1377Z" fill="white"/>
<path d="M38.3633 86H36.5234L36.5352 84.7344H38.3633C38.8594 84.7344 39.2754 84.625 39.6113 84.4062C39.9473 84.1836 40.2012 83.8652 40.373 83.4512C40.5449 83.0332 40.6309 82.5332 40.6309 81.9512V81.5117C40.6309 81.0625 40.582 80.666 40.4844 80.3223C40.3867 79.9785 40.2422 79.6895 40.0508 79.4551C39.8633 79.2207 39.6309 79.043 39.3535 78.9219C39.0762 78.8008 38.7578 78.7402 38.3984 78.7402H36.4883V77.4688H38.3984C38.9688 77.4688 39.4883 77.5645 39.957 77.7559C40.4297 77.9473 40.8379 78.2227 41.1816 78.582C41.5293 78.9375 41.7949 79.3633 41.9785 79.8594C42.166 80.3555 42.2598 80.9102 42.2598 81.5234V81.9512C42.2598 82.5605 42.166 83.1152 41.9785 83.6152C41.7949 84.1113 41.5293 84.5371 41.1816 84.8926C40.8379 85.248 40.4277 85.5215 39.9512 85.7129C39.4746 85.9043 38.9453 86 38.3633 86ZM37.4258 77.4688V86H35.8145V77.4688H37.4258ZM46.8945 78.7637L44.4629 86H42.7578L45.9453 77.4688H47.0352L46.8945 78.7637ZM48.9277 86L46.4844 78.7637L46.3379 77.4688H47.4336L50.6387 86H48.9277ZM48.8164 82.8301V84.1016H44.2402V82.8301H48.8164ZM51.7871 77.4688L53.6621 81.4473L55.5488 77.4688H57.3184L54.4824 82.877V86H52.8477V82.877L50.0059 77.4688H51.7871ZM62.5449 83.7852C62.5449 83.6211 62.5195 83.4746 62.4688 83.3457C62.4219 83.2129 62.334 83.0938 62.2051 82.9883C62.0801 82.8789 61.9023 82.7734 61.6719 82.6719C61.4453 82.5664 61.1523 82.457 60.793 82.3438C60.3945 82.2188 60.0234 82.0781 59.6797 81.9219C59.3359 81.7656 59.0332 81.584 58.7715 81.377C58.5137 81.1699 58.3125 80.9316 58.168 80.6621C58.0234 80.3887 57.9512 80.0723 57.9512 79.7129C57.9512 79.3613 58.0254 79.041 58.1738 78.752C58.3262 78.4629 58.541 78.2148 58.8184 78.0078C59.0957 77.7969 59.4219 77.6348 59.7969 77.5215C60.1758 77.4082 60.5938 77.3516 61.0508 77.3516C61.6836 77.3516 62.2305 77.4668 62.6914 77.6973C63.1562 77.9277 63.5156 78.2402 63.7695 78.6348C64.0234 79.0293 64.1504 79.4727 64.1504 79.9648H62.5449C62.5449 79.6992 62.4883 79.4648 62.375 79.2617C62.2656 79.0586 62.0977 78.8984 61.8711 78.7812C61.6484 78.6641 61.3672 78.6055 61.0273 78.6055C60.6992 78.6055 60.4258 78.6543 60.207 78.752C59.9922 78.8496 59.8301 78.9824 59.7207 79.1504C59.6152 79.3184 59.5625 79.5059 59.5625 79.7129C59.5625 79.8691 59.5996 80.0098 59.6738 80.1348C59.748 80.2559 59.8594 80.3711 60.0078 80.4805C60.1562 80.5859 60.3398 80.6855 60.5586 80.7793C60.7812 80.8691 61.0391 80.959 61.332 81.0488C61.8008 81.1895 62.2109 81.3457 62.5625 81.5176C62.918 81.6895 63.2129 81.8848 63.4473 82.1035C63.6855 82.3223 63.8633 82.5684 63.9805 82.8418C64.1016 83.1152 64.1621 83.4258 64.1621 83.7734C64.1621 84.1406 64.0898 84.4688 63.9453 84.7578C63.8008 85.0469 63.5938 85.293 63.3242 85.4961C63.0547 85.6992 62.7305 85.8535 62.3516 85.959C61.9766 86.0645 61.5566 86.1172 61.0918 86.1172C60.6777 86.1172 60.2676 86.0625 59.8613 85.9531C59.459 85.8398 59.0938 85.6719 58.7656 85.4492C58.4375 85.2227 58.1758 84.9375 57.9805 84.5938C57.7852 84.2461 57.6875 83.8398 57.6875 83.375H59.3047C59.3047 83.6445 59.3477 83.875 59.4336 84.0664C59.5234 84.2539 59.6484 84.4082 59.8086 84.5293C59.9727 84.6465 60.1641 84.7324 60.3828 84.7871C60.6016 84.8418 60.8379 84.8691 61.0918 84.8691C61.4199 84.8691 61.6895 84.8242 61.9004 84.7344C62.1152 84.6406 62.2754 84.5117 62.3809 84.3477C62.4902 84.1836 62.5449 83.9961 62.5449 83.7852Z" fill="#41495B"/>
<path d="M102.86 50.2422C102.86 49.6953 103.046 49.2363 103.417 48.8652C103.788 48.4844 104.291 48.2939 104.926 48.2939C105.57 48.2939 106.073 48.4844 106.435 48.8652C106.806 49.2363 106.991 49.6953 106.991 50.2422C106.991 50.7891 106.806 51.248 106.435 51.6191C106.073 51.9902 105.57 52.1758 104.926 52.1758C104.291 52.1758 103.788 51.9902 103.417 51.6191C103.046 51.248 102.86 50.7891 102.86 50.2422ZM102.875 37.7617C102.875 37.2148 103.061 36.7559 103.432 36.3848C103.803 36.0039 104.306 35.8135 104.94 35.8135C105.585 35.8135 106.088 36.0039 106.449 36.3848C106.82 36.7559 107.006 37.2148 107.006 37.7617C107.006 38.3086 106.82 38.7676 106.449 39.1387C106.088 39.5098 105.585 39.6953 104.94 39.6953C104.306 39.6953 103.803 39.5098 103.432 39.1387C103.061 38.7676 102.875 38.3086 102.875 37.7617Z" fill="black"/>
<rect x="115" y="10" width="90" height="90" rx="7" fill="#F6F6F6"/>
<rect x="122.5" y="21" width="36" height="45" rx="9" fill="#41495B"/>
<path d="M147.408 51.1875V54H133.111V51.583L140.055 44.0098C140.816 43.1504 141.417 42.4082 141.856 41.7832C142.296 41.1582 142.604 40.5967 142.779 40.0986C142.965 39.5908 143.058 39.0977 143.058 38.6191C143.058 37.9453 142.931 37.3545 142.677 36.8467C142.433 36.3291 142.071 35.9238 141.593 35.6309C141.114 35.3281 140.533 35.1768 139.85 35.1768C139.059 35.1768 138.395 35.3477 137.857 35.6895C137.32 36.0312 136.915 36.5049 136.642 37.1104C136.368 37.7061 136.231 38.3896 136.231 39.1611H132.701C132.701 37.9209 132.984 36.7881 133.551 35.7627C134.117 34.7275 134.938 33.9072 136.012 33.3018C137.086 32.6865 138.38 32.3789 139.894 32.3789C141.319 32.3789 142.53 32.6182 143.526 33.0967C144.522 33.5752 145.279 34.2539 145.797 35.1328C146.324 36.0117 146.588 37.0518 146.588 38.2529C146.588 38.917 146.48 39.5762 146.266 40.2305C146.051 40.8848 145.743 41.5391 145.343 42.1934C144.952 42.8379 144.488 43.4873 143.951 44.1416C143.414 44.7861 142.823 45.4404 142.179 46.1045L137.564 51.1875H147.408Z" fill="white"/>
<rect x="161.5" y="21" width="36" height="45" rx="9" fill="#41495B"/>
<path d="M176.257 41.7393H178.366C179.187 41.7393 179.865 41.5977 180.402 41.3145C180.949 41.0312 181.354 40.6406 181.618 40.1426C181.882 39.6445 182.014 39.0732 182.014 38.4287C182.014 37.7549 181.892 37.1787 181.647 36.7002C181.413 36.2119 181.052 35.8359 180.563 35.5723C180.085 35.3086 179.475 35.1768 178.732 35.1768C178.107 35.1768 177.541 35.3037 177.033 35.5576C176.535 35.8018 176.14 36.1533 175.847 36.6123C175.554 37.0615 175.407 37.5986 175.407 38.2236H171.862C171.862 37.0908 172.16 36.085 172.756 35.2061C173.352 34.3271 174.162 33.6387 175.188 33.1406C176.223 32.6328 177.385 32.3789 178.674 32.3789C180.051 32.3789 181.252 32.6084 182.277 33.0674C183.312 33.5166 184.118 34.1904 184.694 35.0889C185.271 35.9873 185.559 37.1006 185.559 38.4287C185.559 39.0342 185.417 39.6494 185.134 40.2744C184.851 40.8994 184.431 41.4707 183.874 41.9883C183.317 42.4961 182.624 42.9111 181.794 43.2334C180.964 43.5459 180.002 43.7021 178.908 43.7021H176.257V41.7393ZM176.257 44.4932V42.5596H178.908C180.158 42.5596 181.223 42.7061 182.102 42.999C182.99 43.292 183.713 43.6973 184.27 44.2148C184.826 44.7227 185.231 45.3037 185.485 45.958C185.749 46.6123 185.881 47.3057 185.881 48.0381C185.881 49.0342 185.7 49.9229 185.339 50.7041C184.987 51.4756 184.484 52.1299 183.83 52.667C183.176 53.2041 182.409 53.6094 181.53 53.8828C180.661 54.1562 179.714 54.293 178.688 54.293C177.771 54.293 176.892 54.166 176.052 53.9121C175.212 53.6582 174.46 53.2822 173.796 52.7842C173.132 52.2764 172.604 51.6465 172.214 50.8945C171.833 50.1328 171.643 49.2539 171.643 48.2578H175.173C175.173 48.8926 175.319 49.4541 175.612 49.9424C175.915 50.4209 176.335 50.7969 176.872 51.0703C177.419 51.3438 178.044 51.4805 178.747 51.4805C179.489 51.4805 180.129 51.3486 180.666 51.085C181.203 50.8213 181.613 50.4307 181.896 49.9131C182.189 49.3955 182.336 48.7705 182.336 48.0381C182.336 47.208 182.175 46.5342 181.853 46.0166C181.53 45.499 181.071 45.1182 180.476 44.874C179.88 44.6201 179.177 44.4932 178.366 44.4932H176.257Z" fill="white"/>
<path d="M146.475 80.9902V82.2559H141.986V80.9902H146.475ZM142.426 77.4688V86H140.814V77.4688H142.426ZM147.67 77.4688V86H146.059V77.4688H147.67ZM156.219 81.5176V81.957C156.219 82.6016 156.133 83.1816 155.961 83.6973C155.789 84.209 155.545 84.6445 155.229 85.0039C154.912 85.3633 154.535 85.6387 154.098 85.8301C153.66 86.0215 153.174 86.1172 152.639 86.1172C152.111 86.1172 151.627 86.0215 151.186 85.8301C150.748 85.6387 150.369 85.3633 150.049 85.0039C149.729 84.6445 149.48 84.209 149.305 83.6973C149.129 83.1816 149.041 82.6016 149.041 81.957V81.5176C149.041 80.8691 149.129 80.2891 149.305 79.7773C149.48 79.2656 149.727 78.8301 150.043 78.4707C150.359 78.1074 150.736 77.8301 151.174 77.6387C151.615 77.4473 152.1 77.3516 152.627 77.3516C153.162 77.3516 153.648 77.4473 154.086 77.6387C154.523 77.8301 154.9 78.1074 155.217 78.4707C155.537 78.8301 155.783 79.2656 155.955 79.7773C156.131 80.2891 156.219 80.8691 156.219 81.5176ZM154.59 81.957V81.5059C154.59 81.041 154.547 80.6328 154.461 80.2812C154.375 79.9258 154.248 79.627 154.08 79.3848C153.912 79.1426 153.705 78.9609 153.459 78.8398C153.213 78.7148 152.936 78.6523 152.627 78.6523C152.314 78.6523 152.037 78.7148 151.795 78.8398C151.557 78.9609 151.354 79.1426 151.186 79.3848C151.018 79.627 150.889 79.9258 150.799 80.2812C150.713 80.6328 150.67 81.041 150.67 81.5059V81.957C150.67 82.418 150.713 82.8262 150.799 83.1816C150.889 83.5371 151.018 83.8379 151.186 84.084C151.357 84.3262 151.564 84.5098 151.807 84.6348C152.049 84.7598 152.326 84.8223 152.639 84.8223C152.951 84.8223 153.229 84.7598 153.471 84.6348C153.713 84.5098 153.916 84.3262 154.08 84.084C154.248 83.8379 154.375 83.5371 154.461 83.1816C154.547 82.8262 154.59 82.418 154.59 81.957ZM162.33 77.4688H163.941V83.1348C163.941 83.7871 163.801 84.3359 163.52 84.7812C163.238 85.2227 162.855 85.5566 162.371 85.7832C161.887 86.0059 161.336 86.1172 160.719 86.1172C160.094 86.1172 159.537 86.0059 159.049 85.7832C158.561 85.5566 158.178 85.2227 157.9 84.7812C157.623 84.3359 157.484 83.7871 157.484 83.1348V77.4688H159.096V83.1348C159.096 83.5332 159.162 83.8594 159.295 84.1133C159.428 84.3633 159.615 84.5488 159.857 84.6699C160.1 84.791 160.387 84.8516 160.719 84.8516C161.055 84.8516 161.342 84.791 161.58 84.6699C161.822 84.5488 162.008 84.3633 162.137 84.1133C162.266 83.8594 162.33 83.5332 162.33 83.1348V77.4688ZM165.471 77.4688H168.57C169.219 77.4688 169.775 77.5664 170.24 77.7617C170.705 77.957 171.062 78.2461 171.312 78.6289C171.562 79.0117 171.688 79.4824 171.688 80.041C171.688 80.4824 171.609 80.8652 171.453 81.1895C171.297 81.5137 171.076 81.7852 170.791 82.0039C170.51 82.2227 170.178 82.3945 169.795 82.5195L169.291 82.7773H166.555L166.543 81.5059H168.588C168.92 81.5059 169.195 81.4473 169.414 81.3301C169.633 81.2129 169.797 81.0508 169.906 80.8438C170.02 80.6367 170.076 80.4004 170.076 80.1348C170.076 79.8496 170.021 79.6035 169.912 79.3965C169.803 79.1855 169.637 79.0234 169.414 78.9102C169.191 78.7969 168.91 78.7402 168.57 78.7402H167.082V86H165.471V77.4688ZM170.287 86L168.312 82.1797L170.018 82.1738L172.016 85.918V86H170.287ZM177.564 83.7852C177.564 83.6211 177.539 83.4746 177.488 83.3457C177.441 83.2129 177.354 83.0938 177.225 82.9883C177.1 82.8789 176.922 82.7734 176.691 82.6719C176.465 82.5664 176.172 82.457 175.812 82.3438C175.414 82.2188 175.043 82.0781 174.699 81.9219C174.355 81.7656 174.053 81.584 173.791 81.377C173.533 81.1699 173.332 80.9316 173.188 80.6621C173.043 80.3887 172.971 80.0723 172.971 79.7129C172.971 79.3613 173.045 79.041 173.193 78.752C173.346 78.4629 173.561 78.2148 173.838 78.0078C174.115 77.7969 174.441 77.6348 174.816 77.5215C175.195 77.4082 175.613 77.3516 176.07 77.3516C176.703 77.3516 177.25 77.4668 177.711 77.6973C178.176 77.9277 178.535 78.2402 178.789 78.6348C179.043 79.0293 179.17 79.4727 179.17 79.9648H177.564C177.564 79.6992 177.508 79.4648 177.395 79.2617C177.285 79.0586 177.117 78.8984 176.891 78.7812C176.668 78.6641 176.387 78.6055 176.047 78.6055C175.719 78.6055 175.445 78.6543 175.227 78.752C175.012 78.8496 174.85 78.9824 174.74 79.1504C174.635 79.3184 174.582 79.5059 174.582 79.7129C174.582 79.8691 174.619 80.0098 174.693 80.1348C174.768 80.2559 174.879 80.3711 175.027 80.4805C175.176 80.5859 175.359 80.6855 175.578 80.7793C175.801 80.8691 176.059 80.959 176.352 81.0488C176.82 81.1895 177.23 81.3457 177.582 81.5176C177.938 81.6895 178.232 81.8848 178.467 82.1035C178.705 82.3223 178.883 82.5684 179 82.8418C179.121 83.1152 179.182 83.4258 179.182 83.7734C179.182 84.1406 179.109 84.4688 178.965 84.7578C178.82 85.0469 178.613 85.293 178.344 85.4961C178.074 85.6992 177.75 85.8535 177.371 85.959C176.996 86.0645 176.576 86.1172 176.111 86.1172C175.697 86.1172 175.287 86.0625 174.881 85.9531C174.479 85.8398 174.113 85.6719 173.785 85.4492C173.457 85.2227 173.195 84.9375 173 84.5938C172.805 84.2461 172.707 83.8398 172.707 83.375H174.324C174.324 83.6445 174.367 83.875 174.453 84.0664C174.543 84.2539 174.668 84.4082 174.828 84.5293C174.992 84.6465 175.184 84.7324 175.402 84.7871C175.621 84.8418 175.857 84.8691 176.111 84.8691C176.439 84.8691 176.709 84.8242 176.92 84.7344C177.135 84.6406 177.295 84.5117 177.4 84.3477C177.51 84.1836 177.564 83.9961 177.564 83.7852Z" fill="#41495B"/>
<path d="M212.86 50.2422C212.86 49.6953 213.046 49.2363 213.417 48.8652C213.788 48.4844 214.291 48.2939 214.926 48.2939C215.57 48.2939 216.073 48.4844 216.435 48.8652C216.806 49.2363 216.991 49.6953 216.991 50.2422C216.991 50.7891 216.806 51.248 216.435 51.6191C216.073 51.9902 215.57 52.1758 214.926 52.1758C214.291 52.1758 213.788 51.9902 213.417 51.6191C213.046 51.248 212.86 50.7891 212.86 50.2422ZM212.875 37.7617C212.875 37.2148 213.061 36.7559 213.432 36.3848C213.803 36.0039 214.306 35.8135 214.94 35.8135C215.585 35.8135 216.088 36.0039 216.449 36.3848C216.82 36.7559 217.006 37.2148 217.006 37.7617C217.006 38.3086 216.82 38.7676 216.449 39.1387C216.088 39.5098 215.585 39.6953 214.94 39.6953C214.306 39.6953 213.803 39.5098 213.432 39.1387C213.061 38.7676 212.875 38.3086 212.875 37.7617Z" fill="black"/>
<rect x="225" y="10" width="90" height="90" rx="7" fill="#F6F6F6"/>
<rect x="232.5" y="21" width="36" height="45" rx="9" fill="#41495B"/>
<path d="M246.817 44.083L244.005 43.3945L245.162 32.6719H256.661V35.6602H248.092L247.506 40.8896C247.838 40.6943 248.297 40.5039 248.883 40.3184C249.469 40.123 250.138 40.0254 250.89 40.0254C251.896 40.0254 252.794 40.1914 253.585 40.5234C254.386 40.8457 255.064 41.3193 255.621 41.9443C256.178 42.5596 256.603 43.3115 256.896 44.2002C257.188 45.0791 257.335 46.0703 257.335 47.1738C257.335 48.1602 257.188 49.083 256.896 49.9424C256.612 50.8018 256.183 51.5586 255.606 52.2129C255.03 52.8672 254.303 53.3799 253.424 53.751C252.555 54.1123 251.524 54.293 250.333 54.293C249.444 54.293 248.59 54.166 247.77 53.9121C246.959 53.6484 246.231 53.2627 245.587 52.7549C244.942 52.2373 244.425 51.6025 244.034 50.8506C243.644 50.0889 243.419 49.2148 243.36 48.2285H246.817C246.905 48.9219 247.096 49.5127 247.389 50.001C247.691 50.4795 248.092 50.8457 248.59 51.0996C249.088 51.3535 249.664 51.4805 250.318 51.4805C250.914 51.4805 251.427 51.3779 251.856 51.1729C252.286 50.958 252.643 50.6553 252.926 50.2646C253.219 49.8643 253.434 49.3955 253.57 48.8584C253.717 48.3213 253.79 47.7256 253.79 47.0713C253.79 46.4463 253.707 45.875 253.541 45.3574C253.385 44.8398 253.146 44.3906 252.823 44.0098C252.511 43.6289 252.115 43.3359 251.637 43.1309C251.158 42.916 250.606 42.8086 249.981 42.8086C249.142 42.8086 248.497 42.9307 248.048 43.1748C247.608 43.4189 247.198 43.7217 246.817 44.083Z" fill="white"/>
<rect x="271.5" y="21" width="36" height="45" rx="9" fill="#41495B"/>
<path d="M292.775 32.54H293.215V35.4258H292.966C291.706 35.4258 290.617 35.6211 289.699 36.0117C288.791 36.4023 288.044 36.9395 287.458 37.623C286.872 38.3066 286.433 39.1074 286.14 40.0254C285.856 40.9336 285.715 41.9004 285.715 42.9258V46.2803C285.715 47.1299 285.808 47.8818 285.993 48.5361C286.179 49.1807 286.438 49.7227 286.77 50.1621C287.111 50.5918 287.502 50.9189 287.941 51.1436C288.381 51.3682 288.854 51.4805 289.362 51.4805C289.89 51.4805 290.368 51.373 290.798 51.1582C291.228 50.9336 291.594 50.626 291.896 50.2354C292.199 49.8447 292.429 49.3809 292.585 48.8438C292.741 48.3066 292.819 47.7207 292.819 47.0859C292.819 46.4805 292.741 45.9141 292.585 45.3867C292.438 44.8496 292.219 44.3809 291.926 43.9805C291.633 43.5703 291.267 43.2529 290.827 43.0283C290.397 42.7939 289.899 42.6768 289.333 42.6768C288.63 42.6768 287.99 42.8428 287.414 43.1748C286.848 43.5068 286.389 43.9414 286.037 44.4785C285.695 45.0059 285.51 45.5674 285.48 46.1631L284.133 45.7236C284.211 44.8154 284.411 44 284.733 43.2773C285.065 42.5547 285.5 41.9395 286.037 41.4316C286.574 40.9238 287.194 40.5381 287.897 40.2744C288.61 40.001 289.392 39.8643 290.241 39.8643C291.276 39.8643 292.175 40.0596 292.937 40.4502C293.698 40.8408 294.328 41.373 294.826 42.0469C295.334 42.7109 295.71 43.4727 295.954 44.332C296.208 45.1816 296.335 46.0703 296.335 46.998C296.335 48.0234 296.179 48.9805 295.866 49.8691C295.554 50.748 295.095 51.5195 294.489 52.1836C293.894 52.8477 293.166 53.3652 292.307 53.7363C291.457 54.1074 290.49 54.293 289.406 54.293C288.264 54.293 287.243 54.0732 286.345 53.6338C285.456 53.1943 284.699 52.5889 284.074 51.8174C283.459 51.0459 282.99 50.1572 282.668 49.1514C282.346 48.1455 282.185 47.0811 282.185 45.958V44.4932C282.185 42.8721 282.39 41.3438 282.8 39.9082C283.21 38.4629 283.84 37.1885 284.689 36.085C285.549 34.9814 286.647 34.1172 287.985 33.4922C289.323 32.8574 290.92 32.54 292.775 32.54Z" fill="white"/>
<path d="M256.518 77.4688H257.912L260.244 83.8906L262.57 77.4688H263.971L260.801 86H259.682L256.518 77.4688ZM255.814 77.4688H257.18L257.426 83.3691V86H255.814V77.4688ZM263.303 77.4688H264.674V86H263.062V83.3691L263.303 77.4688ZM268.031 77.4688V86H266.42V77.4688H268.031ZM276.627 77.4688V86H275.01L271.383 80.082V86H269.771V77.4688H271.383L275.021 83.3926V77.4688H276.627ZM282.732 83.7852C282.732 83.6211 282.707 83.4746 282.656 83.3457C282.609 83.2129 282.521 83.0938 282.393 82.9883C282.268 82.8789 282.09 82.7734 281.859 82.6719C281.633 82.5664 281.34 82.457 280.98 82.3438C280.582 82.2188 280.211 82.0781 279.867 81.9219C279.523 81.7656 279.221 81.584 278.959 81.377C278.701 81.1699 278.5 80.9316 278.355 80.6621C278.211 80.3887 278.139 80.0723 278.139 79.7129C278.139 79.3613 278.213 79.041 278.361 78.752C278.514 78.4629 278.729 78.2148 279.006 78.0078C279.283 77.7969 279.609 77.6348 279.984 77.5215C280.363 77.4082 280.781 77.3516 281.238 77.3516C281.871 77.3516 282.418 77.4668 282.879 77.6973C283.344 77.9277 283.703 78.2402 283.957 78.6348C284.211 79.0293 284.338 79.4727 284.338 79.9648H282.732C282.732 79.6992 282.676 79.4648 282.562 79.2617C282.453 79.0586 282.285 78.8984 282.059 78.7812C281.836 78.6641 281.555 78.6055 281.215 78.6055C280.887 78.6055 280.613 78.6543 280.395 78.752C280.18 78.8496 280.018 78.9824 279.908 79.1504C279.803 79.3184 279.75 79.5059 279.75 79.7129C279.75 79.8691 279.787 80.0098 279.861 80.1348C279.936 80.2559 280.047 80.3711 280.195 80.4805C280.344 80.5859 280.527 80.6855 280.746 80.7793C280.969 80.8691 281.227 80.959 281.52 81.0488C281.988 81.1895 282.398 81.3457 282.75 81.5176C283.105 81.6895 283.4 81.8848 283.635 82.1035C283.873 82.3223 284.051 82.5684 284.168 82.8418C284.289 83.1152 284.35 83.4258 284.35 83.7734C284.35 84.1406 284.277 84.4688 284.133 84.7578C283.988 85.0469 283.781 85.293 283.512 85.4961C283.242 85.6992 282.918 85.8535 282.539 85.959C282.164 86.0645 281.744 86.1172 281.279 86.1172C280.865 86.1172 280.455 86.0625 280.049 85.9531C279.646 85.8398 279.281 85.6719 278.953 85.4492C278.625 85.2227 278.363 84.9375 278.168 84.5938C277.973 84.2461 277.875 83.8398 277.875 83.375H279.492C279.492 83.6445 279.535 83.875 279.621 84.0664C279.711 84.2539 279.836 84.4082 279.996 84.5293C280.16 84.6465 280.352 84.7324 280.57 84.7871C280.789 84.8418 281.025 84.8691 281.279 84.8691C281.607 84.8691 281.877 84.8242 282.088 84.7344C282.303 84.6406 282.463 84.5117 282.568 84.3477C282.678 84.1836 282.732 83.9961 282.732 83.7852Z" fill="#41495B"/>
<path d="M322.86 50.2422C322.86 49.6953 323.046 49.2363 323.417 48.8652C323.788 48.4844 324.291 48.2939 324.926 48.2939C325.57 48.2939 326.073 48.4844 326.435 48.8652C326.806 49.2363 326.991 49.6953 326.991 50.2422C326.991 50.7891 326.806 51.248 326.435 51.6191C326.073 51.9902 325.57 52.1758 324.926 52.1758C324.291 52.1758 323.788 51.9902 323.417 51.6191C323.046 51.248 322.86 50.7891 322.86 50.2422ZM322.875 37.7617C322.875 37.2148 323.061 36.7559 323.432 36.3848C323.803 36.0039 324.306 35.8135 324.94 35.8135C325.585 35.8135 326.088 36.0039 326.449 36.3848C326.82 36.7559 327.006 37.2148 327.006 37.7617C327.006 38.3086 326.82 38.7676 326.449 39.1387C326.088 39.5098 325.585 39.6953 324.94 39.6953C324.306 39.6953 323.803 39.5098 323.432 39.1387C323.061 38.7676 322.875 38.3086 322.875 37.7617Z" fill="black"/>
<rect x="335" y="10" width="90" height="90" rx="7" fill="#F6F6F6"/>
<rect x="342.5" y="21" width="36" height="45" rx="9" fill="#41495B"/>
<path d="M357.257 41.7393H359.366C360.187 41.7393 360.865 41.5977 361.402 41.3145C361.949 41.0312 362.354 40.6406 362.618 40.1426C362.882 39.6445 363.014 39.0732 363.014 38.4287C363.014 37.7549 362.892 37.1787 362.647 36.7002C362.413 36.2119 362.052 35.8359 361.563 35.5723C361.085 35.3086 360.475 35.1768 359.732 35.1768C359.107 35.1768 358.541 35.3037 358.033 35.5576C357.535 35.8018 357.14 36.1533 356.847 36.6123C356.554 37.0615 356.407 37.5986 356.407 38.2236H352.862C352.862 37.0908 353.16 36.085 353.756 35.2061C354.352 34.3271 355.162 33.6387 356.188 33.1406C357.223 32.6328 358.385 32.3789 359.674 32.3789C361.051 32.3789 362.252 32.6084 363.277 33.0674C364.312 33.5166 365.118 34.1904 365.694 35.0889C366.271 35.9873 366.559 37.1006 366.559 38.4287C366.559 39.0342 366.417 39.6494 366.134 40.2744C365.851 40.8994 365.431 41.4707 364.874 41.9883C364.317 42.4961 363.624 42.9111 362.794 43.2334C361.964 43.5459 361.002 43.7021 359.908 43.7021H357.257V41.7393ZM357.257 44.4932V42.5596H359.908C361.158 42.5596 362.223 42.7061 363.102 42.999C363.99 43.292 364.713 43.6973 365.27 44.2148C365.826 44.7227 366.231 45.3037 366.485 45.958C366.749 46.6123 366.881 47.3057 366.881 48.0381C366.881 49.0342 366.7 49.9229 366.339 50.7041C365.987 51.4756 365.484 52.1299 364.83 52.667C364.176 53.2041 363.409 53.6094 362.53 53.8828C361.661 54.1562 360.714 54.293 359.688 54.293C358.771 54.293 357.892 54.166 357.052 53.9121C356.212 53.6582 355.46 53.2822 354.796 52.7842C354.132 52.2764 353.604 51.6465 353.214 50.8945C352.833 50.1328 352.643 49.2539 352.643 48.2578H356.173C356.173 48.8926 356.319 49.4541 356.612 49.9424C356.915 50.4209 357.335 50.7969 357.872 51.0703C358.419 51.3438 359.044 51.4805 359.747 51.4805C360.489 51.4805 361.129 51.3486 361.666 51.085C362.203 50.8213 362.613 50.4307 362.896 49.9131C363.189 49.3955 363.336 48.7705 363.336 48.0381C363.336 47.208 363.175 46.5342 362.853 46.0166C362.53 45.499 362.071 45.1182 361.476 44.874C360.88 44.6201 360.177 44.4932 359.366 44.4932H357.257Z" fill="white"/>
<rect x="381.5" y="21" width="36" height="45" rx="9" fill="#41495B"/>
<path d="M406.276 32.6719V34.6055L397.751 54H394.03L402.541 35.4844H391.496V32.6719H406.276Z" fill="white"/>
<path d="M370.279 83.7852C370.279 83.6211 370.254 83.4746 370.203 83.3457C370.156 83.2129 370.068 83.0938 369.939 82.9883C369.814 82.8789 369.637 82.7734 369.406 82.6719C369.18 82.5664 368.887 82.457 368.527 82.3438C368.129 82.2188 367.758 82.0781 367.414 81.9219C367.07 81.7656 366.768 81.584 366.506 81.377C366.248 81.1699 366.047 80.9316 365.902 80.6621C365.758 80.3887 365.686 80.0723 365.686 79.7129C365.686 79.3613 365.76 79.041 365.908 78.752C366.061 78.4629 366.275 78.2148 366.553 78.0078C366.83 77.7969 367.156 77.6348 367.531 77.5215C367.91 77.4082 368.328 77.3516 368.785 77.3516C369.418 77.3516 369.965 77.4668 370.426 77.6973C370.891 77.9277 371.25 78.2402 371.504 78.6348C371.758 79.0293 371.885 79.4727 371.885 79.9648H370.279C370.279 79.6992 370.223 79.4648 370.109 79.2617C370 79.0586 369.832 78.8984 369.605 78.7812C369.383 78.6641 369.102 78.6055 368.762 78.6055C368.434 78.6055 368.16 78.6543 367.941 78.752C367.727 78.8496 367.564 78.9824 367.455 79.1504C367.35 79.3184 367.297 79.5059 367.297 79.7129C367.297 79.8691 367.334 80.0098 367.408 80.1348C367.482 80.2559 367.594 80.3711 367.742 80.4805C367.891 80.5859 368.074 80.6855 368.293 80.7793C368.516 80.8691 368.773 80.959 369.066 81.0488C369.535 81.1895 369.945 81.3457 370.297 81.5176C370.652 81.6895 370.947 81.8848 371.182 82.1035C371.42 82.3223 371.598 82.5684 371.715 82.8418C371.836 83.1152 371.896 83.4258 371.896 83.7734C371.896 84.1406 371.824 84.4688 371.68 84.7578C371.535 85.0469 371.328 85.293 371.059 85.4961C370.789 85.6992 370.465 85.8535 370.086 85.959C369.711 86.0645 369.291 86.1172 368.826 86.1172C368.412 86.1172 368.002 86.0625 367.596 85.9531C367.193 85.8398 366.828 85.6719 366.5 85.4492C366.172 85.2227 365.91 84.9375 365.715 84.5938C365.52 84.2461 365.422 83.8398 365.422 83.375H367.039C367.039 83.6445 367.082 83.875 367.168 84.0664C367.258 84.2539 367.383 84.4082 367.543 84.5293C367.707 84.6465 367.898 84.7324 368.117 84.7871C368.336 84.8418 368.572 84.8691 368.826 84.8691C369.154 84.8691 369.424 84.8242 369.635 84.7344C369.85 84.6406 370.01 84.5117 370.115 84.3477C370.225 84.1836 370.279 83.9961 370.279 83.7852ZM378.793 84.7344V86H374.258V84.7344H378.793ZM374.75 77.4688V86H373.139V77.4688H374.75ZM378.201 80.9902V82.2266H374.258V80.9902H378.201ZM378.775 77.4688V78.7402H374.258V77.4688H378.775ZM384.904 83.1934H386.516C386.473 83.7637 386.314 84.2695 386.041 84.7109C385.768 85.1484 385.387 85.4922 384.898 85.7422C384.41 85.9922 383.818 86.1172 383.123 86.1172C382.588 86.1172 382.105 86.0234 381.676 85.8359C381.25 85.6445 380.885 85.373 380.58 85.0215C380.279 84.666 380.049 84.2402 379.889 83.7441C379.729 83.2441 379.648 82.6836 379.648 82.0625V81.4121C379.648 80.791 379.73 80.2305 379.895 79.7305C380.059 79.2305 380.293 78.8047 380.598 78.4531C380.906 78.0977 381.275 77.8242 381.705 77.6328C382.139 77.4414 382.623 77.3457 383.158 77.3457C383.854 77.3457 384.441 77.4746 384.922 77.7324C385.402 77.9863 385.775 78.3359 386.041 78.7812C386.307 79.2266 386.467 79.7383 386.521 80.3164H384.91C384.879 79.957 384.801 79.6523 384.676 79.4023C384.555 79.1523 384.371 78.9629 384.125 78.834C383.883 78.7012 383.561 78.6348 383.158 78.6348C382.846 78.6348 382.57 78.6934 382.332 78.8105C382.098 78.9277 381.902 79.1035 381.746 79.3379C381.59 79.5684 381.473 79.8574 381.395 80.2051C381.316 80.5488 381.277 80.9473 381.277 81.4004V82.0625C381.277 82.4961 381.312 82.8848 381.383 83.2285C381.453 83.5723 381.562 83.8633 381.711 84.1016C381.859 84.3398 382.051 84.5215 382.285 84.6465C382.52 84.7715 382.799 84.834 383.123 84.834C383.518 84.834 383.838 84.7715 384.084 84.6465C384.334 84.5215 384.523 84.3379 384.652 84.0957C384.785 83.8535 384.869 83.5527 384.904 83.1934ZM392.229 83.7852C392.229 83.6211 392.203 83.4746 392.152 83.3457C392.105 83.2129 392.018 83.0938 391.889 82.9883C391.764 82.8789 391.586 82.7734 391.355 82.6719C391.129 82.5664 390.836 82.457 390.477 82.3438C390.078 82.2188 389.707 82.0781 389.363 81.9219C389.02 81.7656 388.717 81.584 388.455 81.377C388.197 81.1699 387.996 80.9316 387.852 80.6621C387.707 80.3887 387.635 80.0723 387.635 79.7129C387.635 79.3613 387.709 79.041 387.857 78.752C388.01 78.4629 388.225 78.2148 388.502 78.0078C388.779 77.7969 389.105 77.6348 389.48 77.5215C389.859 77.4082 390.277 77.3516 390.734 77.3516C391.367 77.3516 391.914 77.4668 392.375 77.6973C392.84 77.9277 393.199 78.2402 393.453 78.6348C393.707 79.0293 393.834 79.4727 393.834 79.9648H392.229C392.229 79.6992 392.172 79.4648 392.059 79.2617C391.949 79.0586 391.781 78.8984 391.555 78.7812C391.332 78.6641 391.051 78.6055 390.711 78.6055C390.383 78.6055 390.109 78.6543 389.891 78.752C389.676 78.8496 389.514 78.9824 389.404 79.1504C389.299 79.3184 389.246 79.5059 389.246 79.7129C389.246 79.8691 389.283 80.0098 389.357 80.1348C389.432 80.2559 389.543 80.3711 389.691 80.4805C389.84 80.5859 390.023 80.6855 390.242 80.7793C390.465 80.8691 390.723 80.959 391.016 81.0488C391.484 81.1895 391.895 81.3457 392.246 81.5176C392.602 81.6895 392.896 81.8848 393.131 82.1035C393.369 82.3223 393.547 82.5684 393.664 82.8418C393.785 83.1152 393.846 83.4258 393.846 83.7734C393.846 84.1406 393.773 84.4688 393.629 84.7578C393.484 85.0469 393.277 85.293 393.008 85.4961C392.738 85.6992 392.414 85.8535 392.035 85.959C391.66 86.0645 391.24 86.1172 390.775 86.1172C390.361 86.1172 389.951 86.0625 389.545 85.9531C389.143 85.8398 388.777 85.6719 388.449 85.4492C388.121 85.2227 387.859 84.9375 387.664 84.5938C387.469 84.2461 387.371 83.8398 387.371 83.375H388.988C388.988 83.6445 389.031 83.875 389.117 84.0664C389.207 84.2539 389.332 84.4082 389.492 84.5293C389.656 84.6465 389.848 84.7324 390.066 84.7871C390.285 84.8418 390.521 84.8691 390.775 84.8691C391.104 84.8691 391.373 84.8242 391.584 84.7344C391.799 84.6406 391.959 84.5117 392.064 84.3477C392.174 84.1836 392.229 83.9961 392.229 83.7852Z" fill="#41495B"/>
</svg>
