<svg width="430" height="110" viewBox="0 0 430 110" fill="none" xmlns="http://www.w3.org/2000/svg">
<path d="M57.0859 53.9062V55.6406C57.0859 56.5729 57.0026 57.3594 56.8359 58C56.6693 58.6406 56.4297 59.1562 56.1172 59.5469C55.8047 59.9375 55.4271 60.2214 54.9844 60.3984C54.5469 60.5703 54.0521 60.6562 53.5 60.6562C53.0625 60.6562 52.6589 60.6016 52.2891 60.4922C51.9193 60.3828 51.5859 60.2083 51.2891 59.9688C50.9974 59.724 50.7474 59.4062 50.5391 59.0156C50.3307 58.625 50.1719 58.151 50.0625 57.5938C49.9531 57.0365 49.8984 56.3854 49.8984 55.6406V53.9062C49.8984 52.974 49.9818 52.1927 50.1484 51.5625C50.3203 50.9323 50.5625 50.4271 50.875 50.0469C51.1875 49.6615 51.5625 49.3854 52 49.2188C52.4427 49.0521 52.9375 48.9688 53.4844 48.9688C53.9271 48.9688 54.3333 49.0234 54.7031 49.1328C55.0781 49.237 55.4115 49.4062 55.7031 49.6406C55.9948 49.8698 56.2422 50.1771 56.4453 50.5625C56.6536 50.9427 56.8125 51.4089 56.9219 51.9609C57.0312 52.513 57.0859 53.1615 57.0859 53.9062ZM55.6328 55.875V53.6641C55.6328 53.1536 55.6016 52.7057 55.5391 52.3203C55.4818 51.9297 55.3958 51.5964 55.2812 51.3203C55.1667 51.0443 55.0208 50.8203 54.8438 50.6484C54.6719 50.4766 54.4714 50.3516 54.2422 50.2734C54.0182 50.1901 53.7656 50.1484 53.4844 50.1484C53.1406 50.1484 52.8359 50.2135 52.5703 50.3438C52.3047 50.4688 52.0807 50.6693 51.8984 50.9453C51.7214 51.2214 51.5859 51.5833 51.4922 52.0312C51.3984 52.4792 51.3516 53.0234 51.3516 53.6641V55.875C51.3516 56.3854 51.3802 56.8359 51.4375 57.2266C51.5 57.6172 51.5911 57.9557 51.7109 58.2422C51.8307 58.5234 51.9766 58.7552 52.1484 58.9375C52.3203 59.1198 52.5182 59.2552 52.7422 59.3438C52.9714 59.4271 53.224 59.4688 53.5 59.4688C53.8542 59.4688 54.1641 59.401 54.4297 59.2656C54.6953 59.1302 54.9167 58.9193 55.0938 58.6328C55.276 58.3411 55.4115 57.9688 55.5 57.5156C55.5885 57.0573 55.6328 56.5104 55.6328 55.875ZM66.6328 56.6719V57.8594H58.4141V57.0078L63.5078 49.125H64.6875L63.4219 51.4062L60.0547 56.6719H66.6328ZM65.0469 49.125V60.5H63.6016V49.125H65.0469ZM77.3984 58.8594V48.5H78.8516V60.5H77.5234L77.3984 58.8594ZM71.7109 56.3672V56.2031C71.7109 55.5573 71.7891 54.9714 71.9453 54.4453C72.1068 53.9141 72.3333 53.4583 72.625 53.0781C72.9219 52.6979 73.2734 52.4062 73.6797 52.2031C74.0911 51.9948 74.5495 51.8906 75.0547 51.8906C75.5859 51.8906 76.0495 51.9844 76.4453 52.1719C76.8464 52.3542 77.1849 52.6224 77.4609 52.9766C77.7422 53.3255 77.9635 53.7474 78.125 54.2422C78.2865 54.737 78.3984 55.2969 78.4609 55.9219V56.6406C78.4036 57.2604 78.2917 57.8177 78.125 58.3125C77.9635 58.8073 77.7422 59.2292 77.4609 59.5781C77.1849 59.9271 76.8464 60.1953 76.4453 60.3828C76.0443 60.5651 75.5755 60.6562 75.0391 60.6562C74.5443 60.6562 74.0911 60.5495 73.6797 60.3359C73.2734 60.1224 72.9219 59.8229 72.625 59.4375C72.3333 59.0521 72.1068 58.599 71.9453 58.0781C71.7891 57.5521 71.7109 56.9818 71.7109 56.3672ZM73.1641 56.2031V56.3672C73.1641 56.7891 73.2057 57.1849 73.2891 57.5547C73.3776 57.9245 73.513 58.25 73.6953 58.5312C73.8776 58.8125 74.1094 59.0339 74.3906 59.1953C74.6719 59.3516 75.0078 59.4297 75.3984 59.4297C75.8776 59.4297 76.2708 59.3281 76.5781 59.125C76.8906 58.9219 77.1406 58.6536 77.3281 58.3203C77.5156 57.987 77.6615 57.625 77.7656 57.2344V55.3516C77.7031 55.0651 77.612 54.7891 77.4922 54.5234C77.3776 54.2526 77.2266 54.013 77.0391 53.8047C76.8568 53.5911 76.6302 53.4219 76.3594 53.2969C76.0938 53.1719 75.7786 53.1094 75.4141 53.1094C75.0182 53.1094 74.6771 53.1927 74.3906 53.3594C74.1094 53.5208 73.8776 53.7448 73.6953 54.0312C73.513 54.3125 73.3776 54.6406 73.2891 55.0156C73.2057 55.3854 73.1641 55.7812 73.1641 56.2031ZM86.0859 59.0547V54.7031C86.0859 54.3698 86.0182 54.0807 85.8828 53.8359C85.7526 53.5859 85.5547 53.3932 85.2891 53.2578C85.0234 53.1224 84.6953 53.0547 84.3047 53.0547C83.9401 53.0547 83.6198 53.1172 83.3438 53.2422C83.0729 53.3672 82.8594 53.5312 82.7031 53.7344C82.5521 53.9375 82.4766 54.1562 82.4766 54.3906H81.0312C81.0312 54.0885 81.1094 53.7891 81.2656 53.4922C81.4219 53.1953 81.6458 52.9271 81.9375 52.6875C82.2344 52.4427 82.5885 52.25 83 52.1094C83.4167 51.9635 83.8802 51.8906 84.3906 51.8906C85.0052 51.8906 85.5469 51.9948 86.0156 52.2031C86.4896 52.4115 86.8594 52.7266 87.125 53.1484C87.3958 53.5651 87.5312 54.0885 87.5312 54.7188V58.6562C87.5312 58.9375 87.5547 59.237 87.6016 59.5547C87.6536 59.8724 87.7292 60.1458 87.8281 60.375V60.5H86.3203C86.2474 60.3333 86.1901 60.112 86.1484 59.8359C86.1068 59.5547 86.0859 59.2943 86.0859 59.0547ZM86.3359 55.375L86.3516 56.3906H84.8906C84.4792 56.3906 84.112 56.4245 83.7891 56.4922C83.4661 56.5547 83.1953 56.651 82.9766 56.7812C82.7578 56.9115 82.5911 57.0755 82.4766 57.2734C82.362 57.4661 82.3047 57.6927 82.3047 57.9531C82.3047 58.2188 82.3646 58.4609 82.4844 58.6797C82.6042 58.8984 82.7839 59.0729 83.0234 59.2031C83.2682 59.3281 83.5677 59.3906 83.9219 59.3906C84.3646 59.3906 84.7552 59.2969 85.0938 59.1094C85.4323 58.9219 85.7005 58.6927 85.8984 58.4219C86.1016 58.151 86.2109 57.888 86.2266 57.6328L86.8438 58.3281C86.8073 58.5469 86.7083 58.7891 86.5469 59.0547C86.3854 59.3203 86.1693 59.5755 85.8984 59.8203C85.6328 60.0599 85.3151 60.2604 84.9453 60.4219C84.5807 60.5781 84.1693 60.6562 83.7109 60.6562C83.138 60.6562 82.6354 60.5443 82.2031 60.3203C81.776 60.0964 81.4427 59.7969 81.2031 59.4219C80.9688 59.0417 80.8516 58.6172 80.8516 58.1484C80.8516 57.6953 80.9401 57.2969 81.1172 56.9531C81.2943 56.6042 81.5495 56.3151 81.8828 56.0859C82.2161 55.8516 82.6172 55.6745 83.0859 55.5547C83.5547 55.4349 84.0781 55.375 84.6562 55.375H86.3359ZM92.0547 59.625L94.4062 52.0469H95.9531L92.5625 61.8047C92.4844 62.013 92.3802 62.237 92.25 62.4766C92.125 62.7214 91.9635 62.9531 91.7656 63.1719C91.5677 63.3906 91.3281 63.5677 91.0469 63.7031C90.7708 63.8438 90.4401 63.9141 90.0547 63.9141C89.9401 63.9141 89.7943 63.8984 89.6172 63.8672C89.4401 63.8359 89.3151 63.8099 89.2422 63.7891L89.2344 62.6172C89.276 62.6224 89.3411 62.6276 89.4297 62.6328C89.5234 62.6432 89.5885 62.6484 89.625 62.6484C89.9531 62.6484 90.2318 62.6042 90.4609 62.5156C90.6901 62.4323 90.8828 62.2891 91.0391 62.0859C91.2005 61.888 91.3385 61.6146 91.4531 61.2656L92.0547 59.625ZM90.3281 52.0469L92.5234 58.6094L92.8984 60.1328L91.8594 60.6641L88.75 52.0469H90.3281ZM102.18 58.2578C102.18 58.0495 102.133 57.8568 102.039 57.6797C101.951 57.4974 101.766 57.3333 101.484 57.1875C101.208 57.0365 100.792 56.9062 100.234 56.7969C99.7656 56.6979 99.3411 56.5807 98.9609 56.4453C98.5859 56.3099 98.2656 56.1458 98 55.9531C97.7396 55.7604 97.5391 55.5339 97.3984 55.2734C97.2578 55.013 97.1875 54.7083 97.1875 54.3594C97.1875 54.026 97.2604 53.7109 97.4062 53.4141C97.5573 53.1172 97.7682 52.8542 98.0391 52.625C98.3151 52.3958 98.6458 52.2161 99.0312 52.0859C99.4167 51.9557 99.8464 51.8906 100.32 51.8906C100.997 51.8906 101.576 52.0104 102.055 52.25C102.534 52.4896 102.901 52.8099 103.156 53.2109C103.411 53.6068 103.539 54.0469 103.539 54.5312H102.094C102.094 54.2969 102.023 54.0703 101.883 53.8516C101.747 53.6276 101.547 53.4427 101.281 53.2969C101.021 53.151 100.701 53.0781 100.32 53.0781C99.9193 53.0781 99.5938 53.1406 99.3438 53.2656C99.099 53.3854 98.9193 53.5391 98.8047 53.7266C98.6953 53.9141 98.6406 54.112 98.6406 54.3203C98.6406 54.4766 98.6667 54.6172 98.7188 54.7422C98.776 54.862 98.875 54.974 99.0156 55.0781C99.1562 55.1771 99.3542 55.2708 99.6094 55.3594C99.8646 55.4479 100.19 55.5365 100.586 55.625C101.279 55.7812 101.849 55.9688 102.297 56.1875C102.745 56.4062 103.078 56.6745 103.297 56.9922C103.516 57.3099 103.625 57.6953 103.625 58.1484C103.625 58.5182 103.547 58.8568 103.391 59.1641C103.24 59.4714 103.018 59.737 102.727 59.9609C102.44 60.1797 102.096 60.3516 101.695 60.4766C101.299 60.5964 100.854 60.6562 100.359 60.6562C99.6146 60.6562 98.9844 60.5234 98.4688 60.2578C97.9531 59.9922 97.5625 59.6484 97.2969 59.2266C97.0312 58.8047 96.8984 58.3594 96.8984 57.8906H98.3516C98.3724 58.2865 98.487 58.6016 98.6953 58.8359C98.9036 59.0651 99.1589 59.2292 99.4609 59.3281C99.763 59.4219 100.062 59.4688 100.359 59.4688C100.755 59.4688 101.086 59.4167 101.352 59.3125C101.622 59.2083 101.828 59.0651 101.969 58.8828C102.109 58.7005 102.18 58.4922 102.18 58.2578ZM106.836 58.7812V59.9453C106.836 60.4193 106.716 60.9193 106.477 61.4453C106.237 61.9766 105.901 62.4193 105.469 62.7734L104.648 62.2031C104.815 61.974 104.956 61.7396 105.07 61.5C105.185 61.2656 105.271 61.0208 105.328 60.7656C105.391 60.5156 105.422 60.25 105.422 59.9688V58.7812H106.836ZM119.945 59.3125V60.5H112.5V59.4609L116.227 55.3125C116.685 54.8021 117.039 54.3698 117.289 54.0156C117.544 53.6562 117.721 53.3359 117.82 53.0547C117.924 52.7682 117.977 52.4766 117.977 52.1797C117.977 51.8047 117.898 51.4661 117.742 51.1641C117.591 50.8568 117.367 50.612 117.07 50.4297C116.773 50.2474 116.414 50.1562 115.992 50.1562C115.487 50.1562 115.065 50.2552 114.727 50.4531C114.393 50.6458 114.143 50.9167 113.977 51.2656C113.81 51.6146 113.727 52.0156 113.727 52.4688H112.281C112.281 51.8281 112.422 51.2422 112.703 50.7109C112.984 50.1797 113.401 49.7578 113.953 49.4453C114.505 49.1276 115.185 48.9688 115.992 48.9688C116.711 48.9688 117.326 49.0964 117.836 49.3516C118.346 49.6016 118.737 49.9557 119.008 50.4141C119.284 50.8672 119.422 51.3984 119.422 52.0078C119.422 52.3411 119.365 52.6797 119.25 53.0234C119.141 53.362 118.987 53.7005 118.789 54.0391C118.596 54.3776 118.37 54.7109 118.109 55.0391C117.854 55.3672 117.581 55.6901 117.289 56.0078L114.242 59.3125H119.945ZM123.602 54.1016H124.633C125.138 54.1016 125.555 54.0182 125.883 53.8516C126.216 53.6797 126.464 53.4479 126.625 53.1562C126.792 52.8594 126.875 52.526 126.875 52.1562C126.875 51.7188 126.802 51.3516 126.656 51.0547C126.51 50.7578 126.292 50.5339 126 50.3828C125.708 50.2318 125.339 50.1562 124.891 50.1562C124.484 50.1562 124.125 50.237 123.812 50.3984C123.505 50.5547 123.263 50.7786 123.086 51.0703C122.914 51.362 122.828 51.7057 122.828 52.1016H121.383C121.383 51.5234 121.529 50.9974 121.82 50.5234C122.112 50.0495 122.521 49.6719 123.047 49.3906C123.578 49.1094 124.193 48.9688 124.891 48.9688C125.578 48.9688 126.18 49.0911 126.695 49.3359C127.211 49.5755 127.612 49.9349 127.898 50.4141C128.185 50.888 128.328 51.4792 128.328 52.1875C128.328 52.474 128.26 52.7812 128.125 53.1094C127.995 53.4323 127.789 53.7344 127.508 54.0156C127.232 54.2969 126.872 54.5286 126.43 54.7109C125.987 54.888 125.456 54.9766 124.836 54.9766H123.602V54.1016ZM123.602 55.2891V54.4219H124.836C125.56 54.4219 126.159 54.5078 126.633 54.6797C127.107 54.8516 127.479 55.0807 127.75 55.3672C128.026 55.6536 128.219 55.9688 128.328 56.3125C128.443 56.651 128.5 56.9896 128.5 57.3281C128.5 57.8594 128.409 58.3307 128.227 58.7422C128.049 59.1536 127.797 59.5026 127.469 59.7891C127.146 60.0755 126.766 60.2917 126.328 60.4375C125.891 60.5833 125.414 60.6562 124.898 60.6562C124.404 60.6562 123.938 60.5859 123.5 60.4453C123.068 60.3047 122.685 60.1016 122.352 59.8359C122.018 59.5651 121.758 59.2344 121.57 58.8438C121.383 58.4479 121.289 57.9974 121.289 57.4922H122.734C122.734 57.888 122.82 58.2344 122.992 58.5312C123.169 58.8281 123.419 59.0599 123.742 59.2266C124.07 59.388 124.456 59.4688 124.898 59.4688C125.341 59.4688 125.721 59.3932 126.039 59.2422C126.362 59.0859 126.609 58.8516 126.781 58.5391C126.958 58.2266 127.047 57.8333 127.047 57.3594C127.047 56.8854 126.948 56.4974 126.75 56.1953C126.552 55.888 126.271 55.6615 125.906 55.5156C125.547 55.3646 125.122 55.2891 124.633 55.2891H123.602ZM136.062 48.5V60.5H134.617V48.5H136.062ZM135.719 55.9531L135.117 55.9297C135.122 55.3516 135.208 54.8177 135.375 54.3281C135.542 53.8333 135.776 53.4036 136.078 53.0391C136.38 52.6745 136.74 52.3932 137.156 52.1953C137.578 51.9922 138.044 51.8906 138.555 51.8906C138.971 51.8906 139.346 51.9479 139.68 52.0625C140.013 52.1719 140.297 52.349 140.531 52.5938C140.771 52.8385 140.953 53.1562 141.078 53.5469C141.203 53.9323 141.266 54.4036 141.266 54.9609V60.5H139.812V54.9453C139.812 54.5026 139.747 54.1484 139.617 53.8828C139.487 53.612 139.297 53.4167 139.047 53.2969C138.797 53.1719 138.49 53.1094 138.125 53.1094C137.766 53.1094 137.438 53.1849 137.141 53.3359C136.849 53.487 136.596 53.6953 136.383 53.9609C136.174 54.2266 136.01 54.5312 135.891 54.875C135.776 55.2135 135.719 55.5729 135.719 55.9531ZM143.047 56.3672V56.1875C143.047 55.5781 143.135 55.013 143.312 54.4922C143.49 53.9661 143.745 53.5104 144.078 53.125C144.411 52.7344 144.815 52.4323 145.289 52.2188C145.763 52 146.294 51.8906 146.883 51.8906C147.477 51.8906 148.01 52 148.484 52.2188C148.964 52.4323 149.37 52.7344 149.703 53.125C150.042 53.5104 150.299 53.9661 150.477 54.4922C150.654 55.013 150.742 55.5781 150.742 56.1875V56.3672C150.742 56.9766 150.654 57.5417 150.477 58.0625C150.299 58.5833 150.042 59.0391 149.703 59.4297C149.37 59.8151 148.966 60.1172 148.492 60.3359C148.023 60.5495 147.492 60.6562 146.898 60.6562C146.305 60.6562 145.771 60.5495 145.297 60.3359C144.823 60.1172 144.417 59.8151 144.078 59.4297C143.745 59.0391 143.49 58.5833 143.312 58.0625C143.135 57.5417 143.047 56.9766 143.047 56.3672ZM144.492 56.1875V56.3672C144.492 56.7891 144.542 57.1875 144.641 57.5625C144.74 57.9323 144.888 58.2604 145.086 58.5469C145.289 58.8333 145.542 59.0599 145.844 59.2266C146.146 59.388 146.497 59.4688 146.898 59.4688C147.294 59.4688 147.641 59.388 147.938 59.2266C148.24 59.0599 148.49 58.8333 148.688 58.5469C148.885 58.2604 149.034 57.9323 149.133 57.5625C149.237 57.1875 149.289 56.7891 149.289 56.3672V56.1875C149.289 55.7708 149.237 55.3776 149.133 55.0078C149.034 54.6328 148.883 54.3021 148.68 54.0156C148.482 53.724 148.232 53.4948 147.93 53.3281C147.633 53.1615 147.284 53.0781 146.883 53.0781C146.487 53.0781 146.138 53.1615 145.836 53.3281C145.539 53.4948 145.289 53.724 145.086 54.0156C144.888 54.3021 144.74 54.6328 144.641 55.0078C144.542 55.3776 144.492 55.7708 144.492 56.1875ZM157.727 58.5469V52.0469H159.18V60.5H157.797L157.727 58.5469ZM158 56.7656L158.602 56.75C158.602 57.3125 158.542 57.8333 158.422 58.3125C158.307 58.7865 158.12 59.1979 157.859 59.5469C157.599 59.8958 157.258 60.1693 156.836 60.3672C156.414 60.5599 155.901 60.6562 155.297 60.6562C154.885 60.6562 154.508 60.5964 154.164 60.4766C153.826 60.3568 153.534 60.1719 153.289 59.9219C153.044 59.6719 152.854 59.3464 152.719 58.9453C152.589 58.5443 152.523 58.0625 152.523 57.5V52.0469H153.969V57.5156C153.969 57.8958 154.01 58.2109 154.094 58.4609C154.182 58.7057 154.299 58.901 154.445 59.0469C154.596 59.1875 154.763 59.2865 154.945 59.3438C155.133 59.401 155.326 59.4297 155.523 59.4297C156.138 59.4297 156.625 59.3125 156.984 59.0781C157.344 58.8385 157.602 58.5182 157.758 58.1172C157.919 57.7109 158 57.2604 158 56.7656ZM162.828 53.375V60.5H161.383V52.0469H162.789L162.828 53.375ZM165.469 52L165.461 53.3438C165.341 53.3177 165.227 53.3021 165.117 53.2969C165.013 53.2865 164.893 53.2812 164.758 53.2812C164.424 53.2812 164.13 53.3333 163.875 53.4375C163.62 53.5417 163.404 53.6875 163.227 53.875C163.049 54.0625 162.909 54.2865 162.805 54.5469C162.706 54.8021 162.641 55.0833 162.609 55.3906L162.203 55.625C162.203 55.1146 162.253 54.6354 162.352 54.1875C162.456 53.7396 162.615 53.3438 162.828 53C163.042 52.651 163.312 52.3802 163.641 52.1875C163.974 51.9896 164.37 51.8906 164.828 51.8906C164.932 51.8906 165.052 51.9036 165.188 51.9297C165.323 51.9505 165.417 51.974 165.469 52ZM171.727 58.2578C171.727 58.0495 171.68 57.8568 171.586 57.6797C171.497 57.4974 171.312 57.3333 171.031 57.1875C170.755 57.0365 170.339 56.9062 169.781 56.7969C169.312 56.6979 168.888 56.5807 168.508 56.4453C168.133 56.3099 167.812 56.1458 167.547 55.9531C167.286 55.7604 167.086 55.5339 166.945 55.2734C166.805 55.013 166.734 54.7083 166.734 54.3594C166.734 54.026 166.807 53.7109 166.953 53.4141C167.104 53.1172 167.315 52.8542 167.586 52.625C167.862 52.3958 168.193 52.2161 168.578 52.0859C168.964 51.9557 169.393 51.8906 169.867 51.8906C170.544 51.8906 171.122 52.0104 171.602 52.25C172.081 52.4896 172.448 52.8099 172.703 53.2109C172.958 53.6068 173.086 54.0469 173.086 54.5312H171.641C171.641 54.2969 171.57 54.0703 171.43 53.8516C171.294 53.6276 171.094 53.4427 170.828 53.2969C170.568 53.151 170.247 53.0781 169.867 53.0781C169.466 53.0781 169.141 53.1406 168.891 53.2656C168.646 53.3854 168.466 53.5391 168.352 53.7266C168.242 53.9141 168.188 54.112 168.188 54.3203C168.188 54.4766 168.214 54.6172 168.266 54.7422C168.323 54.862 168.422 54.974 168.562 55.0781C168.703 55.1771 168.901 55.2708 169.156 55.3594C169.411 55.4479 169.737 55.5365 170.133 55.625C170.826 55.7812 171.396 55.9688 171.844 56.1875C172.292 56.4062 172.625 56.6745 172.844 56.9922C173.062 57.3099 173.172 57.6953 173.172 58.1484C173.172 58.5182 173.094 58.8568 172.938 59.1641C172.786 59.4714 172.565 59.737 172.273 59.9609C171.987 60.1797 171.643 60.3516 171.242 60.4766C170.846 60.5964 170.401 60.6562 169.906 60.6562C169.161 60.6562 168.531 60.5234 168.016 60.2578C167.5 59.9922 167.109 59.6484 166.844 59.2266C166.578 58.8047 166.445 58.3594 166.445 57.8906H167.898C167.919 58.2865 168.034 58.6016 168.242 58.8359C168.451 59.0651 168.706 59.2292 169.008 59.3281C169.31 59.4219 169.609 59.4688 169.906 59.4688C170.302 59.4688 170.633 59.4167 170.898 59.3125C171.169 59.2083 171.375 59.0651 171.516 58.8828C171.656 58.7005 171.727 58.4922 171.727 58.2578ZM176.383 58.7812V59.9453C176.383 60.4193 176.263 60.9193 176.023 61.4453C175.784 61.9766 175.448 62.4193 175.016 62.7734L174.195 62.2031C174.362 61.974 174.503 61.7396 174.617 61.5C174.732 61.2656 174.818 61.0208 174.875 60.7656C174.938 60.5156 174.969 60.25 174.969 59.9688V58.7812H176.383ZM183.867 55.0859L182.711 54.7891L183.281 49.125H189.117V50.4609H184.508L184.164 53.5547C184.372 53.4349 184.635 53.3229 184.953 53.2188C185.276 53.1146 185.646 53.0625 186.062 53.0625C186.589 53.0625 187.06 53.1536 187.477 53.3359C187.893 53.513 188.247 53.7682 188.539 54.1016C188.836 54.4349 189.062 54.8359 189.219 55.3047C189.375 55.7734 189.453 56.2969 189.453 56.875C189.453 57.4219 189.378 57.9245 189.227 58.3828C189.081 58.8411 188.859 59.2422 188.562 59.5859C188.266 59.9245 187.891 60.1875 187.438 60.375C186.99 60.5625 186.461 60.6562 185.852 60.6562C185.393 60.6562 184.958 60.5938 184.547 60.4688C184.141 60.3385 183.776 60.1432 183.453 59.8828C183.135 59.6172 182.875 59.2891 182.672 58.8984C182.474 58.5026 182.349 58.0391 182.297 57.5078H183.672C183.734 57.9349 183.859 58.2943 184.047 58.5859C184.234 58.8776 184.479 59.099 184.781 59.25C185.089 59.3958 185.445 59.4688 185.852 59.4688C186.195 59.4688 186.5 59.4089 186.766 59.2891C187.031 59.1693 187.255 58.9974 187.438 58.7734C187.62 58.5495 187.758 58.2786 187.852 57.9609C187.951 57.6432 188 57.2865 188 56.8906C188 56.5312 187.951 56.1979 187.852 55.8906C187.753 55.5833 187.604 55.3151 187.406 55.0859C187.214 54.8568 186.977 54.6797 186.695 54.5547C186.414 54.4245 186.091 54.3594 185.727 54.3594C185.242 54.3594 184.875 54.4245 184.625 54.5547C184.38 54.6849 184.128 54.862 183.867 55.0859ZM196.586 49.1094H196.711V50.3359H196.586C195.82 50.3359 195.18 50.4609 194.664 50.7109C194.148 50.9557 193.74 51.2865 193.438 51.7031C193.135 52.1146 192.917 52.5781 192.781 53.0938C192.651 53.6094 192.586 54.1328 192.586 54.6641V56.3359C192.586 56.8411 192.646 57.2891 192.766 57.6797C192.885 58.0651 193.049 58.3906 193.258 58.6562C193.466 58.9219 193.701 59.1224 193.961 59.2578C194.227 59.3932 194.503 59.4609 194.789 59.4609C195.122 59.4609 195.419 59.3984 195.68 59.2734C195.94 59.1432 196.159 58.9635 196.336 58.7344C196.518 58.5 196.656 58.224 196.75 57.9062C196.844 57.5885 196.891 57.2396 196.891 56.8594C196.891 56.5208 196.849 56.1953 196.766 55.8828C196.682 55.5651 196.555 55.2839 196.383 55.0391C196.211 54.7891 195.995 54.5938 195.734 54.4531C195.479 54.3073 195.174 54.2344 194.82 54.2344C194.419 54.2344 194.044 54.3333 193.695 54.5312C193.352 54.724 193.068 54.9792 192.844 55.2969C192.625 55.6094 192.5 55.9505 192.469 56.3203L191.703 56.3125C191.776 55.7292 191.911 55.2318 192.109 54.8203C192.312 54.4036 192.562 54.0651 192.859 53.8047C193.161 53.5391 193.497 53.3464 193.867 53.2266C194.242 53.1016 194.638 53.0391 195.055 53.0391C195.622 53.0391 196.112 53.1458 196.523 53.3594C196.935 53.5729 197.273 53.8594 197.539 54.2188C197.805 54.5729 198 54.974 198.125 55.4219C198.255 55.8646 198.32 56.3203 198.32 56.7891C198.32 57.3255 198.245 57.8281 198.094 58.2969C197.943 58.7656 197.716 59.1771 197.414 59.5312C197.117 59.8854 196.75 60.1615 196.312 60.3594C195.875 60.5573 195.367 60.6562 194.789 60.6562C194.174 60.6562 193.638 60.5312 193.18 60.2812C192.721 60.026 192.341 59.6875 192.039 59.2656C191.737 58.8438 191.51 58.375 191.359 57.8594C191.208 57.3438 191.133 56.8203 191.133 56.2891V55.6094C191.133 54.8073 191.214 54.0208 191.375 53.25C191.536 52.4792 191.815 51.7812 192.211 51.1562C192.612 50.5312 193.167 50.0339 193.875 49.6641C194.583 49.2943 195.487 49.1094 196.586 49.1094ZM205.602 53.7266V60.5H204.148V52.0469H205.523L205.602 53.7266ZM205.305 55.9531L204.633 55.9297C204.638 55.3516 204.714 54.8177 204.859 54.3281C205.005 53.8333 205.221 53.4036 205.508 53.0391C205.794 52.6745 206.151 52.3932 206.578 52.1953C207.005 51.9922 207.5 51.8906 208.062 51.8906C208.458 51.8906 208.823 51.9479 209.156 52.0625C209.49 52.1719 209.779 52.3464 210.023 52.5859C210.268 52.8255 210.458 53.1328 210.594 53.5078C210.729 53.8828 210.797 54.3359 210.797 54.8672V60.5H209.352V54.9375C209.352 54.4948 209.276 54.1406 209.125 53.875C208.979 53.6094 208.771 53.4167 208.5 53.2969C208.229 53.1719 207.911 53.1094 207.547 53.1094C207.12 53.1094 206.763 53.1849 206.477 53.3359C206.19 53.487 205.961 53.6953 205.789 53.9609C205.617 54.2266 205.492 54.5312 205.414 54.875C205.341 55.2135 205.305 55.5729 205.305 55.9531ZM210.781 55.1562L209.812 55.4531C209.818 54.9896 209.893 54.5443 210.039 54.1172C210.19 53.6901 210.406 53.3099 210.688 52.9766C210.974 52.6432 211.326 52.3802 211.742 52.1875C212.159 51.9896 212.635 51.8906 213.172 51.8906C213.625 51.8906 214.026 51.9505 214.375 52.0703C214.729 52.1901 215.026 52.375 215.266 52.625C215.51 52.8698 215.695 53.1849 215.82 53.5703C215.945 53.9557 216.008 54.4141 216.008 54.9453V60.5H214.555V54.9297C214.555 54.4557 214.479 54.0885 214.328 53.8281C214.182 53.5625 213.974 53.3776 213.703 53.2734C213.438 53.1641 213.12 53.1094 212.75 53.1094C212.432 53.1094 212.151 53.1641 211.906 53.2734C211.661 53.3828 211.456 53.5339 211.289 53.7266C211.122 53.9141 210.995 54.1302 210.906 54.375C210.823 54.6198 210.781 54.8802 210.781 55.1562ZM219.766 52.0469V60.5H218.312V52.0469H219.766ZM218.203 49.8047C218.203 49.5703 218.273 49.3724 218.414 49.2109C218.56 49.0495 218.773 48.9688 219.055 48.9688C219.331 48.9688 219.542 49.0495 219.688 49.2109C219.839 49.3724 219.914 49.5703 219.914 49.8047C219.914 50.0286 219.839 50.2214 219.688 50.3828C219.542 50.5391 219.331 50.6172 219.055 50.6172C218.773 50.6172 218.56 50.5391 218.414 50.3828C218.273 50.2214 218.203 50.0286 218.203 49.8047ZM223.531 53.8516V60.5H222.086V52.0469H223.453L223.531 53.8516ZM223.188 55.9531L222.586 55.9297C222.591 55.3516 222.677 54.8177 222.844 54.3281C223.01 53.8333 223.245 53.4036 223.547 53.0391C223.849 52.6745 224.208 52.3932 224.625 52.1953C225.047 51.9922 225.513 51.8906 226.023 51.8906C226.44 51.8906 226.815 51.9479 227.148 52.0625C227.482 52.1719 227.766 52.349 228 52.5938C228.24 52.8385 228.422 53.1562 228.547 53.5469C228.672 53.9323 228.734 54.4036 228.734 54.9609V60.5H227.281V54.9453C227.281 54.5026 227.216 54.1484 227.086 53.8828C226.956 53.612 226.766 53.4167 226.516 53.2969C226.266 53.1719 225.958 53.1094 225.594 53.1094C225.234 53.1094 224.906 53.1849 224.609 53.3359C224.318 53.487 224.065 53.6953 223.852 53.9609C223.643 54.2266 223.479 54.5312 223.359 54.875C223.245 55.2135 223.188 55.5729 223.188 55.9531ZM236.102 58.5469V52.0469H237.555V60.5H236.172L236.102 58.5469ZM236.375 56.7656L236.977 56.75C236.977 57.3125 236.917 57.8333 236.797 58.3125C236.682 58.7865 236.495 59.1979 236.234 59.5469C235.974 59.8958 235.633 60.1693 235.211 60.3672C234.789 60.5599 234.276 60.6562 233.672 60.6562C233.26 60.6562 232.883 60.5964 232.539 60.4766C232.201 60.3568 231.909 60.1719 231.664 59.9219C231.419 59.6719 231.229 59.3464 231.094 58.9453C230.964 58.5443 230.898 58.0625 230.898 57.5V52.0469H232.344V57.5156C232.344 57.8958 232.385 58.2109 232.469 58.4609C232.557 58.7057 232.674 58.901 232.82 59.0469C232.971 59.1875 233.138 59.2865 233.32 59.3438C233.508 59.401 233.701 59.4297 233.898 59.4297C234.513 59.4297 235 59.3125 235.359 59.0781C235.719 58.8385 235.977 58.5182 236.133 58.1172C236.294 57.7109 236.375 57.2604 236.375 56.7656ZM243.297 52.0469V53.1562H238.727V52.0469H243.297ZM240.273 49.9922H241.719V58.4062C241.719 58.6927 241.763 58.9089 241.852 59.0547C241.94 59.2005 242.055 59.2969 242.195 59.3438C242.336 59.3906 242.487 59.4141 242.648 59.4141C242.768 59.4141 242.893 59.4036 243.023 59.3828C243.159 59.3568 243.26 59.3359 243.328 59.3203L243.336 60.5C243.221 60.5365 243.07 60.5703 242.883 60.6016C242.701 60.638 242.479 60.6562 242.219 60.6562C241.865 60.6562 241.539 60.5859 241.242 60.4453C240.945 60.3047 240.708 60.0703 240.531 59.7422C240.359 59.4089 240.273 58.9609 240.273 58.3984V49.9922ZM248.5 60.6562C247.911 60.6562 247.378 60.5573 246.898 60.3594C246.424 60.1562 246.016 59.8724 245.672 59.5078C245.333 59.1432 245.073 58.7109 244.891 58.2109C244.708 57.7109 244.617 57.1641 244.617 56.5703V56.2422C244.617 55.5547 244.719 54.9427 244.922 54.4062C245.125 53.8646 245.401 53.4062 245.75 53.0312C246.099 52.6562 246.495 52.3724 246.938 52.1797C247.38 51.987 247.839 51.8906 248.312 51.8906C248.917 51.8906 249.438 51.9948 249.875 52.2031C250.318 52.4115 250.68 52.7031 250.961 53.0781C251.242 53.4479 251.451 53.8854 251.586 54.3906C251.721 54.8906 251.789 55.4375 251.789 56.0312V56.6797H245.477V55.5H250.344V55.3906C250.323 55.0156 250.245 54.651 250.109 54.2969C249.979 53.9427 249.771 53.651 249.484 53.4219C249.198 53.1927 248.807 53.0781 248.312 53.0781C247.984 53.0781 247.682 53.1484 247.406 53.2891C247.13 53.4245 246.893 53.6276 246.695 53.8984C246.497 54.1693 246.344 54.5 246.234 54.8906C246.125 55.2812 246.07 55.7318 246.07 56.2422V56.5703C246.07 56.9714 246.125 57.349 246.234 57.7031C246.349 58.0521 246.513 58.3594 246.727 58.625C246.945 58.8906 247.208 59.099 247.516 59.25C247.828 59.401 248.182 59.4766 248.578 59.4766C249.089 59.4766 249.521 59.3724 249.875 59.1641C250.229 58.9557 250.539 58.6771 250.805 58.3281L251.68 59.0234C251.497 59.2995 251.266 59.5625 250.984 59.8125C250.703 60.0625 250.357 60.2656 249.945 60.4219C249.539 60.5781 249.057 60.6562 248.5 60.6562ZM258.398 58.2578C258.398 58.0495 258.352 57.8568 258.258 57.6797C258.169 57.4974 257.984 57.3333 257.703 57.1875C257.427 57.0365 257.01 56.9062 256.453 56.7969C255.984 56.6979 255.56 56.5807 255.18 56.4453C254.805 56.3099 254.484 56.1458 254.219 55.9531C253.958 55.7604 253.758 55.5339 253.617 55.2734C253.477 55.013 253.406 54.7083 253.406 54.3594C253.406 54.026 253.479 53.7109 253.625 53.4141C253.776 53.1172 253.987 52.8542 254.258 52.625C254.534 52.3958 254.865 52.2161 255.25 52.0859C255.635 51.9557 256.065 51.8906 256.539 51.8906C257.216 51.8906 257.794 52.0104 258.273 52.25C258.753 52.4896 259.12 52.8099 259.375 53.2109C259.63 53.6068 259.758 54.0469 259.758 54.5312H258.312C258.312 54.2969 258.242 54.0703 258.102 53.8516C257.966 53.6276 257.766 53.4427 257.5 53.2969C257.24 53.151 256.919 53.0781 256.539 53.0781C256.138 53.0781 255.812 53.1406 255.562 53.2656C255.318 53.3854 255.138 53.5391 255.023 53.7266C254.914 53.9141 254.859 54.112 254.859 54.3203C254.859 54.4766 254.885 54.6172 254.938 54.7422C254.995 54.862 255.094 54.974 255.234 55.0781C255.375 55.1771 255.573 55.2708 255.828 55.3594C256.083 55.4479 256.409 55.5365 256.805 55.625C257.497 55.7812 258.068 55.9688 258.516 56.1875C258.964 56.4062 259.297 56.6745 259.516 56.9922C259.734 57.3099 259.844 57.6953 259.844 58.1484C259.844 58.5182 259.766 58.8568 259.609 59.1641C259.458 59.4714 259.237 59.737 258.945 59.9609C258.659 60.1797 258.315 60.3516 257.914 60.4766C257.518 60.5964 257.073 60.6562 256.578 60.6562C255.833 60.6562 255.203 60.5234 254.688 60.2578C254.172 59.9922 253.781 59.6484 253.516 59.2266C253.25 58.8047 253.117 58.3594 253.117 57.8906H254.57C254.591 58.2865 254.706 58.6016 254.914 58.8359C255.122 59.0651 255.378 59.2292 255.68 59.3281C255.982 59.4219 256.281 59.4688 256.578 59.4688C256.974 59.4688 257.305 59.4167 257.57 59.3125C257.841 59.2083 258.047 59.0651 258.188 58.8828C258.328 58.7005 258.398 58.4922 258.398 58.2578ZM263.055 58.7812V59.9453C263.055 60.4193 262.935 60.9193 262.695 61.4453C262.456 61.9766 262.12 62.4193 261.688 62.7734L260.867 62.2031C261.034 61.974 261.174 61.7396 261.289 61.5C261.404 61.2656 261.49 61.0208 261.547 60.7656C261.609 60.5156 261.641 60.25 261.641 59.9688V58.7812H263.055ZM273.852 59.0547V54.7031C273.852 54.3698 273.784 54.0807 273.648 53.8359C273.518 53.5859 273.32 53.3932 273.055 53.2578C272.789 53.1224 272.461 53.0547 272.07 53.0547C271.706 53.0547 271.385 53.1172 271.109 53.2422C270.839 53.3672 270.625 53.5312 270.469 53.7344C270.318 53.9375 270.242 54.1562 270.242 54.3906H268.797C268.797 54.0885 268.875 53.7891 269.031 53.4922C269.188 53.1953 269.411 52.9271 269.703 52.6875C270 52.4427 270.354 52.25 270.766 52.1094C271.182 51.9635 271.646 51.8906 272.156 51.8906C272.771 51.8906 273.312 51.9948 273.781 52.2031C274.255 52.4115 274.625 52.7266 274.891 53.1484C275.161 53.5651 275.297 54.0885 275.297 54.7188V58.6562C275.297 58.9375 275.32 59.237 275.367 59.5547C275.419 59.8724 275.495 60.1458 275.594 60.375V60.5H274.086C274.013 60.3333 273.956 60.112 273.914 59.8359C273.872 59.5547 273.852 59.2943 273.852 59.0547ZM274.102 55.375L274.117 56.3906H272.656C272.245 56.3906 271.878 56.4245 271.555 56.4922C271.232 56.5547 270.961 56.651 270.742 56.7812C270.523 56.9115 270.357 57.0755 270.242 57.2734C270.128 57.4661 270.07 57.6927 270.07 57.9531C270.07 58.2188 270.13 58.4609 270.25 58.6797C270.37 58.8984 270.549 59.0729 270.789 59.2031C271.034 59.3281 271.333 59.3906 271.688 59.3906C272.13 59.3906 272.521 59.2969 272.859 59.1094C273.198 58.9219 273.466 58.6927 273.664 58.4219C273.867 58.151 273.977 57.888 273.992 57.6328L274.609 58.3281C274.573 58.5469 274.474 58.7891 274.312 59.0547C274.151 59.3203 273.935 59.5755 273.664 59.8203C273.398 60.0599 273.081 60.2604 272.711 60.4219C272.346 60.5781 271.935 60.6562 271.477 60.6562C270.904 60.6562 270.401 60.5443 269.969 60.3203C269.542 60.0964 269.208 59.7969 268.969 59.4219C268.734 59.0417 268.617 58.6172 268.617 58.1484C268.617 57.6953 268.706 57.2969 268.883 56.9531C269.06 56.6042 269.315 56.3151 269.648 56.0859C269.982 55.8516 270.383 55.6745 270.852 55.5547C271.32 55.4349 271.844 55.375 272.422 55.375H274.102ZM279.016 53.8516V60.5H277.57V52.0469H278.938L279.016 53.8516ZM278.672 55.9531L278.07 55.9297C278.076 55.3516 278.161 54.8177 278.328 54.3281C278.495 53.8333 278.729 53.4036 279.031 53.0391C279.333 52.6745 279.693 52.3932 280.109 52.1953C280.531 51.9922 280.997 51.8906 281.508 51.8906C281.924 51.8906 282.299 51.9479 282.633 52.0625C282.966 52.1719 283.25 52.349 283.484 52.5938C283.724 52.8385 283.906 53.1562 284.031 53.5469C284.156 53.9323 284.219 54.4036 284.219 54.9609V60.5H282.766V54.9453C282.766 54.5026 282.701 54.1484 282.57 53.8828C282.44 53.612 282.25 53.4167 282 53.2969C281.75 53.1719 281.443 53.1094 281.078 53.1094C280.719 53.1094 280.391 53.1849 280.094 53.3359C279.802 53.487 279.549 53.6953 279.336 53.9609C279.128 54.2266 278.964 54.5312 278.844 54.875C278.729 55.2135 278.672 55.5729 278.672 55.9531ZM291.742 58.8594V48.5H293.195V60.5H291.867L291.742 58.8594ZM286.055 56.3672V56.2031C286.055 55.5573 286.133 54.9714 286.289 54.4453C286.451 53.9141 286.677 53.4583 286.969 53.0781C287.266 52.6979 287.617 52.4062 288.023 52.2031C288.435 51.9948 288.893 51.8906 289.398 51.8906C289.93 51.8906 290.393 51.9844 290.789 52.1719C291.19 52.3542 291.529 52.6224 291.805 52.9766C292.086 53.3255 292.307 53.7474 292.469 54.2422C292.63 54.737 292.742 55.2969 292.805 55.9219V56.6406C292.747 57.2604 292.635 57.8177 292.469 58.3125C292.307 58.8073 292.086 59.2292 291.805 59.5781C291.529 59.9271 291.19 60.1953 290.789 60.3828C290.388 60.5651 289.919 60.6562 289.383 60.6562C288.888 60.6562 288.435 60.5495 288.023 60.3359C287.617 60.1224 287.266 59.8229 286.969 59.4375C286.677 59.0521 286.451 58.599 286.289 58.0781C286.133 57.5521 286.055 56.9818 286.055 56.3672ZM287.508 56.2031V56.3672C287.508 56.7891 287.549 57.1849 287.633 57.5547C287.721 57.9245 287.857 58.25 288.039 58.5312C288.221 58.8125 288.453 59.0339 288.734 59.1953C289.016 59.3516 289.352 59.4297 289.742 59.4297C290.221 59.4297 290.615 59.3281 290.922 59.125C291.234 58.9219 291.484 58.6536 291.672 58.3203C291.859 57.987 292.005 57.625 292.109 57.2344V55.3516C292.047 55.0651 291.956 54.7891 291.836 54.5234C291.721 54.2526 291.57 54.013 291.383 53.8047C291.201 53.5911 290.974 53.4219 290.703 53.2969C290.438 53.1719 290.122 53.1094 289.758 53.1094C289.362 53.1094 289.021 53.1927 288.734 53.3594C288.453 53.5208 288.221 53.7448 288.039 54.0312C287.857 54.3125 287.721 54.6406 287.633 55.0156C287.549 55.3854 287.508 55.7812 287.508 56.2031ZM301.367 54.1016H302.398C302.904 54.1016 303.32 54.0182 303.648 53.8516C303.982 53.6797 304.229 53.4479 304.391 53.1562C304.557 52.8594 304.641 52.526 304.641 52.1562C304.641 51.7188 304.568 51.3516 304.422 51.0547C304.276 50.7578 304.057 50.5339 303.766 50.3828C303.474 50.2318 303.104 50.1562 302.656 50.1562C302.25 50.1562 301.891 50.237 301.578 50.3984C301.271 50.5547 301.029 50.7786 300.852 51.0703C300.68 51.362 300.594 51.7057 300.594 52.1016H299.148C299.148 51.5234 299.294 50.9974 299.586 50.5234C299.878 50.0495 300.286 49.6719 300.812 49.3906C301.344 49.1094 301.958 48.9688 302.656 48.9688C303.344 48.9688 303.945 49.0911 304.461 49.3359C304.977 49.5755 305.378 49.9349 305.664 50.4141C305.951 50.888 306.094 51.4792 306.094 52.1875C306.094 52.474 306.026 52.7812 305.891 53.1094C305.76 53.4323 305.555 53.7344 305.273 54.0156C304.997 54.2969 304.638 54.5286 304.195 54.7109C303.753 54.888 303.221 54.9766 302.602 54.9766H301.367V54.1016ZM301.367 55.2891V54.4219H302.602C303.326 54.4219 303.924 54.5078 304.398 54.6797C304.872 54.8516 305.245 55.0807 305.516 55.3672C305.792 55.6536 305.984 55.9688 306.094 56.3125C306.208 56.651 306.266 56.9896 306.266 57.3281C306.266 57.8594 306.174 58.3307 305.992 58.7422C305.815 59.1536 305.562 59.5026 305.234 59.7891C304.911 60.0755 304.531 60.2917 304.094 60.4375C303.656 60.5833 303.18 60.6562 302.664 60.6562C302.169 60.6562 301.703 60.5859 301.266 60.4453C300.833 60.3047 300.451 60.1016 300.117 59.8359C299.784 59.5651 299.523 59.2344 299.336 58.8438C299.148 58.4479 299.055 57.9974 299.055 57.4922H300.5C300.5 57.888 300.586 58.2344 300.758 58.5312C300.935 58.8281 301.185 59.0599 301.508 59.2266C301.836 59.388 302.221 59.4688 302.664 59.4688C303.107 59.4688 303.487 59.3932 303.805 59.2422C304.128 59.0859 304.375 58.8516 304.547 58.5391C304.724 58.2266 304.812 57.8333 304.812 57.3594C304.812 56.8854 304.714 56.4974 304.516 56.1953C304.318 55.888 304.036 55.6615 303.672 55.5156C303.312 55.3646 302.888 55.2891 302.398 55.2891H301.367ZM315.609 49.125V49.9375L310.898 60.5H309.375L314.078 50.3125H307.922V49.125H315.609ZM326.305 58.2578C326.305 58.0495 326.258 57.8568 326.164 57.6797C326.076 57.4974 325.891 57.3333 325.609 57.1875C325.333 57.0365 324.917 56.9062 324.359 56.7969C323.891 56.6979 323.466 56.5807 323.086 56.4453C322.711 56.3099 322.391 56.1458 322.125 55.9531C321.865 55.7604 321.664 55.5339 321.523 55.2734C321.383 55.013 321.312 54.7083 321.312 54.3594C321.312 54.026 321.385 53.7109 321.531 53.4141C321.682 53.1172 321.893 52.8542 322.164 52.625C322.44 52.3958 322.771 52.2161 323.156 52.0859C323.542 51.9557 323.971 51.8906 324.445 51.8906C325.122 51.8906 325.701 52.0104 326.18 52.25C326.659 52.4896 327.026 52.8099 327.281 53.2109C327.536 53.6068 327.664 54.0469 327.664 54.5312H326.219C326.219 54.2969 326.148 54.0703 326.008 53.8516C325.872 53.6276 325.672 53.4427 325.406 53.2969C325.146 53.151 324.826 53.0781 324.445 53.0781C324.044 53.0781 323.719 53.1406 323.469 53.2656C323.224 53.3854 323.044 53.5391 322.93 53.7266C322.82 53.9141 322.766 54.112 322.766 54.3203C322.766 54.4766 322.792 54.6172 322.844 54.7422C322.901 54.862 323 54.974 323.141 55.0781C323.281 55.1771 323.479 55.2708 323.734 55.3594C323.99 55.4479 324.315 55.5365 324.711 55.625C325.404 55.7812 325.974 55.9688 326.422 56.1875C326.87 56.4062 327.203 56.6745 327.422 56.9922C327.641 57.3099 327.75 57.6953 327.75 58.1484C327.75 58.5182 327.672 58.8568 327.516 59.1641C327.365 59.4714 327.143 59.737 326.852 59.9609C326.565 60.1797 326.221 60.3516 325.82 60.4766C325.424 60.5964 324.979 60.6562 324.484 60.6562C323.74 60.6562 323.109 60.5234 322.594 60.2578C322.078 59.9922 321.688 59.6484 321.422 59.2266C321.156 58.8047 321.023 58.3594 321.023 57.8906H322.477C322.497 58.2865 322.612 58.6016 322.82 58.8359C323.029 59.0651 323.284 59.2292 323.586 59.3281C323.888 59.4219 324.188 59.4688 324.484 59.4688C324.88 59.4688 325.211 59.4167 325.477 59.3125C325.747 59.2083 325.953 59.0651 326.094 58.8828C326.234 58.7005 326.305 58.4922 326.305 58.2578ZM333.156 60.6562C332.568 60.6562 332.034 60.5573 331.555 60.3594C331.081 60.1562 330.672 59.8724 330.328 59.5078C329.99 59.1432 329.729 58.7109 329.547 58.2109C329.365 57.7109 329.273 57.1641 329.273 56.5703V56.2422C329.273 55.5547 329.375 54.9427 329.578 54.4062C329.781 53.8646 330.057 53.4062 330.406 53.0312C330.755 52.6562 331.151 52.3724 331.594 52.1797C332.036 51.987 332.495 51.8906 332.969 51.8906C333.573 51.8906 334.094 51.9948 334.531 52.2031C334.974 52.4115 335.336 52.7031 335.617 53.0781C335.898 53.4479 336.107 53.8854 336.242 54.3906C336.378 54.8906 336.445 55.4375 336.445 56.0312V56.6797H330.133V55.5H335V55.3906C334.979 55.0156 334.901 54.651 334.766 54.2969C334.635 53.9427 334.427 53.651 334.141 53.4219C333.854 53.1927 333.464 53.0781 332.969 53.0781C332.641 53.0781 332.339 53.1484 332.062 53.2891C331.786 53.4245 331.549 53.6276 331.352 53.8984C331.154 54.1693 331 54.5 330.891 54.8906C330.781 55.2812 330.727 55.7318 330.727 56.2422V56.5703C330.727 56.9714 330.781 57.349 330.891 57.7031C331.005 58.0521 331.169 58.3594 331.383 58.625C331.602 58.8906 331.865 59.099 332.172 59.25C332.484 59.401 332.839 59.4766 333.234 59.4766C333.745 59.4766 334.177 59.3724 334.531 59.1641C334.885 58.9557 335.195 58.6771 335.461 58.3281L336.336 59.0234C336.154 59.2995 335.922 59.5625 335.641 59.8125C335.359 60.0625 335.013 60.2656 334.602 60.4219C334.195 60.5781 333.714 60.6562 333.156 60.6562ZM341.516 59.4688C341.859 59.4688 342.177 59.3984 342.469 59.2578C342.76 59.1172 343 58.9245 343.188 58.6797C343.375 58.4297 343.482 58.1458 343.508 57.8281H344.883C344.857 58.3281 344.688 58.7943 344.375 59.2266C344.068 59.6536 343.664 60 343.164 60.2656C342.664 60.526 342.115 60.6562 341.516 60.6562C340.88 60.6562 340.326 60.5443 339.852 60.3203C339.383 60.0964 338.992 59.7891 338.68 59.3984C338.372 59.0078 338.141 58.5599 337.984 58.0547C337.833 57.5443 337.758 57.0052 337.758 56.4375V56.1094C337.758 55.5417 337.833 55.0052 337.984 54.5C338.141 53.9896 338.372 53.5391 338.68 53.1484C338.992 52.7578 339.383 52.4505 339.852 52.2266C340.326 52.0026 340.88 51.8906 341.516 51.8906C342.177 51.8906 342.755 52.026 343.25 52.2969C343.745 52.5625 344.133 52.9271 344.414 53.3906C344.701 53.849 344.857 54.3698 344.883 54.9531H343.508C343.482 54.6042 343.383 54.2891 343.211 54.0078C343.044 53.7266 342.815 53.5026 342.523 53.3359C342.237 53.1641 341.901 53.0781 341.516 53.0781C341.073 53.0781 340.701 53.1667 340.398 53.3438C340.102 53.5156 339.865 53.75 339.688 54.0469C339.516 54.3385 339.391 54.6641 339.312 55.0234C339.24 55.3776 339.203 55.7396 339.203 56.1094V56.4375C339.203 56.8073 339.24 57.1719 339.312 57.5312C339.385 57.8906 339.508 58.2161 339.68 58.5078C339.857 58.7995 340.094 59.0339 340.391 59.2109C340.693 59.3828 341.068 59.4688 341.516 59.4688ZM346.125 56.3672V56.1875C346.125 55.5781 346.214 55.013 346.391 54.4922C346.568 53.9661 346.823 53.5104 347.156 53.125C347.49 52.7344 347.893 52.4323 348.367 52.2188C348.841 52 349.372 51.8906 349.961 51.8906C350.555 51.8906 351.089 52 351.562 52.2188C352.042 52.4323 352.448 52.7344 352.781 53.125C353.12 53.5104 353.378 53.9661 353.555 54.4922C353.732 55.013 353.82 55.5781 353.82 56.1875V56.3672C353.82 56.9766 353.732 57.5417 353.555 58.0625C353.378 58.5833 353.12 59.0391 352.781 59.4297C352.448 59.8151 352.044 60.1172 351.57 60.3359C351.102 60.5495 350.57 60.6562 349.977 60.6562C349.383 60.6562 348.849 60.5495 348.375 60.3359C347.901 60.1172 347.495 59.8151 347.156 59.4297C346.823 59.0391 346.568 58.5833 346.391 58.0625C346.214 57.5417 346.125 56.9766 346.125 56.3672ZM347.57 56.1875V56.3672C347.57 56.7891 347.62 57.1875 347.719 57.5625C347.818 57.9323 347.966 58.2604 348.164 58.5469C348.367 58.8333 348.62 59.0599 348.922 59.2266C349.224 59.388 349.576 59.4688 349.977 59.4688C350.372 59.4688 350.719 59.388 351.016 59.2266C351.318 59.0599 351.568 58.8333 351.766 58.5469C351.964 58.2604 352.112 57.9323 352.211 57.5625C352.315 57.1875 352.367 56.7891 352.367 56.3672V56.1875C352.367 55.7708 352.315 55.3776 352.211 55.0078C352.112 54.6328 351.961 54.3021 351.758 54.0156C351.56 53.724 351.31 53.4948 351.008 53.3281C350.711 53.1615 350.362 53.0781 349.961 53.0781C349.565 53.0781 349.216 53.1615 348.914 53.3281C348.617 53.4948 348.367 53.724 348.164 54.0156C347.966 54.3021 347.818 54.6328 347.719 55.0078C347.62 55.3776 347.57 55.7708 347.57 56.1875ZM357.078 53.8516V60.5H355.633V52.0469H357L357.078 53.8516ZM356.734 55.9531L356.133 55.9297C356.138 55.3516 356.224 54.8177 356.391 54.3281C356.557 53.8333 356.792 53.4036 357.094 53.0391C357.396 52.6745 357.755 52.3932 358.172 52.1953C358.594 51.9922 359.06 51.8906 359.57 51.8906C359.987 51.8906 360.362 51.9479 360.695 52.0625C361.029 52.1719 361.312 52.349 361.547 52.5938C361.786 52.8385 361.969 53.1562 362.094 53.5469C362.219 53.9323 362.281 54.4036 362.281 54.9609V60.5H360.828V54.9453C360.828 54.5026 360.763 54.1484 360.633 53.8828C360.503 53.612 360.312 53.4167 360.062 53.2969C359.812 53.1719 359.505 53.1094 359.141 53.1094C358.781 53.1094 358.453 53.1849 358.156 53.3359C357.865 53.487 357.612 53.6953 357.398 53.9609C357.19 54.2266 357.026 54.5312 356.906 54.875C356.792 55.2135 356.734 55.5729 356.734 55.9531ZM369.805 58.8594V48.5H371.258V60.5H369.93L369.805 58.8594ZM364.117 56.3672V56.2031C364.117 55.5573 364.195 54.9714 364.352 54.4453C364.513 53.9141 364.74 53.4583 365.031 53.0781C365.328 52.6979 365.68 52.4062 366.086 52.2031C366.497 51.9948 366.956 51.8906 367.461 51.8906C367.992 51.8906 368.456 51.9844 368.852 52.1719C369.253 52.3542 369.591 52.6224 369.867 52.9766C370.148 53.3255 370.37 53.7474 370.531 54.2422C370.693 54.737 370.805 55.2969 370.867 55.9219V56.6406C370.81 57.2604 370.698 57.8177 370.531 58.3125C370.37 58.8073 370.148 59.2292 369.867 59.5781C369.591 59.9271 369.253 60.1953 368.852 60.3828C368.451 60.5651 367.982 60.6562 367.445 60.6562C366.951 60.6562 366.497 60.5495 366.086 60.3359C365.68 60.1224 365.328 59.8229 365.031 59.4375C364.74 59.0521 364.513 58.599 364.352 58.0781C364.195 57.5521 364.117 56.9818 364.117 56.3672ZM365.57 56.2031V56.3672C365.57 56.7891 365.612 57.1849 365.695 57.5547C365.784 57.9245 365.919 58.25 366.102 58.5312C366.284 58.8125 366.516 59.0339 366.797 59.1953C367.078 59.3516 367.414 59.4297 367.805 59.4297C368.284 59.4297 368.677 59.3281 368.984 59.125C369.297 58.9219 369.547 58.6536 369.734 58.3203C369.922 57.987 370.068 57.625 370.172 57.2344V55.3516C370.109 55.0651 370.018 54.7891 369.898 54.5234C369.784 54.2526 369.633 54.013 369.445 53.8047C369.263 53.5911 369.036 53.4219 368.766 53.2969C368.5 53.1719 368.185 53.1094 367.82 53.1094C367.424 53.1094 367.083 53.1927 366.797 53.3594C366.516 53.5208 366.284 53.7448 366.102 54.0312C365.919 54.3125 365.784 54.6406 365.695 55.0156C365.612 55.3854 365.57 55.7812 365.57 56.2031ZM378.43 58.2578C378.43 58.0495 378.383 57.8568 378.289 57.6797C378.201 57.4974 378.016 57.3333 377.734 57.1875C377.458 57.0365 377.042 56.9062 376.484 56.7969C376.016 56.6979 375.591 56.5807 375.211 56.4453C374.836 56.3099 374.516 56.1458 374.25 55.9531C373.99 55.7604 373.789 55.5339 373.648 55.2734C373.508 55.013 373.438 54.7083 373.438 54.3594C373.438 54.026 373.51 53.7109 373.656 53.4141C373.807 53.1172 374.018 52.8542 374.289 52.625C374.565 52.3958 374.896 52.2161 375.281 52.0859C375.667 51.9557 376.096 51.8906 376.57 51.8906C377.247 51.8906 377.826 52.0104 378.305 52.25C378.784 52.4896 379.151 52.8099 379.406 53.2109C379.661 53.6068 379.789 54.0469 379.789 54.5312H378.344C378.344 54.2969 378.273 54.0703 378.133 53.8516C377.997 53.6276 377.797 53.4427 377.531 53.2969C377.271 53.151 376.951 53.0781 376.57 53.0781C376.169 53.0781 375.844 53.1406 375.594 53.2656C375.349 53.3854 375.169 53.5391 375.055 53.7266C374.945 53.9141 374.891 54.112 374.891 54.3203C374.891 54.4766 374.917 54.6172 374.969 54.7422C375.026 54.862 375.125 54.974 375.266 55.0781C375.406 55.1771 375.604 55.2708 375.859 55.3594C376.115 55.4479 376.44 55.5365 376.836 55.625C377.529 55.7812 378.099 55.9688 378.547 56.1875C378.995 56.4062 379.328 56.6745 379.547 56.9922C379.766 57.3099 379.875 57.6953 379.875 58.1484C379.875 58.5182 379.797 58.8568 379.641 59.1641C379.49 59.4714 379.268 59.737 378.977 59.9609C378.69 60.1797 378.346 60.3516 377.945 60.4766C377.549 60.5964 377.104 60.6562 376.609 60.6562C375.865 60.6562 375.234 60.5234 374.719 60.2578C374.203 59.9922 373.812 59.6484 373.547 59.2266C373.281 58.8047 373.148 58.3594 373.148 57.8906H374.602C374.622 58.2865 374.737 58.6016 374.945 58.8359C375.154 59.0651 375.409 59.2292 375.711 59.3281C376.013 59.4219 376.312 59.4688 376.609 59.4688C377.005 59.4688 377.336 59.4167 377.602 59.3125C377.872 59.2083 378.078 59.0651 378.219 58.8828C378.359 58.7005 378.43 58.4922 378.43 58.2578Z" fill="black"/>
</svg>
