<!-- Generated by IcoMoon.io -->
<svg version="1.1" xmlns="http://www.w3.org/2000/svg" width="24" height="24" viewBox="0 0 24 24">
<title>color-lens</title>
<path fill="#444" d="M12 0.866c-6.149 0-11.134 4.986-11.134 11.134s4.986 11.134 11.134 11.134c1.027 0 1.856-0.829 1.856-1.856 0-0.482-0.179-0.915-0.482-1.243-0.291-0.328-0.464-0.755-0.464-1.231 0-1.027 0.829-1.856 1.856-1.856h2.184c3.414 0 6.186-2.771 6.186-6.186 0-5.468-4.986-9.897-11.134-9.897zM5.196 12c-1.027 0-1.856-0.829-1.856-1.856s0.829-1.856 1.856-1.856 1.856 0.829 1.856 1.856-0.829 1.856-1.856 1.856zM8.907 7.051c-1.027 0-1.856-0.829-1.856-1.856s0.829-1.856 1.856-1.856 1.856 0.829 1.856 1.856-0.829 1.856-1.856 1.856zM15.093 7.051c-1.027 0-1.856-0.829-1.856-1.856s0.829-1.856 1.856-1.856 1.856 0.829 1.856 1.856-0.829 1.856-1.856 1.856zM18.804 12c-1.027 0-1.856-0.829-1.856-1.856s0.829-1.856 1.856-1.856 1.856 0.829 1.856 1.856-0.829 1.856-1.856 1.856z"></path>
</svg>
