<!-- Generated by IcoMoon.io -->
<svg version="1.1" xmlns="http://www.w3.org/2000/svg" width="24" height="24" viewBox="0 0 24 24">
<title>style</title>
<path fill="#444" d="M2.189 20.335l1.465 0.604v-9.827l-2.64 6.375c-0.457 1.105 0.071 2.385 1.176 2.847zM23.421 16.295l-5.401-13.028c-0.338-0.817-1.132-1.323-1.965-1.339-0.289-0.005-0.583 0.049-0.871 0.163l-8.019 3.321c-0.817 0.338-1.318 1.127-1.339 1.96-0.005 0.294 0.044 0.588 0.163 0.877l5.395 13.028c0.343 0.828 1.143 1.328 1.993 1.339 0.283 0 0.566-0.049 0.844-0.163l8.019-3.321c1.105-0.457 1.639-1.731 1.181-2.836zM8.009 8.461c-0.599 0-1.089-0.49-1.089-1.089s0.49-1.089 1.089-1.089 1.089 0.49 1.089 1.089-0.49 1.089-1.089 1.089zM5.831 20.439c0 1.198 0.98 2.178 2.178 2.178h1.584l-3.762-9.081v6.903z"></path>
</svg>
