<svg width="116" height="79" viewBox="0 0 116 79" fill="none" xmlns="http://www.w3.org/2000/svg">
<g clip-path="url(#clip0_0_1)">
<rect width="26" height="15" fill="#B0B0B0"/>
<rect y="19" width="26" height="15" fill="#B0B0B0"/>
<rect y="38" width="26" height="15" fill="#B0B0B0"/>
<rect x="30" width="26" height="24" fill="#B0B0B0"/>
<rect x="30" y="28" width="26" height="21" fill="#B0B0B0"/>
<rect x="60" width="26" height="33" fill="#B0B0B0"/>
<rect x="60" y="37" width="26" height="16" fill="#B0B0B0"/>
<rect x="90" width="26" height="17" fill="#B0B0B0"/>
<rect x="90" y="21" width="26" height="25" fill="#B0B0B0"/>
</g>
<path d="M29.9912 76V65.9785H33.0195L34.8379 72.8145L36.6357 65.9785H39.6709V76H37.791V68.1113L35.8018 76H33.8535L31.8711 68.1113V76H29.9912ZM43.1025 70.9551L41.3594 70.6406C41.5553 69.9388 41.8926 69.4193 42.3711 69.082C42.8496 68.7448 43.5605 68.5762 44.5039 68.5762C45.3607 68.5762 45.9987 68.6787 46.418 68.8838C46.8372 69.0843 47.1312 69.3418 47.2998 69.6562C47.473 69.9661 47.5596 70.5381 47.5596 71.3721L47.5391 73.6143C47.5391 74.2523 47.5687 74.724 47.6279 75.0293C47.6917 75.3301 47.8079 75.6536 47.9766 76H46.0762C46.026 75.8724 45.9645 75.6833 45.8916 75.4326C45.8597 75.3187 45.8369 75.2435 45.8232 75.207C45.4951 75.526 45.1442 75.7653 44.7705 75.9248C44.3968 76.0843 43.998 76.1641 43.5742 76.1641C42.8268 76.1641 42.2367 75.9613 41.8037 75.5557C41.3753 75.1501 41.1611 74.6374 41.1611 74.0176C41.1611 73.6074 41.2591 73.2428 41.4551 72.9238C41.651 72.6003 41.9245 72.3542 42.2754 72.1855C42.6309 72.0124 43.1413 71.862 43.8066 71.7344C44.7044 71.5658 45.3265 71.4085 45.6729 71.2627V71.0713C45.6729 70.7021 45.5817 70.4401 45.3994 70.2852C45.2171 70.1257 44.873 70.0459 44.3672 70.0459C44.0254 70.0459 43.7588 70.1143 43.5674 70.251C43.376 70.3831 43.221 70.6178 43.1025 70.9551ZM45.6729 72.5137C45.4268 72.5957 45.0371 72.6937 44.5039 72.8076C43.9707 72.9215 43.6221 73.0332 43.458 73.1426C43.2074 73.3203 43.082 73.5459 43.082 73.8193C43.082 74.0882 43.1823 74.3206 43.3828 74.5166C43.5833 74.7126 43.8385 74.8105 44.1484 74.8105C44.4948 74.8105 44.8252 74.6966 45.1396 74.4688C45.3721 74.2956 45.5247 74.0837 45.5977 73.833C45.6478 73.6689 45.6729 73.3568 45.6729 72.8965V72.5137ZM48.7832 73.9287L50.7109 73.6348C50.793 74.0085 50.9593 74.2933 51.21 74.4893C51.4606 74.6807 51.8115 74.7764 52.2627 74.7764C52.7594 74.7764 53.1331 74.6852 53.3838 74.5029C53.5524 74.3753 53.6367 74.2044 53.6367 73.9902C53.6367 73.8444 53.5911 73.7236 53.5 73.6279C53.4043 73.5368 53.1901 73.4525 52.8574 73.375C51.3079 73.0332 50.3258 72.721 49.9111 72.4385C49.3369 72.0465 49.0498 71.502 49.0498 70.8047C49.0498 70.1758 49.2982 69.6471 49.7949 69.2188C50.2917 68.7904 51.0618 68.5762 52.1055 68.5762C53.099 68.5762 53.8372 68.738 54.3203 69.0615C54.8034 69.3851 55.1361 69.8636 55.3184 70.4971L53.5068 70.832C53.4294 70.5495 53.2812 70.333 53.0625 70.1826C52.8483 70.0322 52.5407 69.957 52.1396 69.957C51.6338 69.957 51.2715 70.0277 51.0527 70.1689C50.9069 70.2692 50.834 70.3991 50.834 70.5586C50.834 70.6953 50.8978 70.8115 51.0254 70.9072C51.1986 71.0348 51.7956 71.2148 52.8164 71.4473C53.8418 71.6797 54.5573 71.9645 54.9629 72.3018C55.3639 72.6436 55.5645 73.1198 55.5645 73.7305C55.5645 74.3958 55.2865 74.9678 54.7305 75.4463C54.1745 75.9248 53.3519 76.1641 52.2627 76.1641C51.2738 76.1641 50.4899 75.9635 49.9111 75.5625C49.3369 75.1615 48.9609 74.6169 48.7832 73.9287ZM56.8086 72.2676C56.8086 71.6296 56.9658 71.012 57.2803 70.415C57.5947 69.818 58.0391 69.3623 58.6133 69.0479C59.1921 68.7334 59.8369 68.5762 60.5479 68.5762C61.6462 68.5762 62.5462 68.9339 63.248 69.6494C63.9499 70.3604 64.3008 71.2604 64.3008 72.3496C64.3008 73.4479 63.9453 74.3594 63.2344 75.084C62.528 75.804 61.637 76.1641 60.5615 76.1641C59.8962 76.1641 59.2604 76.0137 58.6543 75.7129C58.0527 75.4121 57.5947 74.9723 57.2803 74.3936C56.9658 73.8102 56.8086 73.1016 56.8086 72.2676ZM58.7773 72.3701C58.7773 73.0902 58.9482 73.6416 59.29 74.0244C59.6318 74.4072 60.0534 74.5986 60.5547 74.5986C61.056 74.5986 61.4753 74.4072 61.8125 74.0244C62.1543 73.6416 62.3252 73.0856 62.3252 72.3564C62.3252 71.6455 62.1543 71.0986 61.8125 70.7158C61.4753 70.333 61.056 70.1416 60.5547 70.1416C60.0534 70.1416 59.6318 70.333 59.29 70.7158C58.9482 71.0986 58.7773 71.6501 58.7773 72.3701ZM72.415 76H70.4941V72.2949C70.4941 71.5111 70.4531 71.0052 70.3711 70.7773C70.2891 70.5449 70.1546 70.3649 69.9678 70.2373C69.7855 70.1097 69.5645 70.0459 69.3047 70.0459C68.972 70.0459 68.6735 70.137 68.4092 70.3193C68.1449 70.5016 67.9626 70.7432 67.8623 71.0439C67.7666 71.3447 67.7188 71.9007 67.7188 72.7119V76H65.7979V68.7402H67.582V69.8066C68.2155 68.9863 69.013 68.5762 69.9746 68.5762C70.3984 68.5762 70.7858 68.6536 71.1367 68.8086C71.4876 68.959 71.752 69.1527 71.9297 69.3896C72.112 69.6266 72.2373 69.8955 72.3057 70.1963C72.3786 70.4971 72.415 70.9277 72.415 71.4883V76ZM76.209 76H74.2881V68.7402H76.0723V69.7725C76.3776 69.2848 76.651 68.9635 76.8926 68.8086C77.1387 68.6536 77.4167 68.5762 77.7266 68.5762C78.1641 68.5762 78.5856 68.6969 78.9912 68.9385L78.3965 70.6133C78.0729 70.4036 77.7721 70.2988 77.4941 70.2988C77.2253 70.2988 76.9974 70.374 76.8105 70.5244C76.6237 70.6702 76.4756 70.9368 76.3662 71.3242C76.2614 71.7116 76.209 72.5228 76.209 73.7578V76ZM78.916 68.7402H80.96L82.6963 73.8945L84.3916 68.7402H86.3809L83.8174 75.7266L83.3594 76.9912C83.1908 77.415 83.029 77.7386 82.874 77.9619C82.7236 78.1852 82.5482 78.3652 82.3477 78.502C82.1517 78.6432 81.9079 78.7526 81.6162 78.8301C81.3291 78.9076 81.0033 78.9463 80.6387 78.9463C80.2695 78.9463 79.9072 78.9076 79.5518 78.8301L79.3809 77.3262C79.6816 77.3854 79.9528 77.415 80.1943 77.415C80.641 77.415 80.9714 77.2829 81.1855 77.0186C81.3997 76.7588 81.5638 76.4261 81.6777 76.0205L78.916 68.7402Z" fill="#B0B0B0"/>
<defs>
<clipPath id="clip0_0_1">
<rect width="116" height="53" fill="white"/>
</clipPath>
</defs>
</svg>