<svg width="121" height="79" viewBox="0 0 121 79" fill="none" xmlns="http://www.w3.org/2000/svg">
<rect width="121" height="38" fill="#A7A7A7"/>
<mask id="mask0_2209_1879" style="mask-type:alpha" maskUnits="userSpaceOnUse" x="5" y="13" width="12" height="12">
<rect x="5" y="13" width="12" height="12" fill="#D9D9D9"/>
</mask>
<g mask="url(#mask0_2209_1879)">
<path d="M13 24.0002L8 19.0002L13 14.0002L13.8875 14.8877L9.775 19.0002L13.8875 23.1127L13 24.0002Z" fill="white"/>
</g>
<mask id="mask1_2209_1879" style="mask-type:alpha" maskUnits="userSpaceOnUse" x="104" y="13" width="12" height="12">
<rect x="116" y="25" width="12" height="12" transform="rotate(180 116 25)" fill="#D9D9D9"/>
</mask>
<g mask="url(#mask1_2209_1879)">
<path d="M108 13.9998L113 18.9998L108 23.9998L107.112 23.1123L111.225 18.9998L107.112 14.8873L108 13.9998Z" fill="white"/>
</g>
<g clip-path="url(#clip0_2209_1879)">
<rect y="41" width="12" height="12" fill="#A7A7A7"/>
<rect x="15" y="41" width="13" height="12" fill="#A7A7A7"/>
<rect x="31" y="41" width="13" height="12" fill="#A7A7A7"/>
<rect x="47" y="41" width="12" height="12" fill="#A7A7A7"/>
<rect x="62" y="41" width="12" height="12" fill="#A7A7A7"/>
<rect x="77" y="41" width="13" height="12" fill="#A7A7A7"/>
<rect x="93" y="41" width="13" height="12" fill="#A7A7A7"/>
<rect x="109" y="41" width="12" height="12" fill="#A7A7A7"/>
</g>
<path d="M26.0059 72.7393L27.9746 72.5479C28.0931 73.2087 28.3324 73.694 28.6924 74.0039C29.057 74.3138 29.5469 74.4688 30.1621 74.4688C30.8138 74.4688 31.3037 74.332 31.6318 74.0586C31.9645 73.7806 32.1309 73.457 32.1309 73.0879C32.1309 72.8509 32.0602 72.6504 31.9189 72.4863C31.7822 72.3177 31.5407 72.1719 31.1943 72.0488C30.9574 71.9668 30.4173 71.821 29.5742 71.6113C28.4896 71.3424 27.7285 71.012 27.291 70.6201C26.6758 70.0687 26.3682 69.3965 26.3682 68.6035C26.3682 68.0931 26.5117 67.6169 26.7988 67.1748C27.0905 66.7282 27.5075 66.3887 28.0498 66.1562C28.5967 65.9238 29.2552 65.8076 30.0254 65.8076C31.2832 65.8076 32.2288 66.0833 32.8623 66.6348C33.5003 67.1862 33.8353 67.9222 33.8672 68.8428L31.8438 68.9316C31.7572 68.4167 31.5703 68.0475 31.2832 67.8242C31.0007 67.5964 30.5745 67.4824 30.0049 67.4824C29.417 67.4824 28.9567 67.6032 28.624 67.8447C28.4098 67.9997 28.3027 68.207 28.3027 68.4668C28.3027 68.7038 28.403 68.9066 28.6035 69.0752C28.8587 69.2894 29.4785 69.5127 30.4629 69.7451C31.4473 69.9775 32.1742 70.2191 32.6436 70.4697C33.1175 70.7158 33.4867 71.0553 33.751 71.4883C34.0199 71.9167 34.1543 72.4476 34.1543 73.0811C34.1543 73.6553 33.9948 74.193 33.6758 74.6943C33.3568 75.1956 32.9056 75.5693 32.3223 75.8154C31.7389 76.057 31.012 76.1777 30.1416 76.1777C28.8747 76.1777 27.9017 75.8861 27.2227 75.3027C26.5436 74.7148 26.138 73.8604 26.0059 72.7393ZM35.8428 76V65.9785H37.7637V76H35.8428ZM39.7393 67.7559V65.9785H41.6602V67.7559H39.7393ZM39.7393 76V68.7402H41.6602V76H39.7393ZM50.2939 76H48.5098V74.9336C48.2135 75.3483 47.8626 75.6582 47.457 75.8633C47.056 76.0638 46.6504 76.1641 46.2402 76.1641C45.4062 76.1641 44.6908 75.8291 44.0938 75.1592C43.5013 74.4847 43.2051 73.5459 43.2051 72.3428C43.2051 71.1123 43.4945 70.1781 44.0732 69.54C44.652 68.8975 45.3835 68.5762 46.2676 68.5762C47.0788 68.5762 47.7806 68.9134 48.373 69.5879V65.9785H50.2939V76ZM45.167 72.2129C45.167 72.9876 45.2741 73.5482 45.4883 73.8945C45.7982 74.3958 46.2311 74.6465 46.7871 74.6465C47.2292 74.6465 47.6051 74.4596 47.915 74.0859C48.2249 73.7077 48.3799 73.1449 48.3799 72.3975C48.3799 71.5635 48.2295 70.9642 47.9287 70.5996C47.6279 70.2305 47.2428 70.0459 46.7734 70.0459C46.3177 70.0459 45.9349 70.2282 45.625 70.5928C45.3197 70.9528 45.167 71.4928 45.167 72.2129ZM56.3984 73.6895L58.3125 74.0107C58.0664 74.7126 57.6768 75.248 57.1436 75.6172C56.6149 75.9818 55.9518 76.1641 55.1543 76.1641C53.8919 76.1641 52.9577 75.7516 52.3516 74.9268C51.873 74.266 51.6338 73.432 51.6338 72.4248C51.6338 71.2217 51.9482 70.2806 52.5771 69.6016C53.2061 68.918 54.0013 68.5762 54.9629 68.5762C56.043 68.5762 56.8952 68.9339 57.5195 69.6494C58.1439 70.3604 58.4424 71.4518 58.415 72.9238H53.6025C53.6162 73.4935 53.7712 73.9378 54.0674 74.2568C54.3636 74.5713 54.7327 74.7285 55.1748 74.7285C55.4756 74.7285 55.7285 74.6465 55.9336 74.4824C56.1387 74.3184 56.2936 74.054 56.3984 73.6895ZM56.5078 71.748C56.4941 71.1921 56.3506 70.7705 56.0771 70.4834C55.8037 70.1917 55.471 70.0459 55.0791 70.0459C54.6598 70.0459 54.3135 70.1986 54.04 70.5039C53.7666 70.8092 53.6322 71.224 53.6367 71.748H56.5078ZM59.3105 73.9287L61.2383 73.6348C61.3203 74.0085 61.4867 74.2933 61.7373 74.4893C61.988 74.6807 62.3389 74.7764 62.79 74.7764C63.2868 74.7764 63.6605 74.6852 63.9111 74.5029C64.0798 74.3753 64.1641 74.2044 64.1641 73.9902C64.1641 73.8444 64.1185 73.7236 64.0273 73.6279C63.9316 73.5368 63.7174 73.4525 63.3848 73.375C61.8353 73.0332 60.8532 72.721 60.4385 72.4385C59.8643 72.0465 59.5771 71.502 59.5771 70.8047C59.5771 70.1758 59.8255 69.6471 60.3223 69.2188C60.819 68.7904 61.5892 68.5762 62.6328 68.5762C63.6263 68.5762 64.3646 68.738 64.8477 69.0615C65.3307 69.3851 65.6634 69.8636 65.8457 70.4971L64.0342 70.832C63.9567 70.5495 63.8086 70.333 63.5898 70.1826C63.3757 70.0322 63.068 69.957 62.667 69.957C62.1611 69.957 61.7988 70.0277 61.5801 70.1689C61.4342 70.2692 61.3613 70.3991 61.3613 70.5586C61.3613 70.6953 61.4251 70.8115 61.5527 70.9072C61.7259 71.0348 62.3229 71.2148 63.3438 71.4473C64.3691 71.6797 65.0846 71.9645 65.4902 72.3018C65.8913 72.6436 66.0918 73.1198 66.0918 73.7305C66.0918 74.3958 65.8138 74.9678 65.2578 75.4463C64.7018 75.9248 63.8792 76.1641 62.79 76.1641C61.8011 76.1641 61.0173 75.9635 60.4385 75.5625C59.8643 75.1615 59.4883 74.6169 59.3105 73.9287ZM69.6943 65.9785V69.6631C70.3141 68.9385 71.0547 68.5762 71.916 68.5762C72.3581 68.5762 72.7568 68.6582 73.1123 68.8223C73.4678 68.9863 73.7344 69.196 73.9121 69.4512C74.0944 69.7064 74.2174 69.9889 74.2812 70.2988C74.3496 70.6087 74.3838 71.0895 74.3838 71.7412V76H72.4629V72.165C72.4629 71.404 72.4264 70.9209 72.3535 70.7158C72.2806 70.5107 72.1507 70.349 71.9639 70.2305C71.7816 70.1074 71.5514 70.0459 71.2734 70.0459C70.9544 70.0459 70.6696 70.1234 70.4189 70.2783C70.1683 70.4333 69.9837 70.668 69.8652 70.9824C69.7513 71.2923 69.6943 71.7526 69.6943 72.3633V76H67.7734V65.9785H69.6943ZM75.8945 72.2676C75.8945 71.6296 76.0518 71.012 76.3662 70.415C76.6807 69.818 77.125 69.3623 77.6992 69.0479C78.278 68.7334 78.9229 68.5762 79.6338 68.5762C80.7321 68.5762 81.6322 68.9339 82.334 69.6494C83.0358 70.3604 83.3867 71.2604 83.3867 72.3496C83.3867 73.4479 83.0312 74.3594 82.3203 75.084C81.6139 75.804 80.723 76.1641 79.6475 76.1641C78.9821 76.1641 78.3464 76.0137 77.7402 75.7129C77.1387 75.4121 76.6807 74.9723 76.3662 74.3936C76.0518 73.8102 75.8945 73.1016 75.8945 72.2676ZM77.8633 72.3701C77.8633 73.0902 78.0342 73.6416 78.376 74.0244C78.7178 74.4072 79.1393 74.5986 79.6406 74.5986C80.1419 74.5986 80.5612 74.4072 80.8984 74.0244C81.2402 73.6416 81.4111 73.0856 81.4111 72.3564C81.4111 71.6455 81.2402 71.0986 80.8984 70.7158C80.5612 70.333 80.1419 70.1416 79.6406 70.1416C79.1393 70.1416 78.7178 70.333 78.376 70.7158C78.0342 71.0986 77.8633 71.6501 77.8633 72.3701ZM86.251 76L83.9541 68.7402H85.8203L87.1807 73.498L88.4316 68.7402H90.2842L91.4941 73.498L92.8818 68.7402H94.7754L92.4443 76H90.5986L89.3477 71.3311L88.1172 76H86.251Z" fill="#B0B0B0"/>
<defs>
<clipPath id="clip0_2209_1879">
<rect width="121" height="12" fill="white" transform="translate(0 41)"/>
</clipPath>
</defs>
</svg>
