<svg width="121" height="78" viewBox="0 0 121 78" fill="none" xmlns="http://www.w3.org/2000/svg">
<g clip-path="url(#clip0_0_1)">
<rect width="29" height="25" fill="#B0B0B0"/>
<rect x="33" width="16" height="25" fill="#B0B0B0"/>
<rect x="53" width="26" height="25" fill="#B0B0B0"/>
<rect x="83" width="38" height="25" fill="#B0B0B0"/>
<rect y="29" width="23" height="25" fill="#B0B0B0"/>
<rect x="27" y="29" width="32" height="25" fill="#B0B0B0"/>
<rect x="63" y="29" width="58" height="25" fill="#B0B0B0"/>
</g>
<path d="M36.1348 66.9785H38.1514V73.3223C38.1514 74.1517 38.0785 74.7897 37.9326 75.2363C37.7367 75.8197 37.3812 76.2891 36.8662 76.6445C36.3512 76.9954 35.6722 77.1709 34.8291 77.1709C33.8402 77.1709 33.0791 76.8952 32.5459 76.3438C32.0127 75.7878 31.7438 74.9743 31.7393 73.9033L33.6465 73.6846C33.6693 74.2588 33.7536 74.6644 33.8994 74.9014C34.1182 75.2614 34.4508 75.4414 34.8975 75.4414C35.3486 75.4414 35.6676 75.3138 35.8545 75.0586C36.0413 74.7988 36.1348 74.2633 36.1348 73.4521V66.9785ZM45.0762 77V75.9131C44.8118 76.3005 44.4632 76.6058 44.0303 76.8291C43.6019 77.0524 43.1484 77.1641 42.6699 77.1641C42.1823 77.1641 41.7448 77.057 41.3574 76.8428C40.9701 76.6286 40.6898 76.3278 40.5166 75.9404C40.3434 75.5531 40.2568 75.0176 40.2568 74.334V69.7402H42.1777V73.0762C42.1777 74.097 42.2119 74.7236 42.2803 74.9561C42.3532 75.1839 42.4831 75.3662 42.6699 75.5029C42.8568 75.6351 43.0938 75.7012 43.3809 75.7012C43.709 75.7012 44.0029 75.6123 44.2627 75.4346C44.5225 75.2523 44.7002 75.029 44.7959 74.7646C44.8916 74.4958 44.9395 73.8418 44.9395 72.8027V69.7402H46.8604V77H45.0762ZM48.1797 74.9287L50.1074 74.6348C50.1895 75.0085 50.3558 75.2933 50.6064 75.4893C50.8571 75.6807 51.208 75.7764 51.6592 75.7764C52.1559 75.7764 52.5296 75.6852 52.7803 75.5029C52.9489 75.3753 53.0332 75.2044 53.0332 74.9902C53.0332 74.8444 52.9876 74.7236 52.8965 74.6279C52.8008 74.5368 52.5866 74.4525 52.2539 74.375C50.7044 74.0332 49.7223 73.721 49.3076 73.4385C48.7334 73.0465 48.4463 72.502 48.4463 71.8047C48.4463 71.1758 48.6947 70.6471 49.1914 70.2188C49.6882 69.7904 50.4583 69.5762 51.502 69.5762C52.4954 69.5762 53.2337 69.738 53.7168 70.0615C54.1999 70.3851 54.5326 70.8636 54.7148 71.4971L52.9033 71.832C52.8258 71.5495 52.6777 71.333 52.459 71.1826C52.2448 71.0322 51.9372 70.957 51.5361 70.957C51.0303 70.957 50.668 71.0277 50.4492 71.1689C50.3034 71.2692 50.2305 71.3991 50.2305 71.5586C50.2305 71.6953 50.2943 71.8115 50.4219 71.9072C50.5951 72.0348 51.1921 72.2148 52.2129 72.4473C53.2383 72.6797 53.9538 72.9645 54.3594 73.3018C54.7604 73.6436 54.9609 74.1198 54.9609 74.7305C54.9609 75.3958 54.6829 75.9678 54.127 76.4463C53.571 76.9248 52.7484 77.1641 51.6592 77.1641C50.6702 77.1641 49.8864 76.9635 49.3076 76.5625C48.7334 76.1615 48.3574 75.6169 48.1797 74.9287ZM59.9785 69.7402V71.2715H58.666V74.1973C58.666 74.7897 58.6774 75.1361 58.7002 75.2363C58.7275 75.332 58.7845 75.4118 58.8711 75.4756C58.9622 75.5394 59.0716 75.5713 59.1992 75.5713C59.377 75.5713 59.6344 75.5098 59.9717 75.3867L60.1357 76.877C59.6891 77.0684 59.1833 77.1641 58.6182 77.1641C58.2718 77.1641 57.9596 77.1071 57.6816 76.9932C57.4036 76.8747 57.1986 76.7243 57.0664 76.542C56.9388 76.3551 56.8499 76.1045 56.7998 75.79C56.7588 75.5667 56.7383 75.1156 56.7383 74.4365V71.2715H55.8564V69.7402H56.7383V68.2979L58.666 67.1768V69.7402H59.9785ZM61.3115 68.7559V66.9785H63.2324V68.7559H61.3115ZM61.3115 77V69.7402H63.2324V77H61.3115ZM64.3672 69.7402H65.4336V69.1934C65.4336 68.5827 65.4974 68.127 65.625 67.8262C65.7572 67.5254 65.9964 67.2816 66.3428 67.0947C66.6937 66.9033 67.1357 66.8076 67.6689 66.8076C68.2158 66.8076 68.7513 66.8896 69.2754 67.0537L69.0156 68.3936C68.7103 68.3206 68.4163 68.2842 68.1338 68.2842C67.8558 68.2842 67.6553 68.3503 67.5322 68.4824C67.4137 68.61 67.3545 68.8584 67.3545 69.2275V69.7402H68.79V71.251H67.3545V77H65.4336V71.251H64.3672V69.7402ZM69.8701 68.7559V66.9785H71.791V68.7559H69.8701ZM69.8701 77V69.7402H71.791V77H69.8701ZM77.9707 74.6895L79.8848 75.0107C79.6387 75.7126 79.249 76.248 78.7158 76.6172C78.1872 76.9818 77.5241 77.1641 76.7266 77.1641C75.4642 77.1641 74.5299 76.7516 73.9238 75.9268C73.4453 75.266 73.2061 74.432 73.2061 73.4248C73.2061 72.2217 73.5205 71.2806 74.1494 70.6016C74.7783 69.918 75.5736 69.5762 76.5352 69.5762C77.6152 69.5762 78.4674 69.9339 79.0918 70.6494C79.7161 71.3604 80.0146 72.4518 79.9873 73.9238H75.1748C75.1885 74.4935 75.3434 74.9378 75.6396 75.2568C75.9359 75.5713 76.305 75.7285 76.7471 75.7285C77.0479 75.7285 77.3008 75.6465 77.5059 75.4824C77.7109 75.3184 77.8659 75.054 77.9707 74.6895ZM78.0801 72.748C78.0664 72.1921 77.9229 71.7705 77.6494 71.4834C77.376 71.1917 77.0433 71.0459 76.6514 71.0459C76.2321 71.0459 75.8857 71.1986 75.6123 71.5039C75.3389 71.8092 75.2044 72.224 75.209 72.748H78.0801ZM88.2178 77H86.4336V75.9336C86.1374 76.3483 85.7865 76.6582 85.3809 76.8633C84.9798 77.0638 84.5742 77.1641 84.1641 77.1641C83.3301 77.1641 82.6146 76.8291 82.0176 76.1592C81.4251 75.4847 81.1289 74.5459 81.1289 73.3428C81.1289 72.1123 81.4183 71.1781 81.9971 70.54C82.5758 69.8975 83.3073 69.5762 84.1914 69.5762C85.0026 69.5762 85.7044 69.9134 86.2969 70.5879V66.9785H88.2178V77ZM83.0908 73.2129C83.0908 73.9876 83.1979 74.5482 83.4121 74.8945C83.722 75.3958 84.1549 75.6465 84.7109 75.6465C85.153 75.6465 85.529 75.4596 85.8389 75.0859C86.1488 74.7077 86.3037 74.1449 86.3037 73.3975C86.3037 72.5635 86.1533 71.9642 85.8525 71.5996C85.5518 71.2305 85.1667 71.0459 84.6973 71.0459C84.2415 71.0459 83.8587 71.2282 83.5488 71.5928C83.2435 71.9528 83.0908 72.4928 83.0908 73.2129Z" fill="#B0B0B0"/>
<defs>
<clipPath id="clip0_0_1">
<rect width="121" height="54" fill="white"/>
</clipPath>
</defs>
</svg>